<svg width="500" height="174" viewBox="0 0 500 174" fill="none" xmlns="http://www.w3.org/2000/svg">
<rect x="12" y="12" width="476" height="150" rx="32" fill="black" fill-opacity="0.5"/>
<path d="M108 76.6L72 55.84" stroke="#CBCBCB" stroke-width="6" stroke-linecap="round" stroke-linejoin="round"/>
<path d="M126 103V71C125.999 69.5971 125.628 68.2192 124.926 67.0047C124.224 65.7901 123.215 64.7815 122 64.08L94 48.08C92.7838 47.3779 91.4043 47.0082 90 47.0082C88.5957 47.0082 87.2162 47.3779 86 48.08L58 64.08C56.7851 64.7815 55.7759 65.7901 55.0738 67.0047C54.3718 68.2192 54.0014 69.5971 54 71V103C54.0014 104.403 54.3718 105.781 55.0738 106.995C55.7759 108.21 56.7851 109.219 58 109.92L86 125.92C87.2162 126.622 88.5957 126.992 90 126.992C91.4043 126.992 92.7838 126.622 94 125.92L122 109.92C123.215 109.219 124.224 108.21 124.926 106.995C125.628 105.781 125.999 104.403 126 103Z" stroke="#CBCBCB" stroke-width="6" stroke-linecap="round" stroke-linejoin="round"/>
<path d="M55.16 67L90 87L124.84 67" stroke="#CBCBCB" stroke-width="6" stroke-linecap="round" stroke-linejoin="round"/>
<path d="M90 127V87" stroke="#CBCBCB" stroke-width="6" stroke-linecap="round" stroke-linejoin="round"/>
<path d="M172.12 99.48C169.88 99.48 167.827 98.9867 165.96 98C164.12 96.9867 162.64 95.48 161.52 93.48C160.4 91.48 159.84 89.0267 159.84 86.12C159.84 83.96 160.16 82.04 160.8 80.36C161.467 78.6533 162.373 77.2133 163.52 76.04C164.667 74.8667 165.973 73.9733 167.44 73.36C168.933 72.7467 170.507 72.44 172.16 72.44C173.84 72.44 175.347 72.7733 176.68 73.44C178.013 74.1067 179.12 74.9067 180 75.84L176.88 79.4C176.24 78.7867 175.547 78.3333 174.8 78.04C174.053 77.72 173.213 77.56 172.28 77.56C171.133 77.56 170.067 77.9067 169.08 78.6C168.12 79.2667 167.347 80.2267 166.76 81.48C166.173 82.7333 165.88 84.2133 165.88 85.92C165.88 87.7067 166.16 89.24 166.72 90.52C167.28 91.7733 168.053 92.7333 169.04 93.4C170.053 94.0667 171.213 94.4 172.52 94.4C173.533 94.4 174.44 94.1867 175.24 93.76C176.04 93.3333 176.747 92.8267 177.36 92.24L180.32 95.72C179.2 96.9733 177.96 97.92 176.6 98.56C175.24 99.1733 173.747 99.48 172.12 99.48ZM189.451 99.48C187.291 99.48 185.717 98.7733 184.731 97.36C183.771 95.92 183.291 93.96 183.291 91.48V79.16H189.171V90.72C189.171 92.16 189.371 93.1467 189.771 93.68C190.171 94.2133 190.797 94.48 191.651 94.48C192.371 94.48 192.997 94.3067 193.531 93.96C194.064 93.6133 194.611 93.0533 195.171 92.28V79.16H201.051V99H196.251L195.811 96.24H195.691C194.864 97.2267 193.957 98.0133 192.971 98.6C191.984 99.1867 190.811 99.48 189.451 99.48ZM212.065 99.48C210.758 99.48 209.412 99.2267 208.025 98.72C206.638 98.2133 205.452 97.48 204.465 96.52L206.945 93.2C207.852 93.92 208.745 94.4267 209.625 94.72C210.532 94.9867 211.398 95.12 212.225 95.12C213.105 95.12 213.745 94.9733 214.145 94.68C214.545 94.36 214.745 93.9467 214.745 93.44C214.745 92.9867 214.558 92.6133 214.185 92.32C213.838 92.0267 213.372 91.7733 212.785 91.56C212.225 91.32 211.585 91.0667 210.865 90.8C209.905 90.4533 209.025 90.0133 208.225 89.48C207.425 88.9467 206.772 88.3067 206.265 87.56C205.785 86.8133 205.545 85.92 205.545 84.88C205.545 83.0133 206.238 81.52 207.625 80.4C209.038 79.2533 210.878 78.68 213.145 78.68C214.585 78.68 215.892 78.92 217.065 79.4C218.265 79.8533 219.292 80.4533 220.145 81.2L217.625 84.48C216.905 83.9733 216.185 83.6133 215.465 83.4C214.745 83.16 214.038 83.04 213.345 83.04C212.572 83.04 211.998 83.1867 211.625 83.48C211.252 83.7733 211.065 84.1467 211.065 84.6C211.065 84.9733 211.198 85.2933 211.465 85.56C211.732 85.8267 212.132 86.08 212.665 86.32C213.225 86.5333 213.918 86.7733 214.745 87.04C215.758 87.3867 216.678 87.8267 217.505 88.36C218.358 88.8667 219.025 89.5067 219.505 90.28C219.985 91.0533 220.225 91.9867 220.225 93.08C220.225 94.28 219.905 95.36 219.265 96.32C218.652 97.28 217.745 98.0533 216.545 98.64C215.345 99.2 213.852 99.48 212.065 99.48ZM230.818 99.44C228.365 99.44 226.605 98.7333 225.538 97.32C224.471 95.88 223.938 94.0267 223.938 91.76V83.76H221.258V79.4L224.298 79.16L224.978 73.08H229.858V79.16H234.618V83.76H229.858V91.68C229.858 92.8 230.085 93.6133 230.538 94.12C231.018 94.6 231.645 94.84 232.418 94.84C232.738 94.84 233.058 94.8133 233.378 94.76C233.698 94.7067 234.005 94.6267 234.298 94.52L235.258 98.64C234.751 98.8533 234.111 99.04 233.338 99.2C232.591 99.36 231.751 99.44 230.818 99.44ZM246.308 99.48C244.628 99.48 243.054 99.08 241.588 98.28C240.121 97.4533 238.921 96.2667 237.988 94.72C237.081 93.1467 236.628 91.2667 236.628 89.08C236.628 86.8933 237.081 85.0267 237.988 83.48C238.921 81.9067 240.121 80.72 241.588 79.92C243.054 79.0933 244.628 78.68 246.308 78.68C247.961 78.68 249.521 79.0933 250.988 79.92C252.454 80.72 253.641 81.9067 254.548 83.48C255.481 85.0267 255.948 86.8933 255.948 89.08C255.948 91.2667 255.481 93.1467 254.548 94.72C253.641 96.2667 252.454 97.4533 250.988 98.28C249.521 99.08 247.961 99.48 246.308 99.48ZM246.308 94.72C247.108 94.72 247.774 94.4933 248.308 94.04C248.868 93.5867 249.281 92.9333 249.548 92.08C249.814 91.2267 249.948 90.2267 249.948 89.08C249.948 87.9333 249.814 86.9333 249.548 86.08C249.281 85.2267 248.868 84.5733 248.308 84.12C247.774 83.6667 247.108 83.44 246.308 83.44C245.481 83.44 244.801 83.6667 244.268 84.12C243.734 84.5733 243.334 85.2267 243.068 86.08C242.801 86.9333 242.668 87.9333 242.668 89.08C242.668 90.2267 242.801 91.2267 243.068 92.08C243.334 92.9333 243.734 93.5867 244.268 94.04C244.801 94.4933 245.481 94.72 246.308 94.72ZM259.975 99V79.16H264.775L265.175 81.72H265.335C266.135 80.8933 267.002 80.1867 267.935 79.6C268.895 78.9867 270.028 78.68 271.335 78.68C272.748 78.68 273.895 78.9733 274.775 79.56C275.655 80.12 276.335 80.9333 276.815 82C277.695 81.0933 278.628 80.32 279.615 79.68C280.602 79.0133 281.748 78.68 283.055 78.68C285.215 78.68 286.788 79.4 287.775 80.84C288.762 82.2533 289.255 84.2 289.255 86.68V99H283.375V87.44C283.375 86 283.175 85.0133 282.775 84.48C282.402 83.9467 281.788 83.68 280.935 83.68C280.428 83.68 279.895 83.84 279.335 84.16C278.775 84.4533 278.175 84.9333 277.535 85.6V99H271.655V87.44C271.655 86 271.455 85.0133 271.055 84.48C270.682 83.9467 270.068 83.68 269.215 83.68C268.202 83.68 267.082 84.32 265.855 85.6V99H259.975ZM302.76 99V72.92H312.16C314 72.92 315.68 73.1733 317.2 73.68C318.72 74.16 319.933 75 320.84 76.2C321.746 77.3733 322.2 78.9867 322.2 81.04C322.2 83.04 321.746 84.6667 320.84 85.92C319.933 87.1733 318.72 88.1067 317.2 88.72C315.68 89.3067 314 89.6 312.16 89.6H308.64V99H302.76ZM308.64 84.92H311.68C313.226 84.92 314.4 84.6 315.2 83.96C316.026 83.2933 316.44 82.32 316.44 81.04C316.44 79.76 316.026 78.8667 315.2 78.36C314.4 77.8533 313.226 77.6 311.68 77.6H308.64V84.92ZM316.88 99L311.08 88.08L315.16 84.28L323.48 99H316.88ZM337.891 99.48C335.544 99.48 333.478 98.9333 331.691 97.84C329.931 96.7467 328.544 95.1867 327.531 93.16C326.544 91.1333 326.051 88.6933 326.051 85.84C326.051 83.0133 326.544 80.6 327.531 78.6C328.544 76.6 329.931 75.08 331.691 74.04C333.478 72.9733 335.544 72.44 337.891 72.44C340.238 72.44 342.304 72.9733 344.091 74.04C345.878 75.08 347.264 76.6 348.251 78.6C349.238 80.6 349.731 83.0133 349.731 85.84C349.731 88.6933 349.238 91.1333 348.251 93.16C347.264 95.1867 345.878 96.7467 344.091 97.84C342.304 98.9333 340.238 99.48 337.891 99.48ZM337.891 94.4C339.091 94.4 340.118 94.0533 340.971 93.36C341.851 92.64 342.518 91.64 342.971 90.36C343.451 89.08 343.691 87.5733 343.691 85.84C343.691 84.1067 343.451 82.6267 342.971 81.4C342.518 80.1467 341.851 79.2 340.971 78.56C340.118 77.8933 339.091 77.56 337.891 77.56C336.718 77.56 335.691 77.8933 334.811 78.56C333.931 79.2 333.251 80.1467 332.771 81.4C332.318 82.6267 332.091 84.1067 332.091 85.84C332.091 87.5733 332.318 89.08 332.771 90.36C333.251 91.64 333.931 92.64 334.811 93.36C335.691 94.0533 336.718 94.4 337.891 94.4ZM354.635 99V72.92H361.195L365.355 84.52C365.621 85.2933 365.861 86.08 366.075 86.88C366.315 87.6533 366.555 88.4667 366.795 89.32H366.955C367.195 88.4667 367.421 87.6533 367.635 86.88C367.848 86.08 368.088 85.2933 368.355 84.52L372.435 72.92H378.995V99H373.595V89.44C373.595 88.5867 373.635 87.5867 373.715 86.44C373.821 85.2667 373.928 84.1067 374.035 82.96C374.168 81.7867 374.288 80.7733 374.395 79.92H374.235L372.115 86.8L368.435 96.76H364.995L361.355 86.8L359.315 79.92H359.155C359.261 80.7733 359.368 81.7867 359.475 82.96C359.608 84.1067 359.715 85.2667 359.795 86.44C359.875 87.5867 359.915 88.5867 359.915 89.44V99H354.635ZM390.463 99.48C389.157 99.48 387.81 99.2267 386.423 98.72C385.037 98.2133 383.85 97.48 382.863 96.52L385.343 93.2C386.25 93.92 387.143 94.4267 388.023 94.72C388.93 94.9867 389.797 95.12 390.623 95.12C391.503 95.12 392.143 94.9733 392.543 94.68C392.943 94.36 393.143 93.9467 393.143 93.44C393.143 92.9867 392.957 92.6133 392.583 92.32C392.237 92.0267 391.77 91.7733 391.183 91.56C390.623 91.32 389.983 91.0667 389.263 90.8C388.303 90.4533 387.423 90.0133 386.623 89.48C385.823 88.9467 385.17 88.3067 384.663 87.56C384.183 86.8133 383.943 85.92 383.943 84.88C383.943 83.0133 384.637 81.52 386.023 80.4C387.437 79.2533 389.277 78.68 391.543 78.68C392.983 78.68 394.29 78.92 395.463 79.4C396.663 79.8533 397.69 80.4533 398.543 81.2L396.023 84.48C395.303 83.9733 394.583 83.6133 393.863 83.4C393.143 83.16 392.437 83.04 391.743 83.04C390.97 83.04 390.397 83.1867 390.023 83.48C389.65 83.7733 389.463 84.1467 389.463 84.6C389.463 84.9733 389.597 85.2933 389.863 85.56C390.13 85.8267 390.53 86.08 391.063 86.32C391.623 86.5333 392.317 86.7733 393.143 87.04C394.157 87.3867 395.077 87.8267 395.903 88.36C396.757 88.8667 397.423 89.5067 397.903 90.28C398.383 91.0533 398.623 91.9867 398.623 93.08C398.623 94.28 398.303 95.36 397.663 96.32C397.05 97.28 396.143 98.0533 394.943 98.64C393.743 99.2 392.25 99.48 390.463 99.48Z" fill="white"/>
</svg>
