<svg width="500" height="174" viewBox="0 0 500 174" fill="none" xmlns="http://www.w3.org/2000/svg">
<rect x="12" y="12" width="476" height="150" rx="32" fill="black" fill-opacity="0.5"/>
<path d="M165.12 77.48C162.88 77.48 160.827 76.9867 158.96 76C157.12 74.9867 155.64 73.48 154.52 71.48C153.4 69.48 152.84 67.0267 152.84 64.12C152.84 61.96 153.16 60.04 153.8 58.36C154.467 56.6533 155.373 55.2133 156.52 54.04C157.667 52.8667 158.973 51.9733 160.44 51.36C161.933 50.7467 163.507 50.44 165.16 50.44C166.84 50.44 168.347 50.7733 169.68 51.44C171.013 52.1067 172.12 52.9067 173 53.84L169.88 57.4C169.24 56.7867 168.547 56.3333 167.8 56.04C167.053 55.72 166.213 55.56 165.28 55.56C164.133 55.56 163.067 55.9067 162.08 56.6C161.12 57.2667 160.347 58.2267 159.76 59.48C159.173 60.7333 158.88 62.2133 158.88 63.92C158.88 65.7067 159.16 67.24 159.72 68.52C160.28 69.7733 161.053 70.7333 162.04 71.4C163.053 72.0667 164.213 72.4 165.52 72.4C166.533 72.4 167.44 72.1867 168.24 71.76C169.04 71.3333 169.747 70.8267 170.36 70.24L173.32 73.72C172.2 74.9733 170.96 75.92 169.6 76.56C168.24 77.1733 166.747 77.48 165.12 77.48ZM182.451 77.48C180.291 77.48 178.717 76.7733 177.731 75.36C176.771 73.92 176.291 71.96 176.291 69.48V57.16H182.171V68.72C182.171 70.16 182.371 71.1467 182.771 71.68C183.171 72.2133 183.797 72.48 184.651 72.48C185.371 72.48 185.997 72.3067 186.531 71.96C187.064 71.6133 187.611 71.0533 188.171 70.28V57.16H194.051V77H189.251L188.811 74.24H188.691C187.864 75.2267 186.957 76.0133 185.971 76.6C184.984 77.1867 183.811 77.48 182.451 77.48ZM205.065 77.48C203.758 77.48 202.412 77.2267 201.025 76.72C199.638 76.2133 198.452 75.48 197.465 74.52L199.945 71.2C200.852 71.92 201.745 72.4267 202.625 72.72C203.532 72.9867 204.398 73.12 205.225 73.12C206.105 73.12 206.745 72.9733 207.145 72.68C207.545 72.36 207.745 71.9467 207.745 71.44C207.745 70.9867 207.558 70.6133 207.185 70.32C206.838 70.0267 206.372 69.7733 205.785 69.56C205.225 69.32 204.585 69.0667 203.865 68.8C202.905 68.4533 202.025 68.0133 201.225 67.48C200.425 66.9467 199.772 66.3067 199.265 65.56C198.785 64.8133 198.545 63.92 198.545 62.88C198.545 61.0133 199.238 59.52 200.625 58.4C202.038 57.2533 203.878 56.68 206.145 56.68C207.585 56.68 208.892 56.92 210.065 57.4C211.265 57.8533 212.292 58.4533 213.145 59.2L210.625 62.48C209.905 61.9733 209.185 61.6133 208.465 61.4C207.745 61.16 207.038 61.04 206.345 61.04C205.572 61.04 204.998 61.1867 204.625 61.48C204.252 61.7733 204.065 62.1467 204.065 62.6C204.065 62.9733 204.198 63.2933 204.465 63.56C204.732 63.8267 205.132 64.08 205.665 64.32C206.225 64.5333 206.918 64.7733 207.745 65.04C208.758 65.3867 209.678 65.8267 210.505 66.36C211.358 66.8667 212.025 67.5067 212.505 68.28C212.985 69.0533 213.225 69.9867 213.225 71.08C213.225 72.28 212.905 73.36 212.265 74.32C211.652 75.28 210.745 76.0533 209.545 76.64C208.345 77.2 206.852 77.48 205.065 77.48ZM223.818 77.44C221.365 77.44 219.605 76.7333 218.538 75.32C217.471 73.88 216.938 72.0267 216.938 69.76V61.76H214.258V57.4L217.298 57.16L217.978 51.08H222.858V57.16H227.618V61.76H222.858V69.68C222.858 70.8 223.085 71.6133 223.538 72.12C224.018 72.6 224.645 72.84 225.418 72.84C225.738 72.84 226.058 72.8133 226.378 72.76C226.698 72.7067 227.005 72.6267 227.298 72.52L228.258 76.64C227.751 76.8533 227.111 77.04 226.338 77.2C225.591 77.36 224.751 77.44 223.818 77.44ZM239.308 77.48C237.628 77.48 236.054 77.08 234.588 76.28C233.121 75.4533 231.921 74.2667 230.988 72.72C230.081 71.1467 229.628 69.2667 229.628 67.08C229.628 64.8933 230.081 63.0267 230.988 61.48C231.921 59.9067 233.121 58.72 234.588 57.92C236.054 57.0933 237.628 56.68 239.308 56.68C240.961 56.68 242.521 57.0933 243.988 57.92C245.454 58.72 246.641 59.9067 247.548 61.48C248.481 63.0267 248.948 64.8933 248.948 67.08C248.948 69.2667 248.481 71.1467 247.548 72.72C246.641 74.2667 245.454 75.4533 243.988 76.28C242.521 77.08 240.961 77.48 239.308 77.48ZM239.308 72.72C240.108 72.72 240.774 72.4933 241.308 72.04C241.868 71.5867 242.281 70.9333 242.548 70.08C242.814 69.2267 242.948 68.2267 242.948 67.08C242.948 65.9333 242.814 64.9333 242.548 64.08C242.281 63.2267 241.868 62.5733 241.308 62.12C240.774 61.6667 240.108 61.44 239.308 61.44C238.481 61.44 237.801 61.6667 237.268 62.12C236.734 62.5733 236.334 63.2267 236.068 64.08C235.801 64.9333 235.668 65.9333 235.668 67.08C235.668 68.2267 235.801 69.2267 236.068 70.08C236.334 70.9333 236.734 71.5867 237.268 72.04C237.801 72.4933 238.481 72.72 239.308 72.72ZM252.975 77V57.16H257.775L258.175 59.72H258.335C259.135 58.8933 260.002 58.1867 260.935 57.6C261.895 56.9867 263.028 56.68 264.335 56.68C265.748 56.68 266.895 56.9733 267.775 57.56C268.655 58.12 269.335 58.9333 269.815 60C270.695 59.0933 271.628 58.32 272.615 57.68C273.602 57.0133 274.748 56.68 276.055 56.68C278.215 56.68 279.788 57.4 280.775 58.84C281.762 60.2533 282.255 62.2 282.255 64.68V77H276.375V65.44C276.375 64 276.175 63.0133 275.775 62.48C275.402 61.9467 274.788 61.68 273.935 61.68C273.428 61.68 272.895 61.84 272.335 62.16C271.775 62.4533 271.175 62.9333 270.535 63.6V77H264.655V65.44C264.655 64 264.455 63.0133 264.055 62.48C263.682 61.9467 263.068 61.68 262.215 61.68C261.202 61.68 260.082 62.32 258.855 63.6V77H252.975ZM154.08 119V92.92H163.48C165.32 92.92 167 93.1733 168.52 93.68C170.04 94.16 171.253 95 172.16 96.2C173.067 97.3733 173.52 98.9867 173.52 101.04C173.52 103.04 173.067 104.667 172.16 105.92C171.253 107.173 170.04 108.107 168.52 108.72C167 109.307 165.32 109.6 163.48 109.6H159.96V119H154.08ZM159.96 104.92H163C164.547 104.92 165.72 104.6 166.52 103.96C167.347 103.293 167.76 102.32 167.76 101.04C167.76 99.76 167.347 98.8667 166.52 98.36C165.72 97.8533 164.547 97.6 163 97.6H159.96V104.92ZM168.2 119L162.4 108.08L166.48 104.28L174.8 119H168.2ZM186.621 119.48C184.727 119.48 183.021 119.067 181.501 118.24C179.981 117.413 178.781 116.227 177.901 114.68C177.021 113.133 176.581 111.267 176.581 109.08C176.581 106.92 177.021 105.067 177.901 103.52C178.807 101.973 179.981 100.787 181.421 99.96C182.861 99.1067 184.367 98.68 185.941 98.68C187.834 98.68 189.407 99.1067 190.661 99.96C191.914 100.787 192.847 101.92 193.461 103.36C194.074 104.8 194.381 106.413 194.381 108.2C194.381 108.707 194.354 109.213 194.301 109.72C194.247 110.2 194.194 110.587 194.141 110.88H181.141L181.061 106.8H189.341C189.341 105.76 189.087 104.907 188.581 104.24C188.074 103.547 187.234 103.2 186.061 103.2C185.421 103.2 184.794 103.373 184.181 103.72C183.567 104.067 183.061 104.667 182.661 105.52C182.261 106.373 182.074 107.56 182.101 109.08C182.127 110.573 182.394 111.747 182.901 112.6C183.434 113.453 184.101 114.067 184.901 114.44C185.701 114.787 186.541 114.96 187.421 114.96C188.194 114.96 188.927 114.853 189.621 114.64C190.341 114.4 191.047 114.08 191.741 113.68L193.661 117.28C192.674 117.973 191.554 118.52 190.301 118.92C189.047 119.293 187.821 119.48 186.621 119.48ZM207.204 119.48C205.337 119.48 203.644 119.067 202.124 118.24C200.63 117.413 199.444 116.227 198.564 114.68C197.71 113.133 197.284 111.267 197.284 109.08C197.284 106.893 197.764 105.027 198.724 103.48C199.684 101.933 200.95 100.747 202.524 99.92C204.097 99.0933 205.79 98.68 207.604 98.68C208.83 98.68 209.924 98.88 210.884 99.28C211.87 99.6533 212.71 100.16 213.404 100.8L210.644 104.44C210.297 104.147 209.897 103.907 209.444 103.72C209.017 103.533 208.524 103.44 207.964 103.44C207.03 103.44 206.217 103.667 205.524 104.12C204.83 104.573 204.284 105.227 203.884 106.08C203.484 106.933 203.284 107.933 203.284 109.08C203.284 110.227 203.484 111.227 203.884 112.08C204.284 112.933 204.817 113.587 205.484 114.04C206.177 114.493 206.95 114.72 207.804 114.72C208.47 114.72 209.097 114.6 209.684 114.36C210.27 114.12 210.817 113.813 211.324 113.44L213.644 117.04C212.817 117.787 211.844 118.387 210.724 118.84C209.604 119.267 208.43 119.48 207.204 119.48ZM224.581 119.48C222.901 119.48 221.328 119.08 219.861 118.28C218.394 117.453 217.194 116.267 216.261 114.72C215.354 113.147 214.901 111.267 214.901 109.08C214.901 106.893 215.354 105.027 216.261 103.48C217.194 101.907 218.394 100.72 219.861 99.92C221.328 99.0933 222.901 98.68 224.581 98.68C226.234 98.68 227.794 99.0933 229.261 99.92C230.728 100.72 231.914 101.907 232.821 103.48C233.754 105.027 234.221 106.893 234.221 109.08C234.221 111.267 233.754 113.147 232.821 114.72C231.914 116.267 230.728 117.453 229.261 118.28C227.794 119.08 226.234 119.48 224.581 119.48ZM224.581 114.72C225.381 114.72 226.048 114.493 226.581 114.04C227.141 113.587 227.554 112.933 227.821 112.08C228.088 111.227 228.221 110.227 228.221 109.08C228.221 107.933 228.088 106.933 227.821 106.08C227.554 105.227 227.141 104.573 226.581 104.12C226.048 103.667 225.381 103.44 224.581 103.44C223.754 103.44 223.074 103.667 222.541 104.12C222.008 104.573 221.608 105.227 221.341 106.08C221.074 106.933 220.941 107.933 220.941 109.08C220.941 110.227 221.074 111.227 221.341 112.08C221.608 112.933 222.008 113.587 222.541 114.04C223.074 114.493 223.754 114.72 224.581 114.72ZM242.496 119L235.816 99.16H241.736L244.296 108.52C244.563 109.507 244.816 110.507 245.056 111.52C245.323 112.533 245.589 113.573 245.856 114.64H246.016C246.256 113.573 246.509 112.533 246.776 111.52C247.043 110.507 247.296 109.507 247.536 108.52L250.136 99.16H255.776L249.296 119H242.496ZM267.441 119.48C265.548 119.48 263.841 119.067 262.321 118.24C260.801 117.413 259.601 116.227 258.721 114.68C257.841 113.133 257.401 111.267 257.401 109.08C257.401 106.92 257.841 105.067 258.721 103.52C259.628 101.973 260.801 100.787 262.241 99.96C263.681 99.1067 265.188 98.68 266.761 98.68C268.654 98.68 270.228 99.1067 271.481 99.96C272.734 100.787 273.668 101.92 274.281 103.36C274.894 104.8 275.201 106.413 275.201 108.2C275.201 108.707 275.174 109.213 275.121 109.72C275.068 110.2 275.014 110.587 274.961 110.88H261.961L261.881 106.8H270.161C270.161 105.76 269.908 104.907 269.401 104.24C268.894 103.547 268.054 103.2 266.881 103.2C266.241 103.2 265.614 103.373 265.001 103.72C264.388 104.067 263.881 104.667 263.481 105.52C263.081 106.373 262.894 107.56 262.921 109.08C262.948 110.573 263.214 111.747 263.721 112.6C264.254 113.453 264.921 114.067 265.721 114.44C266.521 114.787 267.361 114.96 268.241 114.96C269.014 114.96 269.748 114.853 270.441 114.64C271.161 114.4 271.868 114.08 272.561 113.68L274.481 117.28C273.494 117.973 272.374 118.52 271.121 118.92C269.868 119.293 268.641 119.48 267.441 119.48ZM279.264 119V99.16H284.064L284.464 102.64H284.624C285.344 101.307 286.197 100.32 287.184 99.68C288.197 99.0133 289.224 98.68 290.264 98.68C290.824 98.68 291.291 98.72 291.664 98.8C292.037 98.8533 292.357 98.9467 292.624 99.08L291.504 104.08C291.184 104 290.877 103.947 290.584 103.92C290.291 103.867 289.931 103.84 289.504 103.84C288.757 103.84 287.971 104.107 287.144 104.64C286.344 105.173 285.677 106.12 285.144 107.48V119H279.264ZM295.202 119V99.16H301.082V119H295.202ZM298.122 96.24C297.135 96.24 296.335 95.96 295.722 95.4C295.108 94.84 294.802 94.0933 294.802 93.16C294.802 92.2267 295.108 91.48 295.722 90.92C296.335 90.36 297.135 90.08 298.122 90.08C299.108 90.08 299.908 90.36 300.522 90.92C301.135 91.48 301.442 92.2267 301.442 93.16C301.442 94.0933 301.135 94.84 300.522 95.4C299.908 95.96 299.108 96.24 298.122 96.24ZM315.136 119.48C313.243 119.48 311.536 119.067 310.016 118.24C308.496 117.413 307.296 116.227 306.416 114.68C305.536 113.133 305.096 111.267 305.096 109.08C305.096 106.92 305.536 105.067 306.416 103.52C307.323 101.973 308.496 100.787 309.936 99.96C311.376 99.1067 312.883 98.68 314.456 98.68C316.35 98.68 317.923 99.1067 319.176 99.96C320.43 100.787 321.363 101.92 321.976 103.36C322.59 104.8 322.896 106.413 322.896 108.2C322.896 108.707 322.87 109.213 322.816 109.72C322.763 110.2 322.71 110.587 322.656 110.88H309.656L309.576 106.8H317.856C317.856 105.76 317.603 104.907 317.096 104.24C316.59 103.547 315.75 103.2 314.576 103.2C313.936 103.2 313.31 103.373 312.696 103.72C312.083 104.067 311.576 104.667 311.176 105.52C310.776 106.373 310.59 107.56 310.616 109.08C310.643 110.573 310.91 111.747 311.416 112.6C311.95 113.453 312.616 114.067 313.416 114.44C314.216 114.787 315.056 114.96 315.936 114.96C316.71 114.96 317.443 114.853 318.136 114.64C318.856 114.4 319.563 114.08 320.256 113.68L322.176 117.28C321.19 117.973 320.07 118.52 318.816 118.92C317.563 119.293 316.336 119.48 315.136 119.48ZM332.799 119.48C331.493 119.48 330.146 119.227 328.759 118.72C327.373 118.213 326.186 117.48 325.199 116.52L327.679 113.2C328.586 113.92 329.479 114.427 330.359 114.72C331.266 114.987 332.133 115.12 332.959 115.12C333.839 115.12 334.479 114.973 334.879 114.68C335.279 114.36 335.479 113.947 335.479 113.44C335.479 112.987 335.293 112.613 334.919 112.32C334.573 112.027 334.106 111.773 333.519 111.56C332.959 111.32 332.319 111.067 331.599 110.8C330.639 110.453 329.759 110.013 328.959 109.48C328.159 108.947 327.506 108.307 326.999 107.56C326.519 106.813 326.279 105.92 326.279 104.88C326.279 103.013 326.973 101.52 328.359 100.4C329.773 99.2533 331.613 98.68 333.879 98.68C335.319 98.68 336.626 98.92 337.799 99.4C338.999 99.8533 340.026 100.453 340.879 101.2L338.359 104.48C337.639 103.973 336.919 103.613 336.199 103.4C335.479 103.16 334.773 103.04 334.079 103.04C333.306 103.04 332.733 103.187 332.359 103.48C331.986 103.773 331.799 104.147 331.799 104.6C331.799 104.973 331.933 105.293 332.199 105.56C332.466 105.827 332.866 106.08 333.399 106.32C333.959 106.533 334.653 106.773 335.479 107.04C336.493 107.387 337.413 107.827 338.239 108.36C339.093 108.867 339.759 109.507 340.239 110.28C340.719 111.053 340.959 111.987 340.959 113.08C340.959 114.28 340.639 115.36 339.999 116.32C339.386 117.28 338.479 118.053 337.279 118.64C336.079 119.2 334.586 119.48 332.799 119.48Z" fill="white"/>
<path fill-rule="evenodd" clip-rule="evenodd" d="M71 47H111C115.418 47 119 50.5817 119 55V119C119 123.418 115.418 127 111 127H71C66.5817 127 63 123.418 63 119V55C63 50.5817 66.5817 47 71 47ZM73.8571 51H108.143C111.93 51 115 54.2235 115 58.2V115.8C115 119.776 111.93 123 108.143 123H73.8571C70.07 123 67 119.776 67 115.8V58.2C67 54.2235 70.07 51 73.8571 51Z" fill="#D9D9D9"/>
<rect x="87" y="107" width="8" height="8" rx="4" fill="#D9D9D9"/>
<path d="M95.05 71.45C94.7752 71.7304 94.6212 72.1074 94.6212 72.5C94.6212 72.8926 94.7752 73.2696 95.05 73.55L97.45 75.95C97.7304 76.2248 98.1074 76.3788 98.5 76.3788C98.8926 76.3788 99.2696 76.2248 99.55 75.95L105.205 70.295C105.959 71.9618 106.188 73.8189 105.86 75.6187C105.532 77.4186 104.663 79.0758 103.369 80.3694C102.076 81.6631 100.419 82.5317 98.6187 82.8597C96.8188 83.1876 94.9618 82.9593 93.295 82.205L82.93 92.57C82.3333 93.1667 81.5239 93.502 80.68 93.502C79.8361 93.502 79.0267 93.1667 78.43 92.57C77.8333 91.9733 77.498 91.1639 77.498 90.32C77.498 89.4761 77.8333 88.6667 78.43 88.07L88.795 77.705C88.0407 76.0382 87.8124 74.1811 88.1403 72.3813C88.4682 70.5814 89.3369 68.9242 90.6306 67.6306C91.9242 66.3369 93.5814 65.4683 95.3813 65.1403C97.1811 64.8124 99.0382 65.0407 100.705 65.795L95.065 71.435L95.05 71.45Z" stroke="#CBCBCB" stroke-width="3" stroke-linecap="round" stroke-linejoin="round"/>
</svg>
