<svg width="500" height="174" viewBox="0 0 500 174" fill="none" xmlns="http://www.w3.org/2000/svg">
<rect x="12" y="12" width="476" height="150" rx="32" fill="black" fill-opacity="0.5"/>
<path d="M161.08 78V51.92H168.44C171.107 51.92 173.413 52.3733 175.36 53.28C177.333 54.1867 178.853 55.6 179.92 57.52C180.987 59.4133 181.52 61.8533 181.52 64.84C181.52 67.8267 180.987 70.2933 179.92 72.24C178.853 74.1867 177.36 75.64 175.44 76.6C173.547 77.5333 171.333 78 168.8 78H161.08ZM166.96 73.24H168.08C169.573 73.24 170.867 72.9733 171.96 72.44C173.08 71.9067 173.947 71.0267 174.56 69.8C175.173 68.5733 175.48 66.92 175.48 64.84C175.48 62.76 175.173 61.1333 174.56 59.96C173.947 58.76 173.08 57.92 171.96 57.44C170.867 56.9333 169.573 56.68 168.08 56.68H166.96V73.24ZM194.511 78.48C192.831 78.48 191.257 78.08 189.791 77.28C188.324 76.4533 187.124 75.2667 186.191 73.72C185.284 72.1467 184.831 70.2667 184.831 68.08C184.831 65.8933 185.284 64.0267 186.191 62.48C187.124 60.9067 188.324 59.72 189.791 58.92C191.257 58.0933 192.831 57.68 194.511 57.68C196.164 57.68 197.724 58.0933 199.191 58.92C200.657 59.72 201.844 60.9067 202.751 62.48C203.684 64.0267 204.151 65.8933 204.151 68.08C204.151 70.2667 203.684 72.1467 202.751 73.72C201.844 75.2667 200.657 76.4533 199.191 77.28C197.724 78.08 196.164 78.48 194.511 78.48ZM194.511 73.72C195.311 73.72 195.977 73.4933 196.511 73.04C197.071 72.5867 197.484 71.9333 197.751 71.08C198.017 70.2267 198.151 69.2267 198.151 68.08C198.151 66.9333 198.017 65.9333 197.751 65.08C197.484 64.2267 197.071 63.5733 196.511 63.12C195.977 62.6667 195.311 62.44 194.511 62.44C193.684 62.44 193.004 62.6667 192.471 63.12C191.937 63.5733 191.537 64.2267 191.271 65.08C191.004 65.9333 190.871 66.9333 190.871 68.08C190.871 69.2267 191.004 70.2267 191.271 71.08C191.537 71.9333 191.937 72.5867 192.471 73.04C193.004 73.4933 193.684 73.72 194.511 73.72ZM211.186 78L206.226 58.16H212.106L213.986 67.36C214.172 68.2933 214.332 69.2533 214.466 70.24C214.599 71.2 214.732 72.2267 214.866 73.32H215.026C215.212 72.2267 215.386 71.1867 215.546 70.2C215.732 69.2133 215.932 68.2667 216.146 67.36L218.226 58.16H223.586L225.786 67.36C225.999 68.2933 226.199 69.2533 226.386 70.24C226.572 71.2 226.759 72.2267 226.946 73.32H227.106C227.292 72.2267 227.439 71.2 227.546 70.24C227.679 69.2533 227.826 68.2933 227.986 67.36L229.866 58.16H235.346L230.586 78H223.506L221.826 70.08C221.666 69.1733 221.492 68.2667 221.306 67.36C221.146 66.4267 220.986 65.36 220.826 64.16H220.666C220.559 65.36 220.426 66.4267 220.266 67.36C220.106 68.2667 219.932 69.1733 219.746 70.08L218.106 78H211.186ZM238.92 78V58.16H243.72L244.12 60.68H244.28C245.107 59.8533 246.04 59.1467 247.08 58.56C248.12 57.9733 249.307 57.68 250.64 57.68C252.827 57.68 254.4 58.4 255.36 59.84C256.32 61.2533 256.8 63.2 256.8 65.68V78H250.92V66.44C250.92 65 250.72 64.0133 250.32 63.48C249.947 62.9467 249.334 62.68 248.48 62.68C247.734 62.68 247.094 62.8533 246.56 63.2C246.027 63.52 245.44 63.9867 244.8 64.6V78H238.92ZM267.211 78.44C265.878 78.44 264.811 78.1733 264.011 77.64C263.238 77.08 262.678 76.3067 262.331 75.32C261.984 74.3067 261.811 73.1333 261.811 71.8V50H267.691V72.04C267.691 72.68 267.798 73.12 268.011 73.36C268.251 73.5733 268.504 73.68 268.771 73.68C268.878 73.68 268.971 73.68 269.051 73.68C269.158 73.6533 269.291 73.6267 269.451 73.6L270.171 77.96C269.851 78.0933 269.438 78.2 268.931 78.28C268.451 78.3867 267.878 78.44 267.211 78.44ZM281.776 78.48C280.096 78.48 278.523 78.08 277.056 77.28C275.59 76.4533 274.39 75.2667 273.456 73.72C272.55 72.1467 272.096 70.2667 272.096 68.08C272.096 65.8933 272.55 64.0267 273.456 62.48C274.39 60.9067 275.59 59.72 277.056 58.92C278.523 58.0933 280.096 57.68 281.776 57.68C283.43 57.68 284.99 58.0933 286.456 58.92C287.923 59.72 289.11 60.9067 290.016 62.48C290.95 64.0267 291.416 65.8933 291.416 68.08C291.416 70.2667 290.95 72.1467 290.016 73.72C289.11 75.2667 287.923 76.4533 286.456 77.28C284.99 78.08 283.43 78.48 281.776 78.48ZM281.776 73.72C282.576 73.72 283.243 73.4933 283.776 73.04C284.336 72.5867 284.75 71.9333 285.016 71.08C285.283 70.2267 285.416 69.2267 285.416 68.08C285.416 66.9333 285.283 65.9333 285.016 65.08C284.75 64.2267 284.336 63.5733 283.776 63.12C283.243 62.6667 282.576 62.44 281.776 62.44C280.95 62.44 280.27 62.6667 279.736 63.12C279.203 63.5733 278.803 64.2267 278.536 65.08C278.27 65.9333 278.136 66.9333 278.136 68.08C278.136 69.2267 278.27 70.2267 278.536 71.08C278.803 71.9333 279.203 72.5867 279.736 73.04C280.27 73.4933 280.95 73.72 281.776 73.72ZM300.014 78.48C298.814 78.48 297.761 78.2133 296.854 77.68C295.974 77.1467 295.294 76.4267 294.814 75.52C294.334 74.6133 294.094 73.6 294.094 72.48C294.094 70.3467 294.974 68.7067 296.734 67.56C298.494 66.3867 301.334 65.6 305.254 65.2C305.227 64.6133 305.094 64.12 304.854 63.72C304.641 63.2933 304.307 62.9733 303.854 62.76C303.401 62.52 302.827 62.4 302.134 62.4C301.307 62.4 300.467 62.5467 299.614 62.84C298.761 63.1333 297.841 63.56 296.854 64.12L294.774 60.28C295.627 59.7467 296.507 59.2933 297.414 58.92C298.321 58.52 299.254 58.2133 300.214 58C301.201 57.7867 302.214 57.68 303.254 57.68C304.961 57.68 306.387 58.0133 307.534 58.68C308.707 59.32 309.601 60.3067 310.214 61.64C310.827 62.9467 311.134 64.6267 311.134 66.68V78H306.334L305.934 75.96H305.774C304.921 76.7067 304.027 77.32 303.094 77.8C302.161 78.2533 301.134 78.48 300.014 78.48ZM301.974 73.88C302.641 73.88 303.227 73.7333 303.734 73.44C304.241 73.1467 304.747 72.7467 305.254 72.24V68.88C303.867 69.0667 302.761 69.3067 301.934 69.6C301.134 69.8933 300.561 70.2533 300.214 70.68C299.894 71.08 299.734 71.5333 299.734 72.04C299.734 72.6533 299.934 73.12 300.334 73.44C300.761 73.7333 301.307 73.88 301.974 73.88ZM323.188 78.48C320.734 78.48 318.761 77.56 317.268 75.72C315.801 73.8533 315.068 71.3067 315.068 68.08C315.068 65.92 315.454 64.0667 316.228 62.52C317.028 60.9733 318.054 59.7867 319.308 58.96C320.588 58.1067 321.921 57.68 323.308 57.68C324.401 57.68 325.321 57.8667 326.068 58.24C326.814 58.6133 327.521 59.12 328.188 59.76L327.948 56.72V49.96H333.828V78H329.028L328.628 76.04H328.468C327.774 76.7333 326.961 77.32 326.028 77.8C325.094 78.2533 324.148 78.48 323.188 78.48ZM324.708 73.68C325.348 73.68 325.934 73.5467 326.468 73.28C327.001 73.0133 327.494 72.5467 327.948 71.88V63.76C327.441 63.28 326.908 62.9467 326.348 62.76C325.788 62.5733 325.228 62.48 324.668 62.48C324.028 62.48 323.441 62.68 322.908 63.08C322.374 63.48 321.934 64.0933 321.588 64.92C321.268 65.72 321.108 66.7467 321.108 68C321.108 69.9467 321.428 71.3867 322.068 72.32C322.708 73.2267 323.588 73.68 324.708 73.68ZM348.045 78V57.12C348.045 55.7067 348.272 54.4267 348.725 53.28C349.205 52.1333 349.979 51.2133 351.045 50.52C352.139 49.8267 353.579 49.48 355.365 49.48C356.192 49.48 356.952 49.56 357.645 49.72C358.339 49.88 358.899 50.04 359.325 50.2L358.165 54.4C357.499 54.2133 356.845 54.12 356.205 54.12C355.485 54.12 354.925 54.3467 354.525 54.8C354.125 55.2267 353.925 55.9467 353.925 56.96V78H348.045ZM345.125 62.76V58.4L348.445 58.16H357.485V62.76H345.125ZM360.678 78V58.16H366.558V78H360.678ZM363.598 55.24C362.611 55.24 361.811 54.96 361.198 54.4C360.585 53.84 360.278 53.0933 360.278 52.16C360.278 51.2267 360.585 50.48 361.198 49.92C361.811 49.36 362.611 49.08 363.598 49.08C364.585 49.08 365.385 49.36 365.998 49.92C366.611 50.48 366.918 51.2267 366.918 52.16C366.918 53.0933 366.611 53.84 365.998 54.4C365.385 54.96 364.585 55.24 363.598 55.24ZM377.133 78.44C375.799 78.44 374.733 78.1733 373.933 77.64C373.159 77.08 372.599 76.3067 372.253 75.32C371.906 74.3067 371.733 73.1333 371.733 71.8V50H377.613V72.04C377.613 72.68 377.719 73.12 377.933 73.36C378.173 73.5733 378.426 73.68 378.693 73.68C378.799 73.68 378.893 73.68 378.973 73.68C379.079 73.6533 379.213 73.6267 379.373 73.6L380.093 77.96C379.773 78.0933 379.359 78.2 378.853 78.28C378.373 78.3867 377.799 78.44 377.133 78.44ZM392.058 78.48C390.165 78.48 388.458 78.0667 386.938 77.24C385.418 76.4133 384.218 75.2267 383.338 73.68C382.458 72.1333 382.018 70.2667 382.018 68.08C382.018 65.92 382.458 64.0667 383.338 62.52C384.245 60.9733 385.418 59.7867 386.858 58.96C388.298 58.1067 389.805 57.68 391.378 57.68C393.271 57.68 394.845 58.1067 396.098 58.96C397.351 59.7867 398.285 60.92 398.898 62.36C399.511 63.8 399.818 65.4133 399.818 67.2C399.818 67.7067 399.791 68.2133 399.738 68.72C399.685 69.2 399.631 69.5867 399.578 69.88H386.578L386.498 65.8H394.778C394.778 64.76 394.525 63.9067 394.018 63.24C393.511 62.5467 392.671 62.2 391.498 62.2C390.858 62.2 390.231 62.3733 389.618 62.72C389.005 63.0667 388.498 63.6667 388.098 64.52C387.698 65.3733 387.511 66.56 387.538 68.08C387.565 69.5733 387.831 70.7467 388.338 71.6C388.871 72.4533 389.538 73.0667 390.338 73.44C391.138 73.7867 391.978 73.96 392.858 73.96C393.631 73.96 394.365 73.8533 395.058 73.64C395.778 73.4 396.485 73.08 397.178 72.68L399.098 76.28C398.111 76.9733 396.991 77.52 395.738 77.92C394.485 78.2933 393.258 78.48 392.058 78.48ZM171.52 120.48C169.253 120.48 167.267 119.92 165.56 118.8C163.88 117.68 162.56 116.093 161.6 114.04C160.667 111.987 160.2 109.56 160.2 106.76C160.2 104.68 160.48 102.813 161.04 101.16C161.6 99.48 162.387 98.04 163.4 96.84C164.44 95.64 165.667 94.7333 167.08 94.12C168.52 93.48 170.107 93.16 171.84 93.16C173.627 93.16 175.093 93.5067 176.24 94.2C177.413 94.8667 178.347 95.5733 179.04 96.32L177.96 97.52C177.293 96.7733 176.467 96.1467 175.48 95.64C174.52 95.1067 173.32 94.84 171.88 94.84C169.853 94.84 168.107 95.3333 166.64 96.32C165.2 97.28 164.08 98.6533 163.28 100.44C162.507 102.2 162.12 104.307 162.12 106.76C162.12 109.187 162.493 111.307 163.24 113.12C164.013 114.933 165.107 116.333 166.52 117.32C167.933 118.307 169.64 118.8 171.64 118.8C172.84 118.8 173.96 118.627 175 118.28C176.067 117.933 176.92 117.44 177.56 116.8V108.6H171.24V107.04H179.32V117.48C178.493 118.36 177.413 119.08 176.08 119.64C174.773 120.2 173.253 120.48 171.52 120.48ZM192.899 120.48C191.379 120.48 189.952 120.093 188.619 119.32C187.312 118.52 186.259 117.373 185.459 115.88C184.685 114.36 184.299 112.547 184.299 110.44C184.299 108.307 184.685 106.48 185.459 104.96C186.259 103.44 187.312 102.293 188.619 101.52C189.952 100.72 191.379 100.32 192.899 100.32C194.445 100.32 195.872 100.72 197.179 101.52C198.485 102.293 199.539 103.44 200.339 104.96C201.139 106.48 201.539 108.307 201.539 110.44C201.539 112.547 201.139 114.36 200.339 115.88C199.539 117.373 198.485 118.52 197.179 119.32C195.872 120.093 194.445 120.48 192.899 120.48ZM192.899 118.92C194.205 118.92 195.365 118.573 196.379 117.88C197.419 117.16 198.232 116.16 198.819 114.88C199.405 113.6 199.699 112.12 199.699 110.44C199.699 108.76 199.405 107.28 198.819 106C198.232 104.693 197.419 103.68 196.379 102.96C195.365 102.24 194.205 101.88 192.899 101.88C191.619 101.88 190.472 102.24 189.459 102.96C188.445 103.68 187.632 104.693 187.019 106C186.432 107.28 186.139 108.76 186.139 110.44C186.139 112.12 186.432 113.6 187.019 114.88C187.632 116.16 188.445 117.16 189.459 117.88C190.472 118.573 191.619 118.92 192.899 118.92ZM214.305 120.48C212.785 120.48 211.358 120.093 210.025 119.32C208.718 118.52 207.665 117.373 206.865 115.88C206.092 114.36 205.705 112.547 205.705 110.44C205.705 108.307 206.092 106.48 206.865 104.96C207.665 103.44 208.718 102.293 210.025 101.52C211.358 100.72 212.785 100.32 214.305 100.32C215.852 100.32 217.278 100.72 218.585 101.52C219.892 102.293 220.945 103.44 221.745 104.96C222.545 106.48 222.945 108.307 222.945 110.44C222.945 112.547 222.545 114.36 221.745 115.88C220.945 117.373 219.892 118.52 218.585 119.32C217.278 120.093 215.852 120.48 214.305 120.48ZM214.305 118.92C215.612 118.92 216.772 118.573 217.785 117.88C218.825 117.16 219.638 116.16 220.225 114.88C220.812 113.6 221.105 112.12 221.105 110.44C221.105 108.76 220.812 107.28 220.225 106C219.638 104.693 218.825 103.68 217.785 102.96C216.772 102.24 215.612 101.88 214.305 101.88C213.025 101.88 211.878 102.24 210.865 102.96C209.852 103.68 209.038 104.693 208.425 106C207.838 107.28 207.545 108.76 207.545 110.44C207.545 112.12 207.838 113.6 208.425 114.88C209.038 116.16 209.852 117.16 210.865 117.88C211.878 118.573 213.025 118.92 214.305 118.92ZM234.991 129.24C233.365 129.24 231.965 129.013 230.791 128.56C229.618 128.133 228.711 127.52 228.071 126.72C227.431 125.947 227.111 125.013 227.111 123.92C227.111 123.067 227.365 122.24 227.871 121.44C228.378 120.64 229.071 119.92 229.951 119.28V119.12C229.471 118.827 229.071 118.427 228.751 117.92C228.431 117.413 228.271 116.787 228.271 116.04C228.271 115.187 228.511 114.467 228.991 113.88C229.471 113.267 229.925 112.813 230.351 112.52V112.36C229.765 111.827 229.218 111.107 228.711 110.2C228.205 109.267 227.951 108.227 227.951 107.08C227.951 105.773 228.245 104.613 228.831 103.6C229.445 102.56 230.258 101.76 231.271 101.2C232.311 100.613 233.458 100.32 234.711 100.32C235.245 100.32 235.725 100.373 236.151 100.48C236.605 100.56 236.965 100.667 237.231 100.8H243.751V102.28H239.271V102.44C239.858 102.92 240.351 103.547 240.751 104.32C241.178 105.093 241.391 106.027 241.391 107.12C241.391 108.427 241.085 109.587 240.471 110.6C239.885 111.613 239.085 112.413 238.071 113C237.085 113.587 235.965 113.88 234.711 113.88C234.151 113.88 233.591 113.813 233.031 113.68C232.471 113.52 231.965 113.32 231.511 113.08C231.111 113.4 230.751 113.787 230.431 114.24C230.111 114.667 229.951 115.2 229.951 115.84C229.951 116.533 230.205 117.133 230.711 117.64C231.245 118.12 232.218 118.36 233.631 118.36H237.751C239.911 118.36 241.498 118.72 242.511 119.44C243.551 120.133 244.071 121.24 244.071 122.76C244.071 123.853 243.698 124.893 242.951 125.88C242.205 126.867 241.151 127.667 239.791 128.28C238.431 128.92 236.831 129.24 234.991 129.24ZM234.711 112.48C235.591 112.48 236.405 112.253 237.151 111.8C237.898 111.347 238.498 110.72 238.951 109.92C239.431 109.093 239.671 108.147 239.671 107.08C239.671 105.427 239.178 104.133 238.191 103.2C237.231 102.24 236.071 101.76 234.711 101.76C233.351 101.76 232.178 102.24 231.191 103.2C230.205 104.133 229.711 105.427 229.711 107.08C229.711 108.147 229.938 109.093 230.391 109.92C230.871 110.72 231.485 111.347 232.231 111.8C232.978 112.253 233.805 112.48 234.711 112.48ZM235.191 127.8C236.631 127.8 237.871 127.56 238.911 127.08C239.978 126.627 240.805 126.027 241.391 125.28C241.978 124.533 242.271 123.76 242.271 122.96C242.271 121.893 241.885 121.133 241.111 120.68C240.365 120.253 239.271 120.04 237.831 120.04H233.711C233.525 120.04 233.205 120.013 232.751 119.96C232.298 119.907 231.818 119.827 231.311 119.72C230.431 120.307 229.791 120.947 229.391 121.64C228.991 122.36 228.791 123.067 228.791 123.76C228.791 124.96 229.351 125.933 230.471 126.68C231.591 127.427 233.165 127.8 235.191 127.8ZM250.563 120.32C250.03 120.32 249.59 120.213 249.243 120C248.897 119.787 248.63 119.453 248.443 119C248.283 118.547 248.203 117.973 248.203 117.28V91.24H249.963V117.52C249.963 117.973 250.043 118.293 250.203 118.48C250.39 118.667 250.617 118.76 250.883 118.76C250.963 118.76 251.043 118.76 251.123 118.76C251.23 118.733 251.363 118.707 251.523 118.68L251.843 120.08C251.657 120.16 251.457 120.213 251.243 120.24C251.057 120.293 250.83 120.32 250.563 120.32ZM264.976 120.48C263.322 120.48 261.829 120.08 260.496 119.28C259.162 118.48 258.096 117.333 257.296 115.84C256.496 114.32 256.096 112.52 256.096 110.44C256.096 108.333 256.496 106.533 257.296 105.04C258.096 103.52 259.122 102.36 260.376 101.56C261.656 100.733 263.016 100.32 264.456 100.32C265.976 100.32 267.282 100.667 268.376 101.36C269.496 102.053 270.349 103.067 270.936 104.4C271.522 105.707 271.816 107.307 271.816 109.2C271.816 109.413 271.802 109.653 271.776 109.92C271.776 110.16 271.749 110.413 271.696 110.68H257.176V109.16H270.136C270.136 106.707 269.629 104.88 268.616 103.68C267.602 102.453 266.229 101.84 264.496 101.84C263.429 101.84 262.389 102.147 261.376 102.76C260.362 103.373 259.522 104.32 258.856 105.6C258.216 106.853 257.896 108.44 257.896 110.36C257.896 112.12 258.216 113.653 258.856 114.96C259.496 116.24 260.362 117.227 261.456 117.92C262.549 118.587 263.776 118.92 265.136 118.92C266.176 118.92 267.122 118.787 267.976 118.52C268.856 118.227 269.629 117.84 270.296 117.36L271.016 118.6C270.269 119.107 269.429 119.547 268.496 119.92C267.562 120.293 266.389 120.48 264.976 120.48ZM285.239 120V93.64H291.359C294.053 93.64 296.279 94.1733 298.039 95.24C299.826 96.3067 301.146 97.8267 301.999 99.8C302.879 101.773 303.319 104.08 303.319 106.72C303.319 109.387 302.879 111.72 301.999 113.72C301.146 115.693 299.839 117.24 298.079 118.36C296.319 119.453 294.093 120 291.399 120H285.239ZM287.079 118.44H291.159C293.533 118.44 295.466 117.947 296.959 116.96C298.479 115.947 299.599 114.56 300.319 112.8C301.039 111.04 301.399 109.013 301.399 106.72C301.399 104.427 301.039 102.413 300.319 100.68C299.599 98.9467 298.479 97.6 296.959 96.64C295.466 95.68 293.533 95.2 291.159 95.2H287.079V118.44ZM309.18 120V100.8H310.7L310.86 104.36H310.98C311.593 103.187 312.353 102.227 313.26 101.48C314.193 100.707 315.247 100.32 316.42 100.32C316.767 100.32 317.087 100.347 317.38 100.4C317.7 100.453 318.02 100.56 318.34 100.72L317.86 102.24C317.593 102.16 317.34 102.107 317.1 102.08C316.887 102.027 316.58 102 316.18 102C315.327 102 314.42 102.373 313.46 103.12C312.527 103.84 311.687 105.107 310.94 106.92V120H309.18ZM321.875 120V100.8H323.635V120H321.875ZM322.715 96.16C322.289 96.16 321.929 96.0133 321.635 95.72C321.342 95.4 321.195 95 321.195 94.52C321.195 94.04 321.342 93.6667 321.635 93.4C321.929 93.1067 322.289 92.96 322.715 92.96C323.169 92.96 323.529 93.1067 323.795 93.4C324.089 93.6667 324.235 94.04 324.235 94.52C324.235 95 324.089 95.4 323.795 95.72C323.529 96.0133 323.169 96.16 322.715 96.16ZM335.016 120L327.816 100.8H329.736L334.056 112.84C334.349 113.747 334.669 114.68 335.016 115.64C335.363 116.573 335.683 117.48 335.976 118.36H336.136C336.456 117.48 336.776 116.573 337.096 115.64C337.443 114.68 337.776 113.747 338.096 112.84L342.416 100.8H344.216L337.096 120H335.016ZM355.601 120.48C353.947 120.48 352.454 120.08 351.121 119.28C349.787 118.48 348.721 117.333 347.921 115.84C347.121 114.32 346.721 112.52 346.721 110.44C346.721 108.333 347.121 106.533 347.921 105.04C348.721 103.52 349.747 102.36 351.001 101.56C352.281 100.733 353.641 100.32 355.081 100.32C356.601 100.32 357.907 100.667 359.001 101.36C360.121 102.053 360.974 103.067 361.561 104.4C362.147 105.707 362.441 107.307 362.441 109.2C362.441 109.413 362.427 109.653 362.401 109.92C362.401 110.16 362.374 110.413 362.321 110.68H347.801V109.16H360.761C360.761 106.707 360.254 104.88 359.241 103.68C358.227 102.453 356.854 101.84 355.121 101.84C354.054 101.84 353.014 102.147 352.001 102.76C350.987 103.373 350.147 104.32 349.481 105.6C348.841 106.853 348.521 108.44 348.521 110.36C348.521 112.12 348.841 113.653 349.481 114.96C350.121 116.24 350.987 117.227 352.081 117.92C353.174 118.587 354.401 118.92 355.761 118.92C356.801 118.92 357.747 118.787 358.601 118.52C359.481 118.227 360.254 117.84 360.921 117.36L361.641 118.6C360.894 119.107 360.054 119.547 359.121 119.92C358.187 120.293 357.014 120.48 355.601 120.48Z" fill="white"/>
<path d="M121.5 97.5V111.5C121.5 113.357 120.763 115.137 119.45 116.45C118.137 117.763 116.357 118.5 114.5 118.5H65.5C63.6435 118.5 61.863 117.763 60.5503 116.45C59.2375 115.137 58.5 113.357 58.5 111.5V97.5" stroke="#CBCBCB" stroke-width="6" stroke-linecap="round" stroke-linejoin="round"/>
<path d="M72.5 80L90 97.5L107.5 80" stroke="#CBCBCB" stroke-width="6" stroke-linecap="round" stroke-linejoin="round"/>
<path d="M90 97.5V55.5" stroke="#CBCBCB" stroke-width="6" stroke-linecap="round" stroke-linejoin="round"/>
</svg>
