<svg width="500" height="174" viewBox="0 0 500 174" fill="none" xmlns="http://www.w3.org/2000/svg">
<rect x="12" y="12" width="476" height="150" rx="32" fill="black" fill-opacity="0.5"/>
<path d="M161.08 78V51.92H168.44C171.107 51.92 173.413 52.3733 175.36 53.28C177.333 54.1867 178.853 55.6 179.92 57.52C180.987 59.4133 181.52 61.8533 181.52 64.84C181.52 67.8267 180.987 70.2933 179.92 72.24C178.853 74.1867 177.36 75.64 175.44 76.6C173.547 77.5333 171.333 78 168.8 78H161.08ZM166.96 73.24H168.08C169.573 73.24 170.867 72.9733 171.96 72.44C173.08 71.9067 173.947 71.0267 174.56 69.8C175.173 68.5733 175.48 66.92 175.48 64.84C175.48 62.76 175.173 61.1333 174.56 59.96C173.947 58.76 173.08 57.92 171.96 57.44C170.867 56.9333 169.573 56.68 168.08 56.68H166.96V73.24ZM194.511 78.48C192.831 78.48 191.257 78.08 189.791 77.28C188.324 76.4533 187.124 75.2667 186.191 73.72C185.284 72.1467 184.831 70.2667 184.831 68.08C184.831 65.8933 185.284 64.0267 186.191 62.48C187.124 60.9067 188.324 59.72 189.791 58.92C191.257 58.0933 192.831 57.68 194.511 57.68C196.164 57.68 197.724 58.0933 199.191 58.92C200.657 59.72 201.844 60.9067 202.751 62.48C203.684 64.0267 204.151 65.8933 204.151 68.08C204.151 70.2667 203.684 72.1467 202.751 73.72C201.844 75.2667 200.657 76.4533 199.191 77.28C197.724 78.08 196.164 78.48 194.511 78.48ZM194.511 73.72C195.311 73.72 195.977 73.4933 196.511 73.04C197.071 72.5867 197.484 71.9333 197.751 71.08C198.017 70.2267 198.151 69.2267 198.151 68.08C198.151 66.9333 198.017 65.9333 197.751 65.08C197.484 64.2267 197.071 63.5733 196.511 63.12C195.977 62.6667 195.311 62.44 194.511 62.44C193.684 62.44 193.004 62.6667 192.471 63.12C191.937 63.5733 191.537 64.2267 191.271 65.08C191.004 65.9333 190.871 66.9333 190.871 68.08C190.871 69.2267 191.004 70.2267 191.271 71.08C191.537 71.9333 191.937 72.5867 192.471 73.04C193.004 73.4933 193.684 73.72 194.511 73.72ZM211.186 78L206.226 58.16H212.106L213.986 67.36C214.172 68.2933 214.332 69.2533 214.466 70.24C214.599 71.2 214.732 72.2267 214.866 73.32H215.026C215.212 72.2267 215.386 71.1867 215.546 70.2C215.732 69.2133 215.932 68.2667 216.146 67.36L218.226 58.16H223.586L225.786 67.36C225.999 68.2933 226.199 69.2533 226.386 70.24C226.572 71.2 226.759 72.2267 226.946 73.32H227.106C227.292 72.2267 227.439 71.2 227.546 70.24C227.679 69.2533 227.826 68.2933 227.986 67.36L229.866 58.16H235.346L230.586 78H223.506L221.826 70.08C221.666 69.1733 221.492 68.2667 221.306 67.36C221.146 66.4267 220.986 65.36 220.826 64.16H220.666C220.559 65.36 220.426 66.4267 220.266 67.36C220.106 68.2667 219.932 69.1733 219.746 70.08L218.106 78H211.186ZM238.92 78V58.16H243.72L244.12 60.68H244.28C245.107 59.8533 246.04 59.1467 247.08 58.56C248.12 57.9733 249.307 57.68 250.64 57.68C252.827 57.68 254.4 58.4 255.36 59.84C256.32 61.2533 256.8 63.2 256.8 65.68V78H250.92V66.44C250.92 65 250.72 64.0133 250.32 63.48C249.947 62.9467 249.334 62.68 248.48 62.68C247.734 62.68 247.094 62.8533 246.56 63.2C246.027 63.52 245.44 63.9867 244.8 64.6V78H238.92ZM267.211 78.44C265.878 78.44 264.811 78.1733 264.011 77.64C263.238 77.08 262.678 76.3067 262.331 75.32C261.984 74.3067 261.811 73.1333 261.811 71.8V50H267.691V72.04C267.691 72.68 267.798 73.12 268.011 73.36C268.251 73.5733 268.504 73.68 268.771 73.68C268.878 73.68 268.971 73.68 269.051 73.68C269.158 73.6533 269.291 73.6267 269.451 73.6L270.171 77.96C269.851 78.0933 269.438 78.2 268.931 78.28C268.451 78.3867 267.878 78.44 267.211 78.44ZM281.776 78.48C280.096 78.48 278.523 78.08 277.056 77.28C275.59 76.4533 274.39 75.2667 273.456 73.72C272.55 72.1467 272.096 70.2667 272.096 68.08C272.096 65.8933 272.55 64.0267 273.456 62.48C274.39 60.9067 275.59 59.72 277.056 58.92C278.523 58.0933 280.096 57.68 281.776 57.68C283.43 57.68 284.99 58.0933 286.456 58.92C287.923 59.72 289.11 60.9067 290.016 62.48C290.95 64.0267 291.416 65.8933 291.416 68.08C291.416 70.2667 290.95 72.1467 290.016 73.72C289.11 75.2667 287.923 76.4533 286.456 77.28C284.99 78.08 283.43 78.48 281.776 78.48ZM281.776 73.72C282.576 73.72 283.243 73.4933 283.776 73.04C284.336 72.5867 284.75 71.9333 285.016 71.08C285.283 70.2267 285.416 69.2267 285.416 68.08C285.416 66.9333 285.283 65.9333 285.016 65.08C284.75 64.2267 284.336 63.5733 283.776 63.12C283.243 62.6667 282.576 62.44 281.776 62.44C280.95 62.44 280.27 62.6667 279.736 63.12C279.203 63.5733 278.803 64.2267 278.536 65.08C278.27 65.9333 278.136 66.9333 278.136 68.08C278.136 69.2267 278.27 70.2267 278.536 71.08C278.803 71.9333 279.203 72.5867 279.736 73.04C280.27 73.4933 280.95 73.72 281.776 73.72ZM300.014 78.48C298.814 78.48 297.761 78.2133 296.854 77.68C295.974 77.1467 295.294 76.4267 294.814 75.52C294.334 74.6133 294.094 73.6 294.094 72.48C294.094 70.3467 294.974 68.7067 296.734 67.56C298.494 66.3867 301.334 65.6 305.254 65.2C305.227 64.6133 305.094 64.12 304.854 63.72C304.641 63.2933 304.307 62.9733 303.854 62.76C303.401 62.52 302.827 62.4 302.134 62.4C301.307 62.4 300.467 62.5467 299.614 62.84C298.761 63.1333 297.841 63.56 296.854 64.12L294.774 60.28C295.627 59.7467 296.507 59.2933 297.414 58.92C298.321 58.52 299.254 58.2133 300.214 58C301.201 57.7867 302.214 57.68 303.254 57.68C304.961 57.68 306.387 58.0133 307.534 58.68C308.707 59.32 309.601 60.3067 310.214 61.64C310.827 62.9467 311.134 64.6267 311.134 66.68V78H306.334L305.934 75.96H305.774C304.921 76.7067 304.027 77.32 303.094 77.8C302.161 78.2533 301.134 78.48 300.014 78.48ZM301.974 73.88C302.641 73.88 303.227 73.7333 303.734 73.44C304.241 73.1467 304.747 72.7467 305.254 72.24V68.88C303.867 69.0667 302.761 69.3067 301.934 69.6C301.134 69.8933 300.561 70.2533 300.214 70.68C299.894 71.08 299.734 71.5333 299.734 72.04C299.734 72.6533 299.934 73.12 300.334 73.44C300.761 73.7333 301.307 73.88 301.974 73.88ZM323.188 78.48C320.734 78.48 318.761 77.56 317.268 75.72C315.801 73.8533 315.068 71.3067 315.068 68.08C315.068 65.92 315.454 64.0667 316.228 62.52C317.028 60.9733 318.054 59.7867 319.308 58.96C320.588 58.1067 321.921 57.68 323.308 57.68C324.401 57.68 325.321 57.8667 326.068 58.24C326.814 58.6133 327.521 59.12 328.188 59.76L327.948 56.72V49.96H333.828V78H329.028L328.628 76.04H328.468C327.774 76.7333 326.961 77.32 326.028 77.8C325.094 78.2533 324.148 78.48 323.188 78.48ZM324.708 73.68C325.348 73.68 325.934 73.5467 326.468 73.28C327.001 73.0133 327.494 72.5467 327.948 71.88V63.76C327.441 63.28 326.908 62.9467 326.348 62.76C325.788 62.5733 325.228 62.48 324.668 62.48C324.028 62.48 323.441 62.68 322.908 63.08C322.374 63.48 321.934 64.0933 321.588 64.92C321.268 65.72 321.108 66.7467 321.108 68C321.108 69.9467 321.428 71.3867 322.068 72.32C322.708 73.2267 323.588 73.68 324.708 73.68ZM348.045 78V57.12C348.045 55.7067 348.272 54.4267 348.725 53.28C349.205 52.1333 349.979 51.2133 351.045 50.52C352.139 49.8267 353.579 49.48 355.365 49.48C356.192 49.48 356.952 49.56 357.645 49.72C358.339 49.88 358.899 50.04 359.325 50.2L358.165 54.4C357.499 54.2133 356.845 54.12 356.205 54.12C355.485 54.12 354.925 54.3467 354.525 54.8C354.125 55.2267 353.925 55.9467 353.925 56.96V78H348.045ZM345.125 62.76V58.4L348.445 58.16H357.485V62.76H345.125ZM360.678 78V58.16H366.558V78H360.678ZM363.598 55.24C362.611 55.24 361.811 54.96 361.198 54.4C360.585 53.84 360.278 53.0933 360.278 52.16C360.278 51.2267 360.585 50.48 361.198 49.92C361.811 49.36 362.611 49.08 363.598 49.08C364.585 49.08 365.385 49.36 365.998 49.92C366.611 50.48 366.918 51.2267 366.918 52.16C366.918 53.0933 366.611 53.84 365.998 54.4C365.385 54.96 364.585 55.24 363.598 55.24ZM377.133 78.44C375.799 78.44 374.733 78.1733 373.933 77.64C373.159 77.08 372.599 76.3067 372.253 75.32C371.906 74.3067 371.733 73.1333 371.733 71.8V50H377.613V72.04C377.613 72.68 377.719 73.12 377.933 73.36C378.173 73.5733 378.426 73.68 378.693 73.68C378.799 73.68 378.893 73.68 378.973 73.68C379.079 73.6533 379.213 73.6267 379.373 73.6L380.093 77.96C379.773 78.0933 379.359 78.2 378.853 78.28C378.373 78.3867 377.799 78.44 377.133 78.44ZM392.058 78.48C390.165 78.48 388.458 78.0667 386.938 77.24C385.418 76.4133 384.218 75.2267 383.338 73.68C382.458 72.1333 382.018 70.2667 382.018 68.08C382.018 65.92 382.458 64.0667 383.338 62.52C384.245 60.9733 385.418 59.7867 386.858 58.96C388.298 58.1067 389.805 57.68 391.378 57.68C393.271 57.68 394.845 58.1067 396.098 58.96C397.351 59.7867 398.285 60.92 398.898 62.36C399.511 63.8 399.818 65.4133 399.818 67.2C399.818 67.7067 399.791 68.2133 399.738 68.72C399.685 69.2 399.631 69.5867 399.578 69.88H386.578L386.498 65.8H394.778C394.778 64.76 394.525 63.9067 394.018 63.24C393.511 62.5467 392.671 62.2 391.498 62.2C390.858 62.2 390.231 62.3733 389.618 62.72C389.005 63.0667 388.498 63.6667 388.098 64.52C387.698 65.3733 387.511 66.56 387.538 68.08C387.565 69.5733 387.831 70.7467 388.338 71.6C388.871 72.4533 389.538 73.0667 390.338 73.44C391.138 73.7867 391.978 73.96 392.858 73.96C393.631 73.96 394.365 73.8533 395.058 73.64C395.778 73.4 396.485 73.08 397.178 72.68L399.098 76.28C398.111 76.9733 396.991 77.52 395.738 77.92C394.485 78.2933 393.258 78.48 392.058 78.48ZM168.76 120.48C166.84 120.48 165.133 120.107 163.64 119.36C162.173 118.613 160.907 117.667 159.84 116.52L161 115.32C161.933 116.387 163.067 117.24 164.4 117.88C165.76 118.493 167.213 118.8 168.76 118.8C170.787 118.8 172.387 118.32 173.56 117.36C174.733 116.373 175.32 115.093 175.32 113.52C175.32 112.427 175.107 111.547 174.68 110.88C174.253 110.213 173.68 109.667 172.96 109.24C172.24 108.813 171.453 108.4 170.6 108L166.6 106.2C165.8 105.853 164.987 105.413 164.16 104.88C163.36 104.347 162.667 103.667 162.08 102.84C161.52 101.987 161.24 100.92 161.24 99.64C161.24 98.36 161.573 97.24 162.24 96.28C162.907 95.2933 163.813 94.5333 164.96 94C166.107 93.44 167.427 93.16 168.92 93.16C170.52 93.16 171.947 93.4667 173.2 94.08C174.453 94.6933 175.467 95.4267 176.24 96.28L175.24 97.48C174.44 96.68 173.507 96.04 172.44 95.56C171.4 95.08 170.227 94.84 168.92 94.84C167.187 94.84 165.773 95.2667 164.68 96.12C163.613 96.9733 163.08 98.12 163.08 99.56C163.08 100.573 163.32 101.4 163.8 102.04C164.307 102.68 164.92 103.2 165.64 103.6C166.36 104 167.027 104.347 167.64 104.64L171.64 106.4C172.653 106.853 173.587 107.373 174.44 107.96C175.293 108.52 175.96 109.227 176.44 110.08C176.947 110.933 177.2 112.04 177.2 113.4C177.2 114.733 176.853 115.947 176.16 117.04C175.493 118.107 174.52 118.947 173.24 119.56C171.987 120.173 170.493 120.48 168.76 120.48ZM189.539 120.48C188.019 120.48 186.593 120.093 185.259 119.32C183.953 118.52 182.899 117.373 182.099 115.88C181.326 114.36 180.939 112.547 180.939 110.44C180.939 108.307 181.326 106.48 182.099 104.96C182.899 103.44 183.953 102.293 185.259 101.52C186.593 100.72 188.019 100.32 189.539 100.32C191.086 100.32 192.513 100.72 193.819 101.52C195.126 102.293 196.179 103.44 196.979 104.96C197.779 106.48 198.179 108.307 198.179 110.44C198.179 112.547 197.779 114.36 196.979 115.88C196.179 117.373 195.126 118.52 193.819 119.32C192.513 120.093 191.086 120.48 189.539 120.48ZM189.539 118.92C190.846 118.92 192.006 118.573 193.019 117.88C194.059 117.16 194.873 116.16 195.459 114.88C196.046 113.6 196.339 112.12 196.339 110.44C196.339 108.76 196.046 107.28 195.459 106C194.873 104.693 194.059 103.68 193.019 102.96C192.006 102.24 190.846 101.88 189.539 101.88C188.259 101.88 187.113 102.24 186.099 102.96C185.086 103.68 184.273 104.693 183.659 106C183.073 107.28 182.779 108.76 182.779 110.44C182.779 112.12 183.073 113.6 183.659 114.88C184.273 116.16 185.086 117.16 186.099 117.88C187.113 118.573 188.259 118.92 189.539 118.92ZM209.466 120.48C207.492 120.48 206.026 119.88 205.066 118.68C204.132 117.453 203.666 115.6 203.666 113.12V100.8H205.426V112.88C205.426 114.907 205.772 116.413 206.466 117.4C207.159 118.387 208.266 118.88 209.786 118.88C210.932 118.88 211.972 118.573 212.906 117.96C213.839 117.32 214.866 116.32 215.986 114.96V100.8H217.746V120H216.266L216.066 116.8H215.986C215.052 117.893 214.066 118.787 213.026 119.48C211.986 120.147 210.799 120.48 209.466 120.48ZM225.118 120V100.8H226.638L226.798 104.36H226.918C227.531 103.187 228.291 102.227 229.198 101.48C230.131 100.707 231.184 100.32 232.358 100.32C232.704 100.32 233.024 100.347 233.318 100.4C233.638 100.453 233.958 100.56 234.278 100.72L233.798 102.24C233.531 102.16 233.278 102.107 233.038 102.08C232.824 102.027 232.518 102 232.118 102C231.264 102 230.358 102.373 229.398 103.12C228.464 103.84 227.624 105.107 226.878 106.92V120H225.118ZM244.542 120.48C242.889 120.48 241.396 120.093 240.062 119.32C238.756 118.52 237.716 117.373 236.942 115.88C236.196 114.36 235.822 112.547 235.822 110.44C235.822 108.307 236.222 106.48 237.022 104.96C237.849 103.44 238.929 102.293 240.262 101.52C241.596 100.72 243.036 100.32 244.582 100.32C245.916 100.32 247.022 100.547 247.902 101C248.782 101.427 249.556 101.987 250.222 102.68L249.262 103.76C248.702 103.173 248.036 102.72 247.262 102.4C246.489 102.053 245.609 101.88 244.622 101.88C243.316 101.88 242.142 102.24 241.102 102.96C240.062 103.68 239.222 104.68 238.582 105.96C237.969 107.24 237.662 108.733 237.662 110.44C237.662 112.12 237.942 113.6 238.502 114.88C239.089 116.16 239.902 117.16 240.942 117.88C241.982 118.573 243.209 118.92 244.622 118.92C245.662 118.92 246.622 118.733 247.502 118.36C248.382 117.96 249.129 117.44 249.742 116.8L250.662 117.88C249.862 118.653 248.956 119.28 247.942 119.76C246.929 120.24 245.796 120.48 244.542 120.48ZM262.007 120.48C260.354 120.48 258.86 120.08 257.527 119.28C256.194 118.48 255.127 117.333 254.327 115.84C253.527 114.32 253.127 112.52 253.127 110.44C253.127 108.333 253.527 106.533 254.327 105.04C255.127 103.52 256.154 102.36 257.407 101.56C258.687 100.733 260.047 100.32 261.487 100.32C263.007 100.32 264.314 100.667 265.407 101.36C266.527 102.053 267.38 103.067 267.967 104.4C268.554 105.707 268.847 107.307 268.847 109.2C268.847 109.413 268.834 109.653 268.807 109.92C268.807 110.16 268.78 110.413 268.727 110.68H254.207V109.16H267.167C267.167 106.707 266.66 104.88 265.647 103.68C264.634 102.453 263.26 101.84 261.527 101.84C260.46 101.84 259.42 102.147 258.407 102.76C257.394 103.373 256.554 104.32 255.887 105.6C255.247 106.853 254.927 108.44 254.927 110.36C254.927 112.12 255.247 113.653 255.887 114.96C256.527 116.24 257.394 117.227 258.487 117.92C259.58 118.587 260.807 118.92 262.167 118.92C263.207 118.92 264.154 118.787 265.007 118.52C265.887 118.227 266.66 117.84 267.327 117.36L268.047 118.6C267.3 119.107 266.46 119.547 265.527 119.92C264.594 120.293 263.42 120.48 262.007 120.48ZM274.263 120V93.64H288.623V95.24H276.103V105.72H286.703V107.32H276.103V120H274.263ZM299.696 120.48C298.176 120.48 296.749 120.093 295.416 119.32C294.109 118.52 293.056 117.373 292.256 115.88C291.482 114.36 291.096 112.547 291.096 110.44C291.096 108.307 291.482 106.48 292.256 104.96C293.056 103.44 294.109 102.293 295.416 101.52C296.749 100.72 298.176 100.32 299.696 100.32C301.242 100.32 302.669 100.72 303.976 101.52C305.282 102.293 306.336 103.44 307.136 104.96C307.936 106.48 308.336 108.307 308.336 110.44C308.336 112.547 307.936 114.36 307.136 115.88C306.336 117.373 305.282 118.52 303.976 119.32C302.669 120.093 301.242 120.48 299.696 120.48ZM299.696 118.92C301.002 118.92 302.162 118.573 303.176 117.88C304.216 117.16 305.029 116.16 305.616 114.88C306.202 113.6 306.496 112.12 306.496 110.44C306.496 108.76 306.202 107.28 305.616 106C305.029 104.693 304.216 103.68 303.176 102.96C302.162 102.24 301.002 101.88 299.696 101.88C298.416 101.88 297.269 102.24 296.256 102.96C295.242 103.68 294.429 104.693 293.816 106C293.229 107.28 292.936 108.76 292.936 110.44C292.936 112.12 293.229 113.6 293.816 114.88C294.429 116.16 295.242 117.16 296.256 117.88C297.269 118.573 298.416 118.92 299.696 118.92ZM314.102 120V100.8H315.622L315.782 104.36H315.902C316.515 103.187 317.275 102.227 318.182 101.48C319.115 100.707 320.169 100.32 321.342 100.32C321.689 100.32 322.009 100.347 322.302 100.4C322.622 100.453 322.942 100.56 323.262 100.72L322.782 102.24C322.515 102.16 322.262 102.107 322.022 102.08C321.809 102.027 321.502 102 321.102 102C320.249 102 319.342 102.373 318.382 103.12C317.449 103.84 316.609 105.107 315.862 106.92V120H314.102ZM332.687 129.24C331.06 129.24 329.66 129.013 328.487 128.56C327.313 128.133 326.407 127.52 325.767 126.72C325.127 125.947 324.807 125.013 324.807 123.92C324.807 123.067 325.06 122.24 325.567 121.44C326.073 120.64 326.767 119.92 327.647 119.28V119.12C327.167 118.827 326.767 118.427 326.447 117.92C326.127 117.413 325.967 116.787 325.967 116.04C325.967 115.187 326.207 114.467 326.687 113.88C327.167 113.267 327.62 112.813 328.047 112.52V112.36C327.46 111.827 326.913 111.107 326.407 110.2C325.9 109.267 325.647 108.227 325.647 107.08C325.647 105.773 325.94 104.613 326.527 103.6C327.14 102.56 327.953 101.76 328.967 101.2C330.007 100.613 331.153 100.32 332.407 100.32C332.94 100.32 333.42 100.373 333.847 100.48C334.3 100.56 334.66 100.667 334.927 100.8H341.447V102.28H336.967V102.44C337.553 102.92 338.047 103.547 338.447 104.32C338.873 105.093 339.087 106.027 339.087 107.12C339.087 108.427 338.78 109.587 338.167 110.6C337.58 111.613 336.78 112.413 335.767 113C334.78 113.587 333.66 113.88 332.407 113.88C331.847 113.88 331.287 113.813 330.727 113.68C330.167 113.52 329.66 113.32 329.207 113.08C328.807 113.4 328.447 113.787 328.127 114.24C327.807 114.667 327.647 115.2 327.647 115.84C327.647 116.533 327.9 117.133 328.407 117.64C328.94 118.12 329.913 118.36 331.327 118.36H335.447C337.607 118.36 339.193 118.72 340.207 119.44C341.247 120.133 341.767 121.24 341.767 122.76C341.767 123.853 341.393 124.893 340.647 125.88C339.9 126.867 338.847 127.667 337.487 128.28C336.127 128.92 334.527 129.24 332.687 129.24ZM332.407 112.48C333.287 112.48 334.1 112.253 334.847 111.8C335.593 111.347 336.193 110.72 336.647 109.92C337.127 109.093 337.367 108.147 337.367 107.08C337.367 105.427 336.873 104.133 335.887 103.2C334.927 102.24 333.767 101.76 332.407 101.76C331.047 101.76 329.873 102.24 328.887 103.2C327.9 104.133 327.407 105.427 327.407 107.08C327.407 108.147 327.633 109.093 328.087 109.92C328.567 110.72 329.18 111.347 329.927 111.8C330.673 112.253 331.5 112.48 332.407 112.48ZM332.887 127.8C334.327 127.8 335.567 127.56 336.607 127.08C337.673 126.627 338.5 126.027 339.087 125.28C339.673 124.533 339.967 123.76 339.967 122.96C339.967 121.893 339.58 121.133 338.807 120.68C338.06 120.253 336.967 120.04 335.527 120.04H331.407C331.22 120.04 330.9 120.013 330.447 119.96C329.993 119.907 329.513 119.827 329.007 119.72C328.127 120.307 327.487 120.947 327.087 121.64C326.687 122.36 326.487 123.067 326.487 123.76C326.487 124.96 327.047 125.933 328.167 126.68C329.287 127.427 330.86 127.8 332.887 127.8ZM352.749 120.48C351.096 120.48 349.602 120.08 348.269 119.28C346.936 118.48 345.869 117.333 345.069 115.84C344.269 114.32 343.869 112.52 343.869 110.44C343.869 108.333 344.269 106.533 345.069 105.04C345.869 103.52 346.896 102.36 348.149 101.56C349.429 100.733 350.789 100.32 352.229 100.32C353.749 100.32 355.056 100.667 356.149 101.36C357.269 102.053 358.122 103.067 358.709 104.4C359.296 105.707 359.589 107.307 359.589 109.2C359.589 109.413 359.576 109.653 359.549 109.92C359.549 110.16 359.522 110.413 359.469 110.68H344.949V109.16H357.909C357.909 106.707 357.402 104.88 356.389 103.68C355.376 102.453 354.002 101.84 352.269 101.84C351.202 101.84 350.162 102.147 349.149 102.76C348.136 103.373 347.296 104.32 346.629 105.6C345.989 106.853 345.669 108.44 345.669 110.36C345.669 112.12 345.989 113.653 346.629 114.96C347.269 116.24 348.136 117.227 349.229 117.92C350.322 118.587 351.549 118.92 352.909 118.92C353.949 118.92 354.896 118.787 355.749 118.52C356.629 118.227 357.402 117.84 358.069 117.36L358.789 118.6C358.042 119.107 357.202 119.547 356.269 119.92C355.336 120.293 354.162 120.48 352.749 120.48Z" fill="white"/>
<path d="M121.5 97.5V111.5C121.5 113.357 120.763 115.137 119.45 116.45C118.137 117.763 116.357 118.5 114.5 118.5H65.5C63.6435 118.5 61.863 117.763 60.5503 116.45C59.2375 115.137 58.5 113.357 58.5 111.5V97.5" stroke="#CBCBCB" stroke-width="6" stroke-linecap="round" stroke-linejoin="round"/>
<path d="M72.5 80L90 97.5L107.5 80" stroke="#CBCBCB" stroke-width="6" stroke-linecap="round" stroke-linejoin="round"/>
<path d="M90 97.5V55.5" stroke="#CBCBCB" stroke-width="6" stroke-linecap="round" stroke-linejoin="round"/>
</svg>
