<svg width="500" height="174" viewBox="0 0 500 174" fill="none" xmlns="http://www.w3.org/2000/svg">
<rect x="12" y="12" width="476" height="150" rx="32" fill="black" fill-opacity="0.5"/>
<path d="M161.08 99V72.92H168.44C171.107 72.92 173.413 73.3733 175.36 74.28C177.333 75.1867 178.853 76.6 179.92 78.52C180.987 80.4133 181.52 82.8533 181.52 85.84C181.52 88.8267 180.987 91.2933 179.92 93.24C178.853 95.1867 177.36 96.64 175.44 97.6C173.547 98.5333 171.333 99 168.8 99H161.08ZM166.96 94.24H168.08C169.573 94.24 170.867 93.9733 171.96 93.44C173.08 92.9067 173.947 92.0267 174.56 90.8C175.173 89.5733 175.48 87.92 175.48 85.84C175.48 83.76 175.173 82.1333 174.56 80.96C173.947 79.76 173.08 78.92 171.96 78.44C170.867 77.9333 169.573 77.68 168.08 77.68H166.96V94.24ZM194.511 99.48C192.831 99.48 191.257 99.08 189.791 98.28C188.324 97.4533 187.124 96.2667 186.191 94.72C185.284 93.1467 184.831 91.2667 184.831 89.08C184.831 86.8933 185.284 85.0267 186.191 83.48C187.124 81.9067 188.324 80.72 189.791 79.92C191.257 79.0933 192.831 78.68 194.511 78.68C196.164 78.68 197.724 79.0933 199.191 79.92C200.657 80.72 201.844 81.9067 202.751 83.48C203.684 85.0267 204.151 86.8933 204.151 89.08C204.151 91.2667 203.684 93.1467 202.751 94.72C201.844 96.2667 200.657 97.4533 199.191 98.28C197.724 99.08 196.164 99.48 194.511 99.48ZM194.511 94.72C195.311 94.72 195.977 94.4933 196.511 94.04C197.071 93.5867 197.484 92.9333 197.751 92.08C198.017 91.2267 198.151 90.2267 198.151 89.08C198.151 87.9333 198.017 86.9333 197.751 86.08C197.484 85.2267 197.071 84.5733 196.511 84.12C195.977 83.6667 195.311 83.44 194.511 83.44C193.684 83.44 193.004 83.6667 192.471 84.12C191.937 84.5733 191.537 85.2267 191.271 86.08C191.004 86.9333 190.871 87.9333 190.871 89.08C190.871 90.2267 191.004 91.2267 191.271 92.08C191.537 92.9333 191.937 93.5867 192.471 94.04C193.004 94.4933 193.684 94.72 194.511 94.72ZM211.186 99L206.226 79.16H212.106L213.986 88.36C214.172 89.2933 214.332 90.2533 214.466 91.24C214.599 92.2 214.732 93.2267 214.866 94.32H215.026C215.212 93.2267 215.386 92.1867 215.546 91.2C215.732 90.2133 215.932 89.2667 216.146 88.36L218.226 79.16H223.586L225.786 88.36C225.999 89.2933 226.199 90.2533 226.386 91.24C226.572 92.2 226.759 93.2267 226.946 94.32H227.106C227.292 93.2267 227.439 92.2 227.546 91.24C227.679 90.2533 227.826 89.2933 227.986 88.36L229.866 79.16H235.346L230.586 99H223.506L221.826 91.08C221.666 90.1733 221.492 89.2667 221.306 88.36C221.146 87.4267 220.986 86.36 220.826 85.16H220.666C220.559 86.36 220.426 87.4267 220.266 88.36C220.106 89.2667 219.932 90.1733 219.746 91.08L218.106 99H211.186ZM238.92 99V79.16H243.72L244.12 81.68H244.28C245.107 80.8533 246.04 80.1467 247.08 79.56C248.12 78.9733 249.307 78.68 250.64 78.68C252.827 78.68 254.4 79.4 255.36 80.84C256.32 82.2533 256.8 84.2 256.8 86.68V99H250.92V87.44C250.92 86 250.72 85.0133 250.32 84.48C249.947 83.9467 249.334 83.68 248.48 83.68C247.734 83.68 247.094 83.8533 246.56 84.2C246.027 84.52 245.44 84.9867 244.8 85.6V99H238.92ZM267.211 99.44C265.878 99.44 264.811 99.1733 264.011 98.64C263.238 98.08 262.678 97.3067 262.331 96.32C261.984 95.3067 261.811 94.1333 261.811 92.8V71H267.691V93.04C267.691 93.68 267.798 94.12 268.011 94.36C268.251 94.5733 268.504 94.68 268.771 94.68C268.878 94.68 268.971 94.68 269.051 94.68C269.158 94.6533 269.291 94.6267 269.451 94.6L270.171 98.96C269.851 99.0933 269.438 99.2 268.931 99.28C268.451 99.3867 267.878 99.44 267.211 99.44ZM281.776 99.48C280.096 99.48 278.523 99.08 277.056 98.28C275.59 97.4533 274.39 96.2667 273.456 94.72C272.55 93.1467 272.096 91.2667 272.096 89.08C272.096 86.8933 272.55 85.0267 273.456 83.48C274.39 81.9067 275.59 80.72 277.056 79.92C278.523 79.0933 280.096 78.68 281.776 78.68C283.43 78.68 284.99 79.0933 286.456 79.92C287.923 80.72 289.11 81.9067 290.016 83.48C290.95 85.0267 291.416 86.8933 291.416 89.08C291.416 91.2667 290.95 93.1467 290.016 94.72C289.11 96.2667 287.923 97.4533 286.456 98.28C284.99 99.08 283.43 99.48 281.776 99.48ZM281.776 94.72C282.576 94.72 283.243 94.4933 283.776 94.04C284.336 93.5867 284.75 92.9333 285.016 92.08C285.283 91.2267 285.416 90.2267 285.416 89.08C285.416 87.9333 285.283 86.9333 285.016 86.08C284.75 85.2267 284.336 84.5733 283.776 84.12C283.243 83.6667 282.576 83.44 281.776 83.44C280.95 83.44 280.27 83.6667 279.736 84.12C279.203 84.5733 278.803 85.2267 278.536 86.08C278.27 86.9333 278.136 87.9333 278.136 89.08C278.136 90.2267 278.27 91.2267 278.536 92.08C278.803 92.9333 279.203 93.5867 279.736 94.04C280.27 94.4933 280.95 94.72 281.776 94.72ZM300.014 99.48C298.814 99.48 297.761 99.2133 296.854 98.68C295.974 98.1467 295.294 97.4267 294.814 96.52C294.334 95.6133 294.094 94.6 294.094 93.48C294.094 91.3467 294.974 89.7067 296.734 88.56C298.494 87.3867 301.334 86.6 305.254 86.2C305.227 85.6133 305.094 85.12 304.854 84.72C304.641 84.2933 304.307 83.9733 303.854 83.76C303.401 83.52 302.827 83.4 302.134 83.4C301.307 83.4 300.467 83.5467 299.614 83.84C298.761 84.1333 297.841 84.56 296.854 85.12L294.774 81.28C295.627 80.7467 296.507 80.2933 297.414 79.92C298.321 79.52 299.254 79.2133 300.214 79C301.201 78.7867 302.214 78.68 303.254 78.68C304.961 78.68 306.387 79.0133 307.534 79.68C308.707 80.32 309.601 81.3067 310.214 82.64C310.827 83.9467 311.134 85.6267 311.134 87.68V99H306.334L305.934 96.96H305.774C304.921 97.7067 304.027 98.32 303.094 98.8C302.161 99.2533 301.134 99.48 300.014 99.48ZM301.974 94.88C302.641 94.88 303.227 94.7333 303.734 94.44C304.241 94.1467 304.747 93.7467 305.254 93.24V89.88C303.867 90.0667 302.761 90.3067 301.934 90.6C301.134 90.8933 300.561 91.2533 300.214 91.68C299.894 92.08 299.734 92.5333 299.734 93.04C299.734 93.6533 299.934 94.12 300.334 94.44C300.761 94.7333 301.307 94.88 301.974 94.88ZM323.188 99.48C320.734 99.48 318.761 98.56 317.268 96.72C315.801 94.8533 315.068 92.3067 315.068 89.08C315.068 86.92 315.454 85.0667 316.228 83.52C317.028 81.9733 318.054 80.7867 319.308 79.96C320.588 79.1067 321.921 78.68 323.308 78.68C324.401 78.68 325.321 78.8667 326.068 79.24C326.814 79.6133 327.521 80.12 328.188 80.76L327.948 77.72V70.96H333.828V99H329.028L328.628 97.04H328.468C327.774 97.7333 326.961 98.32 326.028 98.8C325.094 99.2533 324.148 99.48 323.188 99.48ZM324.708 94.68C325.348 94.68 325.934 94.5467 326.468 94.28C327.001 94.0133 327.494 93.5467 327.948 92.88V84.76C327.441 84.28 326.908 83.9467 326.348 83.76C325.788 83.5733 325.228 83.48 324.668 83.48C324.028 83.48 323.441 83.68 322.908 84.08C322.374 84.48 321.934 85.0933 321.588 85.92C321.268 86.72 321.108 87.7467 321.108 89C321.108 90.9467 321.428 92.3867 322.068 93.32C322.708 94.2267 323.588 94.68 324.708 94.68ZM348.045 99V78.12C348.045 76.7067 348.272 75.4267 348.725 74.28C349.205 73.1333 349.979 72.2133 351.045 71.52C352.139 70.8267 353.579 70.48 355.365 70.48C356.192 70.48 356.952 70.56 357.645 70.72C358.339 70.88 358.899 71.04 359.325 71.2L358.165 75.4C357.499 75.2133 356.845 75.12 356.205 75.12C355.485 75.12 354.925 75.3467 354.525 75.8C354.125 76.2267 353.925 76.9467 353.925 77.96V99H348.045ZM345.125 83.76V79.4L348.445 79.16H357.485V83.76H345.125ZM360.678 99V79.16H366.558V99H360.678ZM363.598 76.24C362.611 76.24 361.811 75.96 361.198 75.4C360.585 74.84 360.278 74.0933 360.278 73.16C360.278 72.2267 360.585 71.48 361.198 70.92C361.811 70.36 362.611 70.08 363.598 70.08C364.585 70.08 365.385 70.36 365.998 70.92C366.611 71.48 366.918 72.2267 366.918 73.16C366.918 74.0933 366.611 74.84 365.998 75.4C365.385 75.96 364.585 76.24 363.598 76.24ZM377.133 99.44C375.799 99.44 374.733 99.1733 373.933 98.64C373.159 98.08 372.599 97.3067 372.253 96.32C371.906 95.3067 371.733 94.1333 371.733 92.8V71H377.613V93.04C377.613 93.68 377.719 94.12 377.933 94.36C378.173 94.5733 378.426 94.68 378.693 94.68C378.799 94.68 378.893 94.68 378.973 94.68C379.079 94.6533 379.213 94.6267 379.373 94.6L380.093 98.96C379.773 99.0933 379.359 99.2 378.853 99.28C378.373 99.3867 377.799 99.44 377.133 99.44ZM392.058 99.48C390.165 99.48 388.458 99.0667 386.938 98.24C385.418 97.4133 384.218 96.2267 383.338 94.68C382.458 93.1333 382.018 91.2667 382.018 89.08C382.018 86.92 382.458 85.0667 383.338 83.52C384.245 81.9733 385.418 80.7867 386.858 79.96C388.298 79.1067 389.805 78.68 391.378 78.68C393.271 78.68 394.845 79.1067 396.098 79.96C397.351 80.7867 398.285 81.92 398.898 83.36C399.511 84.8 399.818 86.4133 399.818 88.2C399.818 88.7067 399.791 89.2133 399.738 89.72C399.685 90.2 399.631 90.5867 399.578 90.88H386.578L386.498 86.8H394.778C394.778 85.76 394.525 84.9067 394.018 84.24C393.511 83.5467 392.671 83.2 391.498 83.2C390.858 83.2 390.231 83.3733 389.618 83.72C389.005 84.0667 388.498 84.6667 388.098 85.52C387.698 86.3733 387.511 87.56 387.538 89.08C387.565 90.5733 387.831 91.7467 388.338 92.6C388.871 93.4533 389.538 94.0667 390.338 94.44C391.138 94.7867 391.978 94.96 392.858 94.96C393.631 94.96 394.365 94.8533 395.058 94.64C395.778 94.4 396.485 94.08 397.178 93.68L399.098 97.28C398.111 97.9733 396.991 98.52 395.738 98.92C394.485 99.2933 393.258 99.48 392.058 99.48Z" fill="white"/>
<path d="M121.5 97.5V111.5C121.5 113.357 120.763 115.137 119.45 116.45C118.137 117.763 116.357 118.5 114.5 118.5H65.5C63.6435 118.5 61.863 117.763 60.5503 116.45C59.2375 115.137 58.5 113.357 58.5 111.5V97.5" stroke="#CBCBCB" stroke-width="6" stroke-linecap="round" stroke-linejoin="round"/>
<path d="M72.5 80L90 97.5L107.5 80" stroke="#CBCBCB" stroke-width="6" stroke-linecap="round" stroke-linejoin="round"/>
<path d="M90 97.5V55.5" stroke="#CBCBCB" stroke-width="6" stroke-linecap="round" stroke-linejoin="round"/>
</svg>
