<svg width="500" height="174" viewBox="0 0 500 174" fill="none" xmlns="http://www.w3.org/2000/svg">
<rect x="12" y="12" width="476" height="150" rx="32" fill="black" fill-opacity="0.5"/>
<path d="M161.08 78V51.92H168.44C171.107 51.92 173.413 52.3733 175.36 53.28C177.333 54.1867 178.853 55.6 179.92 57.52C180.987 59.4133 181.52 61.8533 181.52 64.84C181.52 67.8267 180.987 70.2933 179.92 72.24C178.853 74.1867 177.36 75.64 175.44 76.6C173.547 77.5333 171.333 78 168.8 78H161.08ZM166.96 73.24H168.08C169.573 73.24 170.867 72.9733 171.96 72.44C173.08 71.9067 173.947 71.0267 174.56 69.8C175.173 68.5733 175.48 66.92 175.48 64.84C175.48 62.76 175.173 61.1333 174.56 59.96C173.947 58.76 173.08 57.92 171.96 57.44C170.867 56.9333 169.573 56.68 168.08 56.68H166.96V73.24ZM194.511 78.48C192.831 78.48 191.257 78.08 189.791 77.28C188.324 76.4533 187.124 75.2667 186.191 73.72C185.284 72.1467 184.831 70.2667 184.831 68.08C184.831 65.8933 185.284 64.0267 186.191 62.48C187.124 60.9067 188.324 59.72 189.791 58.92C191.257 58.0933 192.831 57.68 194.511 57.68C196.164 57.68 197.724 58.0933 199.191 58.92C200.657 59.72 201.844 60.9067 202.751 62.48C203.684 64.0267 204.151 65.8933 204.151 68.08C204.151 70.2667 203.684 72.1467 202.751 73.72C201.844 75.2667 200.657 76.4533 199.191 77.28C197.724 78.08 196.164 78.48 194.511 78.48ZM194.511 73.72C195.311 73.72 195.977 73.4933 196.511 73.04C197.071 72.5867 197.484 71.9333 197.751 71.08C198.017 70.2267 198.151 69.2267 198.151 68.08C198.151 66.9333 198.017 65.9333 197.751 65.08C197.484 64.2267 197.071 63.5733 196.511 63.12C195.977 62.6667 195.311 62.44 194.511 62.44C193.684 62.44 193.004 62.6667 192.471 63.12C191.937 63.5733 191.537 64.2267 191.271 65.08C191.004 65.9333 190.871 66.9333 190.871 68.08C190.871 69.2267 191.004 70.2267 191.271 71.08C191.537 71.9333 191.937 72.5867 192.471 73.04C193.004 73.4933 193.684 73.72 194.511 73.72ZM211.186 78L206.226 58.16H212.106L213.986 67.36C214.172 68.2933 214.332 69.2533 214.466 70.24C214.599 71.2 214.732 72.2267 214.866 73.32H215.026C215.212 72.2267 215.386 71.1867 215.546 70.2C215.732 69.2133 215.932 68.2667 216.146 67.36L218.226 58.16H223.586L225.786 67.36C225.999 68.2933 226.199 69.2533 226.386 70.24C226.572 71.2 226.759 72.2267 226.946 73.32H227.106C227.292 72.2267 227.439 71.2 227.546 70.24C227.679 69.2533 227.826 68.2933 227.986 67.36L229.866 58.16H235.346L230.586 78H223.506L221.826 70.08C221.666 69.1733 221.492 68.2667 221.306 67.36C221.146 66.4267 220.986 65.36 220.826 64.16H220.666C220.559 65.36 220.426 66.4267 220.266 67.36C220.106 68.2667 219.932 69.1733 219.746 70.08L218.106 78H211.186ZM238.92 78V58.16H243.72L244.12 60.68H244.28C245.107 59.8533 246.04 59.1467 247.08 58.56C248.12 57.9733 249.307 57.68 250.64 57.68C252.827 57.68 254.4 58.4 255.36 59.84C256.32 61.2533 256.8 63.2 256.8 65.68V78H250.92V66.44C250.92 65 250.72 64.0133 250.32 63.48C249.947 62.9467 249.334 62.68 248.48 62.68C247.734 62.68 247.094 62.8533 246.56 63.2C246.027 63.52 245.44 63.9867 244.8 64.6V78H238.92ZM267.211 78.44C265.878 78.44 264.811 78.1733 264.011 77.64C263.238 77.08 262.678 76.3067 262.331 75.32C261.984 74.3067 261.811 73.1333 261.811 71.8V50H267.691V72.04C267.691 72.68 267.798 73.12 268.011 73.36C268.251 73.5733 268.504 73.68 268.771 73.68C268.878 73.68 268.971 73.68 269.051 73.68C269.158 73.6533 269.291 73.6267 269.451 73.6L270.171 77.96C269.851 78.0933 269.438 78.2 268.931 78.28C268.451 78.3867 267.878 78.44 267.211 78.44ZM281.776 78.48C280.096 78.48 278.523 78.08 277.056 77.28C275.59 76.4533 274.39 75.2667 273.456 73.72C272.55 72.1467 272.096 70.2667 272.096 68.08C272.096 65.8933 272.55 64.0267 273.456 62.48C274.39 60.9067 275.59 59.72 277.056 58.92C278.523 58.0933 280.096 57.68 281.776 57.68C283.43 57.68 284.99 58.0933 286.456 58.92C287.923 59.72 289.11 60.9067 290.016 62.48C290.95 64.0267 291.416 65.8933 291.416 68.08C291.416 70.2667 290.95 72.1467 290.016 73.72C289.11 75.2667 287.923 76.4533 286.456 77.28C284.99 78.08 283.43 78.48 281.776 78.48ZM281.776 73.72C282.576 73.72 283.243 73.4933 283.776 73.04C284.336 72.5867 284.75 71.9333 285.016 71.08C285.283 70.2267 285.416 69.2267 285.416 68.08C285.416 66.9333 285.283 65.9333 285.016 65.08C284.75 64.2267 284.336 63.5733 283.776 63.12C283.243 62.6667 282.576 62.44 281.776 62.44C280.95 62.44 280.27 62.6667 279.736 63.12C279.203 63.5733 278.803 64.2267 278.536 65.08C278.27 65.9333 278.136 66.9333 278.136 68.08C278.136 69.2267 278.27 70.2267 278.536 71.08C278.803 71.9333 279.203 72.5867 279.736 73.04C280.27 73.4933 280.95 73.72 281.776 73.72ZM300.014 78.48C298.814 78.48 297.761 78.2133 296.854 77.68C295.974 77.1467 295.294 76.4267 294.814 75.52C294.334 74.6133 294.094 73.6 294.094 72.48C294.094 70.3467 294.974 68.7067 296.734 67.56C298.494 66.3867 301.334 65.6 305.254 65.2C305.227 64.6133 305.094 64.12 304.854 63.72C304.641 63.2933 304.307 62.9733 303.854 62.76C303.401 62.52 302.827 62.4 302.134 62.4C301.307 62.4 300.467 62.5467 299.614 62.84C298.761 63.1333 297.841 63.56 296.854 64.12L294.774 60.28C295.627 59.7467 296.507 59.2933 297.414 58.92C298.321 58.52 299.254 58.2133 300.214 58C301.201 57.7867 302.214 57.68 303.254 57.68C304.961 57.68 306.387 58.0133 307.534 58.68C308.707 59.32 309.601 60.3067 310.214 61.64C310.827 62.9467 311.134 64.6267 311.134 66.68V78H306.334L305.934 75.96H305.774C304.921 76.7067 304.027 77.32 303.094 77.8C302.161 78.2533 301.134 78.48 300.014 78.48ZM301.974 73.88C302.641 73.88 303.227 73.7333 303.734 73.44C304.241 73.1467 304.747 72.7467 305.254 72.24V68.88C303.867 69.0667 302.761 69.3067 301.934 69.6C301.134 69.8933 300.561 70.2533 300.214 70.68C299.894 71.08 299.734 71.5333 299.734 72.04C299.734 72.6533 299.934 73.12 300.334 73.44C300.761 73.7333 301.307 73.88 301.974 73.88ZM323.188 78.48C320.734 78.48 318.761 77.56 317.268 75.72C315.801 73.8533 315.068 71.3067 315.068 68.08C315.068 65.92 315.454 64.0667 316.228 62.52C317.028 60.9733 318.054 59.7867 319.308 58.96C320.588 58.1067 321.921 57.68 323.308 57.68C324.401 57.68 325.321 57.8667 326.068 58.24C326.814 58.6133 327.521 59.12 328.188 59.76L327.948 56.72V49.96H333.828V78H329.028L328.628 76.04H328.468C327.774 76.7333 326.961 77.32 326.028 77.8C325.094 78.2533 324.148 78.48 323.188 78.48ZM324.708 73.68C325.348 73.68 325.934 73.5467 326.468 73.28C327.001 73.0133 327.494 72.5467 327.948 71.88V63.76C327.441 63.28 326.908 62.9467 326.348 62.76C325.788 62.5733 325.228 62.48 324.668 62.48C324.028 62.48 323.441 62.68 322.908 63.08C322.374 63.48 321.934 64.0933 321.588 64.92C321.268 65.72 321.108 66.7467 321.108 68C321.108 69.9467 321.428 71.3867 322.068 72.32C322.708 73.2267 323.588 73.68 324.708 73.68ZM348.045 78V57.12C348.045 55.7067 348.272 54.4267 348.725 53.28C349.205 52.1333 349.979 51.2133 351.045 50.52C352.139 49.8267 353.579 49.48 355.365 49.48C356.192 49.48 356.952 49.56 357.645 49.72C358.339 49.88 358.899 50.04 359.325 50.2L358.165 54.4C357.499 54.2133 356.845 54.12 356.205 54.12C355.485 54.12 354.925 54.3467 354.525 54.8C354.125 55.2267 353.925 55.9467 353.925 56.96V78H348.045ZM345.125 62.76V58.4L348.445 58.16H357.485V62.76H345.125ZM360.678 78V58.16H366.558V78H360.678ZM363.598 55.24C362.611 55.24 361.811 54.96 361.198 54.4C360.585 53.84 360.278 53.0933 360.278 52.16C360.278 51.2267 360.585 50.48 361.198 49.92C361.811 49.36 362.611 49.08 363.598 49.08C364.585 49.08 365.385 49.36 365.998 49.92C366.611 50.48 366.918 51.2267 366.918 52.16C366.918 53.0933 366.611 53.84 365.998 54.4C365.385 54.96 364.585 55.24 363.598 55.24ZM377.133 78.44C375.799 78.44 374.733 78.1733 373.933 77.64C373.159 77.08 372.599 76.3067 372.253 75.32C371.906 74.3067 371.733 73.1333 371.733 71.8V50H377.613V72.04C377.613 72.68 377.719 73.12 377.933 73.36C378.173 73.5733 378.426 73.68 378.693 73.68C378.799 73.68 378.893 73.68 378.973 73.68C379.079 73.6533 379.213 73.6267 379.373 73.6L380.093 77.96C379.773 78.0933 379.359 78.2 378.853 78.28C378.373 78.3867 377.799 78.44 377.133 78.44ZM392.058 78.48C390.165 78.48 388.458 78.0667 386.938 77.24C385.418 76.4133 384.218 75.2267 383.338 73.68C382.458 72.1333 382.018 70.2667 382.018 68.08C382.018 65.92 382.458 64.0667 383.338 62.52C384.245 60.9733 385.418 59.7867 386.858 58.96C388.298 58.1067 389.805 57.68 391.378 57.68C393.271 57.68 394.845 58.1067 396.098 58.96C397.351 59.7867 398.285 60.92 398.898 62.36C399.511 63.8 399.818 65.4133 399.818 67.2C399.818 67.7067 399.791 68.2133 399.738 68.72C399.685 69.2 399.631 69.5867 399.578 69.88H386.578L386.498 65.8H394.778C394.778 64.76 394.525 63.9067 394.018 63.24C393.511 62.5467 392.671 62.2 391.498 62.2C390.858 62.2 390.231 62.3733 389.618 62.72C389.005 63.0667 388.498 63.6667 388.098 64.52C387.698 65.3733 387.511 66.56 387.538 68.08C387.565 69.5733 387.831 70.7467 388.338 71.6C388.871 72.4533 389.538 73.0667 390.338 73.44C391.138 73.7867 391.978 73.96 392.858 73.96C393.631 73.96 394.365 73.8533 395.058 73.64C395.778 73.4 396.485 73.08 397.178 72.68L399.098 76.28C398.111 76.9733 396.991 77.52 395.738 77.92C394.485 78.2933 393.258 78.48 392.058 78.48ZM161.88 120V93.64H164.56L170.04 109.12C170.387 110.08 170.733 111.04 171.08 112C171.427 112.96 171.76 113.947 172.08 114.96H172.24C172.587 113.947 172.92 112.96 173.24 112C173.56 111.04 173.88 110.08 174.2 109.12L179.68 93.64H182.36V120H180.56V102.68C180.56 101.96 180.573 101.187 180.6 100.36C180.627 99.5333 180.653 98.6933 180.68 97.84C180.733 96.9867 180.773 96.2 180.8 95.48H180.64L178.6 101.44L172.92 117.12H171.28L165.56 101.44L163.52 95.48H163.36C163.387 96.2 163.413 96.9867 163.44 97.84C163.493 98.6933 163.533 99.5333 163.56 100.36C163.587 101.187 163.6 101.96 163.6 102.68V120H161.88ZM197.202 120.48C195.549 120.48 194.056 120.08 192.722 119.28C191.389 118.48 190.322 117.333 189.522 115.84C188.722 114.32 188.322 112.52 188.322 110.44C188.322 108.333 188.722 106.533 189.522 105.04C190.322 103.52 191.349 102.36 192.602 101.56C193.882 100.733 195.242 100.32 196.682 100.32C198.202 100.32 199.509 100.667 200.602 101.36C201.722 102.053 202.576 103.067 203.162 104.4C203.749 105.707 204.042 107.307 204.042 109.2C204.042 109.413 204.029 109.653 204.002 109.92C204.002 110.16 203.976 110.413 203.922 110.68H189.402V109.16H202.362C202.362 106.707 201.856 104.88 200.842 103.68C199.829 102.453 198.456 101.84 196.722 101.84C195.656 101.84 194.616 102.147 193.602 102.76C192.589 103.373 191.749 104.32 191.082 105.6C190.442 106.853 190.122 108.44 190.122 110.36C190.122 112.12 190.442 113.653 191.082 114.96C191.722 116.24 192.589 117.227 193.682 117.92C194.776 118.587 196.002 118.92 197.362 118.92C198.402 118.92 199.349 118.787 200.202 118.52C201.082 118.227 201.856 117.84 202.522 117.36L203.242 118.6C202.496 119.107 201.656 119.547 200.722 119.92C199.789 120.293 198.616 120.48 197.202 120.48ZM215.618 120.48C213.218 120.48 211.285 119.613 209.818 117.88C208.378 116.147 207.658 113.667 207.658 110.44C207.658 108.36 208.045 106.573 208.818 105.08C209.618 103.56 210.658 102.387 211.938 101.56C213.245 100.733 214.658 100.32 216.178 100.32C217.351 100.32 218.378 100.52 219.258 100.92C220.138 101.32 221.045 101.907 221.978 102.68L221.898 99.16V91.24H223.658V120H222.138L221.978 117.52H221.858C221.085 118.293 220.165 118.987 219.098 119.6C218.058 120.187 216.898 120.48 215.618 120.48ZM215.858 118.92C216.925 118.92 217.938 118.653 218.898 118.12C219.885 117.56 220.885 116.773 221.898 115.76V104.36C220.885 103.453 219.938 102.813 219.058 102.44C218.178 102.067 217.258 101.88 216.298 101.88C215.018 101.88 213.871 102.253 212.858 103C211.845 103.747 211.031 104.773 210.418 106.08C209.831 107.36 209.538 108.813 209.538 110.44C209.538 112.973 210.085 115.027 211.178 116.6C212.271 118.147 213.831 118.92 215.858 118.92ZM231.016 120V100.8H232.776V120H231.016ZM231.856 96.16C231.429 96.16 231.069 96.0133 230.776 95.72C230.483 95.4 230.336 95 230.336 94.52C230.336 94.04 230.483 93.6667 230.776 93.4C231.069 93.1067 231.429 92.96 231.856 92.96C232.309 92.96 232.669 93.1067 232.936 93.4C233.229 93.6667 233.376 94.04 233.376 94.52C233.376 95 233.229 95.4 232.936 95.72C232.669 96.0133 232.309 96.16 231.856 96.16ZM244.357 120.48C243.343 120.48 242.41 120.293 241.557 119.92C240.73 119.547 240.063 118.973 239.557 118.2C239.05 117.4 238.797 116.413 238.797 115.24C238.797 113.08 239.797 111.453 241.797 110.36C243.797 109.24 246.93 108.44 251.197 107.96C251.197 106.973 251.077 106.013 250.837 105.08C250.623 104.147 250.183 103.387 249.517 102.8C248.877 102.187 247.917 101.88 246.637 101.88C245.357 101.88 244.183 102.133 243.117 102.64C242.05 103.12 241.183 103.587 240.517 104.04L239.717 102.8C240.17 102.453 240.757 102.093 241.477 101.72C242.197 101.32 243.01 100.987 243.917 100.72C244.85 100.453 245.837 100.32 246.877 100.32C248.37 100.32 249.557 100.653 250.437 101.32C251.343 101.987 251.983 102.88 252.357 104C252.757 105.12 252.957 106.36 252.957 107.72V120H251.437L251.277 117.52H251.157C250.197 118.293 249.13 118.987 247.957 119.6C246.81 120.187 245.61 120.48 244.357 120.48ZM244.677 118.92C245.77 118.92 246.823 118.667 247.837 118.16C248.877 117.627 249.997 116.853 251.197 115.84V109.36C248.557 109.653 246.463 110.067 244.917 110.6C243.37 111.107 242.263 111.733 241.597 112.48C240.93 113.227 240.597 114.107 240.597 115.12C240.597 116.48 240.997 117.453 241.797 118.04C242.623 118.627 243.583 118.92 244.677 118.92ZM260.005 120V93.64H274.365V95.24H261.845V105.72H272.445V107.32H261.845V120H260.005ZM278.868 120V100.8H280.628V120H278.868ZM279.708 96.16C279.281 96.16 278.921 96.0133 278.628 95.72C278.334 95.4 278.188 95 278.188 94.52C278.188 94.04 278.334 93.6667 278.628 93.4C278.921 93.1067 279.281 92.96 279.708 92.96C280.161 92.96 280.521 93.1067 280.788 93.4C281.081 93.6667 281.228 94.04 281.228 94.52C281.228 95 281.081 95.4 280.788 95.72C280.521 96.0133 280.161 96.16 279.708 96.16ZM288.008 120V100.8H289.528L289.688 104.36H289.808C290.421 103.187 291.181 102.227 292.088 101.48C293.021 100.707 294.075 100.32 295.248 100.32C295.595 100.32 295.915 100.347 296.208 100.4C296.528 100.453 296.848 100.56 297.168 100.72L296.688 102.24C296.421 102.16 296.168 102.107 295.928 102.08C295.715 102.027 295.408 102 295.008 102C294.155 102 293.248 102.373 292.288 103.12C291.355 103.84 290.515 105.107 289.768 106.92V120H288.008ZM307.593 120.48C305.939 120.48 304.446 120.08 303.113 119.28C301.779 118.48 300.713 117.333 299.913 115.84C299.113 114.32 298.713 112.52 298.713 110.44C298.713 108.333 299.113 106.533 299.913 105.04C300.713 103.52 301.739 102.36 302.993 101.56C304.273 100.733 305.633 100.32 307.073 100.32C308.593 100.32 309.899 100.667 310.993 101.36C312.113 102.053 312.966 103.067 313.553 104.4C314.139 105.707 314.433 107.307 314.433 109.2C314.433 109.413 314.419 109.653 314.393 109.92C314.393 110.16 314.366 110.413 314.313 110.68H299.793V109.16H312.753C312.753 106.707 312.246 104.88 311.233 103.68C310.219 102.453 308.846 101.84 307.113 101.84C306.046 101.84 305.006 102.147 303.993 102.76C302.979 103.373 302.139 104.32 301.473 105.6C300.833 106.853 300.513 108.44 300.513 110.36C300.513 112.12 300.833 113.653 301.473 114.96C302.113 116.24 302.979 117.227 304.073 117.92C305.166 118.587 306.393 118.92 307.753 118.92C308.793 118.92 309.739 118.787 310.593 118.52C311.473 118.227 312.246 117.84 312.913 117.36L313.633 118.6C312.886 119.107 312.046 119.547 311.113 119.92C310.179 120.293 309.006 120.48 307.593 120.48Z" fill="white"/>
<path d="M121.5 97.5V111.5C121.5 113.357 120.763 115.137 119.45 116.45C118.137 117.763 116.357 118.5 114.5 118.5H65.5C63.6435 118.5 61.863 117.763 60.5503 116.45C59.2375 115.137 58.5 113.357 58.5 111.5V97.5" stroke="#CBCBCB" stroke-width="6" stroke-linecap="round" stroke-linejoin="round"/>
<path d="M72.5 80L90 97.5L107.5 80" stroke="#CBCBCB" stroke-width="6" stroke-linecap="round" stroke-linejoin="round"/>
<path d="M90 97.5V55.5" stroke="#CBCBCB" stroke-width="6" stroke-linecap="round" stroke-linejoin="round"/>
</svg>
