<svg width="500" height="174" viewBox="0 0 500 174" fill="none" xmlns="http://www.w3.org/2000/svg">
<rect x="12" y="12" width="476" height="150" rx="32" fill="black" fill-opacity="0.5"/>
<path d="M161.08 78V51.92H168.44C171.107 51.92 173.413 52.3733 175.36 53.28C177.333 54.1867 178.853 55.6 179.92 57.52C180.987 59.4133 181.52 61.8533 181.52 64.84C181.52 67.8267 180.987 70.2933 179.92 72.24C178.853 74.1867 177.36 75.64 175.44 76.6C173.547 77.5333 171.333 78 168.8 78H161.08ZM166.96 73.24H168.08C169.573 73.24 170.867 72.9733 171.96 72.44C173.08 71.9067 173.947 71.0267 174.56 69.8C175.173 68.5733 175.48 66.92 175.48 64.84C175.48 62.76 175.173 61.1333 174.56 59.96C173.947 58.76 173.08 57.92 171.96 57.44C170.867 56.9333 169.573 56.68 168.08 56.68H166.96V73.24ZM194.511 78.48C192.831 78.48 191.257 78.08 189.791 77.28C188.324 76.4533 187.124 75.2667 186.191 73.72C185.284 72.1467 184.831 70.2667 184.831 68.08C184.831 65.8933 185.284 64.0267 186.191 62.48C187.124 60.9067 188.324 59.72 189.791 58.92C191.257 58.0933 192.831 57.68 194.511 57.68C196.164 57.68 197.724 58.0933 199.191 58.92C200.657 59.72 201.844 60.9067 202.751 62.48C203.684 64.0267 204.151 65.8933 204.151 68.08C204.151 70.2667 203.684 72.1467 202.751 73.72C201.844 75.2667 200.657 76.4533 199.191 77.28C197.724 78.08 196.164 78.48 194.511 78.48ZM194.511 73.72C195.311 73.72 195.977 73.4933 196.511 73.04C197.071 72.5867 197.484 71.9333 197.751 71.08C198.017 70.2267 198.151 69.2267 198.151 68.08C198.151 66.9333 198.017 65.9333 197.751 65.08C197.484 64.2267 197.071 63.5733 196.511 63.12C195.977 62.6667 195.311 62.44 194.511 62.44C193.684 62.44 193.004 62.6667 192.471 63.12C191.937 63.5733 191.537 64.2267 191.271 65.08C191.004 65.9333 190.871 66.9333 190.871 68.08C190.871 69.2267 191.004 70.2267 191.271 71.08C191.537 71.9333 191.937 72.5867 192.471 73.04C193.004 73.4933 193.684 73.72 194.511 73.72ZM211.186 78L206.226 58.16H212.106L213.986 67.36C214.172 68.2933 214.332 69.2533 214.466 70.24C214.599 71.2 214.732 72.2267 214.866 73.32H215.026C215.212 72.2267 215.386 71.1867 215.546 70.2C215.732 69.2133 215.932 68.2667 216.146 67.36L218.226 58.16H223.586L225.786 67.36C225.999 68.2933 226.199 69.2533 226.386 70.24C226.572 71.2 226.759 72.2267 226.946 73.32H227.106C227.292 72.2267 227.439 71.2 227.546 70.24C227.679 69.2533 227.826 68.2933 227.986 67.36L229.866 58.16H235.346L230.586 78H223.506L221.826 70.08C221.666 69.1733 221.492 68.2667 221.306 67.36C221.146 66.4267 220.986 65.36 220.826 64.16H220.666C220.559 65.36 220.426 66.4267 220.266 67.36C220.106 68.2667 219.932 69.1733 219.746 70.08L218.106 78H211.186ZM238.92 78V58.16H243.72L244.12 60.68H244.28C245.107 59.8533 246.04 59.1467 247.08 58.56C248.12 57.9733 249.307 57.68 250.64 57.68C252.827 57.68 254.4 58.4 255.36 59.84C256.32 61.2533 256.8 63.2 256.8 65.68V78H250.92V66.44C250.92 65 250.72 64.0133 250.32 63.48C249.947 62.9467 249.334 62.68 248.48 62.68C247.734 62.68 247.094 62.8533 246.56 63.2C246.027 63.52 245.44 63.9867 244.8 64.6V78H238.92ZM267.211 78.44C265.878 78.44 264.811 78.1733 264.011 77.64C263.238 77.08 262.678 76.3067 262.331 75.32C261.984 74.3067 261.811 73.1333 261.811 71.8V50H267.691V72.04C267.691 72.68 267.798 73.12 268.011 73.36C268.251 73.5733 268.504 73.68 268.771 73.68C268.878 73.68 268.971 73.68 269.051 73.68C269.158 73.6533 269.291 73.6267 269.451 73.6L270.171 77.96C269.851 78.0933 269.438 78.2 268.931 78.28C268.451 78.3867 267.878 78.44 267.211 78.44ZM281.776 78.48C280.096 78.48 278.523 78.08 277.056 77.28C275.59 76.4533 274.39 75.2667 273.456 73.72C272.55 72.1467 272.096 70.2667 272.096 68.08C272.096 65.8933 272.55 64.0267 273.456 62.48C274.39 60.9067 275.59 59.72 277.056 58.92C278.523 58.0933 280.096 57.68 281.776 57.68C283.43 57.68 284.99 58.0933 286.456 58.92C287.923 59.72 289.11 60.9067 290.016 62.48C290.95 64.0267 291.416 65.8933 291.416 68.08C291.416 70.2667 290.95 72.1467 290.016 73.72C289.11 75.2667 287.923 76.4533 286.456 77.28C284.99 78.08 283.43 78.48 281.776 78.48ZM281.776 73.72C282.576 73.72 283.243 73.4933 283.776 73.04C284.336 72.5867 284.75 71.9333 285.016 71.08C285.283 70.2267 285.416 69.2267 285.416 68.08C285.416 66.9333 285.283 65.9333 285.016 65.08C284.75 64.2267 284.336 63.5733 283.776 63.12C283.243 62.6667 282.576 62.44 281.776 62.44C280.95 62.44 280.27 62.6667 279.736 63.12C279.203 63.5733 278.803 64.2267 278.536 65.08C278.27 65.9333 278.136 66.9333 278.136 68.08C278.136 69.2267 278.27 70.2267 278.536 71.08C278.803 71.9333 279.203 72.5867 279.736 73.04C280.27 73.4933 280.95 73.72 281.776 73.72ZM300.014 78.48C298.814 78.48 297.761 78.2133 296.854 77.68C295.974 77.1467 295.294 76.4267 294.814 75.52C294.334 74.6133 294.094 73.6 294.094 72.48C294.094 70.3467 294.974 68.7067 296.734 67.56C298.494 66.3867 301.334 65.6 305.254 65.2C305.227 64.6133 305.094 64.12 304.854 63.72C304.641 63.2933 304.307 62.9733 303.854 62.76C303.401 62.52 302.827 62.4 302.134 62.4C301.307 62.4 300.467 62.5467 299.614 62.84C298.761 63.1333 297.841 63.56 296.854 64.12L294.774 60.28C295.627 59.7467 296.507 59.2933 297.414 58.92C298.321 58.52 299.254 58.2133 300.214 58C301.201 57.7867 302.214 57.68 303.254 57.68C304.961 57.68 306.387 58.0133 307.534 58.68C308.707 59.32 309.601 60.3067 310.214 61.64C310.827 62.9467 311.134 64.6267 311.134 66.68V78H306.334L305.934 75.96H305.774C304.921 76.7067 304.027 77.32 303.094 77.8C302.161 78.2533 301.134 78.48 300.014 78.48ZM301.974 73.88C302.641 73.88 303.227 73.7333 303.734 73.44C304.241 73.1467 304.747 72.7467 305.254 72.24V68.88C303.867 69.0667 302.761 69.3067 301.934 69.6C301.134 69.8933 300.561 70.2533 300.214 70.68C299.894 71.08 299.734 71.5333 299.734 72.04C299.734 72.6533 299.934 73.12 300.334 73.44C300.761 73.7333 301.307 73.88 301.974 73.88ZM323.188 78.48C320.734 78.48 318.761 77.56 317.268 75.72C315.801 73.8533 315.068 71.3067 315.068 68.08C315.068 65.92 315.454 64.0667 316.228 62.52C317.028 60.9733 318.054 59.7867 319.308 58.96C320.588 58.1067 321.921 57.68 323.308 57.68C324.401 57.68 325.321 57.8667 326.068 58.24C326.814 58.6133 327.521 59.12 328.188 59.76L327.948 56.72V49.96H333.828V78H329.028L328.628 76.04H328.468C327.774 76.7333 326.961 77.32 326.028 77.8C325.094 78.2533 324.148 78.48 323.188 78.48ZM324.708 73.68C325.348 73.68 325.934 73.5467 326.468 73.28C327.001 73.0133 327.494 72.5467 327.948 71.88V63.76C327.441 63.28 326.908 62.9467 326.348 62.76C325.788 62.5733 325.228 62.48 324.668 62.48C324.028 62.48 323.441 62.68 322.908 63.08C322.374 63.48 321.934 64.0933 321.588 64.92C321.268 65.72 321.108 66.7467 321.108 68C321.108 69.9467 321.428 71.3867 322.068 72.32C322.708 73.2267 323.588 73.68 324.708 73.68ZM348.045 78V57.12C348.045 55.7067 348.272 54.4267 348.725 53.28C349.205 52.1333 349.979 51.2133 351.045 50.52C352.139 49.8267 353.579 49.48 355.365 49.48C356.192 49.48 356.952 49.56 357.645 49.72C358.339 49.88 358.899 50.04 359.325 50.2L358.165 54.4C357.499 54.2133 356.845 54.12 356.205 54.12C355.485 54.12 354.925 54.3467 354.525 54.8C354.125 55.2267 353.925 55.9467 353.925 56.96V78H348.045ZM345.125 62.76V58.4L348.445 58.16H357.485V62.76H345.125ZM360.678 78V58.16H366.558V78H360.678ZM363.598 55.24C362.611 55.24 361.811 54.96 361.198 54.4C360.585 53.84 360.278 53.0933 360.278 52.16C360.278 51.2267 360.585 50.48 361.198 49.92C361.811 49.36 362.611 49.08 363.598 49.08C364.585 49.08 365.385 49.36 365.998 49.92C366.611 50.48 366.918 51.2267 366.918 52.16C366.918 53.0933 366.611 53.84 365.998 54.4C365.385 54.96 364.585 55.24 363.598 55.24ZM377.133 78.44C375.799 78.44 374.733 78.1733 373.933 77.64C373.159 77.08 372.599 76.3067 372.253 75.32C371.906 74.3067 371.733 73.1333 371.733 71.8V50H377.613V72.04C377.613 72.68 377.719 73.12 377.933 73.36C378.173 73.5733 378.426 73.68 378.693 73.68C378.799 73.68 378.893 73.68 378.973 73.68C379.079 73.6533 379.213 73.6267 379.373 73.6L380.093 77.96C379.773 78.0933 379.359 78.2 378.853 78.28C378.373 78.3867 377.799 78.44 377.133 78.44ZM392.058 78.48C390.165 78.48 388.458 78.0667 386.938 77.24C385.418 76.4133 384.218 75.2267 383.338 73.68C382.458 72.1333 382.018 70.2667 382.018 68.08C382.018 65.92 382.458 64.0667 383.338 62.52C384.245 60.9733 385.418 59.7867 386.858 58.96C388.298 58.1067 389.805 57.68 391.378 57.68C393.271 57.68 394.845 58.1067 396.098 58.96C397.351 59.7867 398.285 60.92 398.898 62.36C399.511 63.8 399.818 65.4133 399.818 67.2C399.818 67.7067 399.791 68.2133 399.738 68.72C399.685 69.2 399.631 69.5867 399.578 69.88H386.578L386.498 65.8H394.778C394.778 64.76 394.525 63.9067 394.018 63.24C393.511 62.5467 392.671 62.2 391.498 62.2C390.858 62.2 390.231 62.3733 389.618 62.72C389.005 63.0667 388.498 63.6667 388.098 64.52C387.698 65.3733 387.511 66.56 387.538 68.08C387.565 69.5733 387.831 70.7467 388.338 71.6C388.871 72.4533 389.538 73.0667 390.338 73.44C391.138 73.7867 391.978 73.96 392.858 73.96C393.631 73.96 394.365 73.8533 395.058 73.64C395.778 73.4 396.485 73.08 397.178 72.68L399.098 76.28C398.111 76.9733 396.991 77.52 395.738 77.92C394.485 78.2933 393.258 78.48 392.058 78.48ZM171.04 120.48C168.933 120.48 167.067 119.92 165.44 118.8C163.813 117.653 162.533 116.053 161.6 114C160.667 111.947 160.2 109.52 160.2 106.72C160.2 103.947 160.667 101.547 161.6 99.52C162.533 97.4667 163.813 95.8933 165.44 94.8C167.067 93.7067 168.933 93.16 171.04 93.16C173.147 93.16 175.013 93.7067 176.64 94.8C178.293 95.8933 179.587 97.4667 180.52 99.52C181.453 101.547 181.92 103.947 181.92 106.72C181.92 109.52 181.453 111.947 180.52 114C179.587 116.053 178.293 117.653 176.64 118.8C175.013 119.92 173.147 120.48 171.04 120.48ZM171.04 118.8C172.827 118.8 174.387 118.307 175.72 117.32C177.053 116.307 178.093 114.907 178.84 113.12C179.587 111.307 179.96 109.173 179.96 106.72C179.96 104.293 179.587 102.2 178.84 100.44C178.093 98.6533 177.053 97.28 175.72 96.32C174.387 95.3333 172.827 94.84 171.04 94.84C169.253 94.84 167.693 95.3333 166.36 96.32C165.027 97.28 163.987 98.6533 163.24 100.44C162.493 102.2 162.12 104.293 162.12 106.72C162.12 109.173 162.493 111.307 163.24 113.12C163.987 114.907 165.027 116.307 166.36 117.32C167.693 118.307 169.253 118.8 171.04 118.8ZM188.054 120V97.24C188.054 95.9067 188.254 94.7867 188.654 93.88C189.08 92.9733 189.68 92.2933 190.454 91.84C191.227 91.3867 192.16 91.16 193.254 91.16C193.76 91.16 194.294 91.2267 194.854 91.36C195.44 91.4667 195.987 91.64 196.494 91.88L196.014 93.32C195.534 93.08 195.067 92.92 194.614 92.84C194.187 92.7333 193.734 92.68 193.254 92.68C192.134 92.68 191.28 93.0933 190.694 93.92C190.107 94.72 189.814 95.8667 189.814 97.36V120H188.054ZM198.734 120V96.52C198.734 95.24 198.92 94.1733 199.294 93.32C199.667 92.4667 200.2 91.8267 200.894 91.4C201.587 90.9733 202.44 90.76 203.454 90.76C203.907 90.76 204.374 90.8133 204.854 90.92C205.36 91.0267 205.827 91.1867 206.254 91.4L205.774 92.84C205.4 92.6267 205.014 92.48 204.614 92.4C204.24 92.32 203.867 92.28 203.494 92.28C202.48 92.28 201.72 92.6667 201.214 93.44C200.734 94.1867 200.494 95.2533 200.494 96.64V120H198.734ZM185.214 102.32V100.96L188.054 100.8H204.934V102.32H185.214ZM208.985 120V100.8H210.745V120H208.985ZM209.825 96.16C209.398 96.16 209.038 96.0133 208.745 95.72C208.451 95.4 208.305 95 208.305 94.52C208.305 94.04 208.451 93.6667 208.745 93.4C209.038 93.1067 209.398 92.96 209.825 92.96C210.278 92.96 210.638 93.1067 210.905 93.4C211.198 93.6667 211.345 94.04 211.345 94.52C211.345 95 211.198 95.4 210.905 95.72C210.638 96.0133 210.278 96.16 209.825 96.16ZM225.245 120.48C223.592 120.48 222.099 120.093 220.765 119.32C219.459 118.52 218.419 117.373 217.645 115.88C216.899 114.36 216.525 112.547 216.525 110.44C216.525 108.307 216.925 106.48 217.725 104.96C218.552 103.44 219.632 102.293 220.965 101.52C222.299 100.72 223.739 100.32 225.285 100.32C226.619 100.32 227.725 100.547 228.605 101C229.485 101.427 230.259 101.987 230.925 102.68L229.965 103.76C229.405 103.173 228.739 102.72 227.965 102.4C227.192 102.053 226.312 101.88 225.325 101.88C224.019 101.88 222.845 102.24 221.805 102.96C220.765 103.68 219.925 104.68 219.285 105.96C218.672 107.24 218.365 108.733 218.365 110.44C218.365 112.12 218.645 113.6 219.205 114.88C219.792 116.16 220.605 117.16 221.645 117.88C222.685 118.573 223.912 118.92 225.325 118.92C226.365 118.92 227.325 118.733 228.205 118.36C229.085 117.96 229.832 117.44 230.445 116.8L231.365 117.88C230.565 118.653 229.659 119.28 228.645 119.76C227.632 120.24 226.499 120.48 225.245 120.48ZM236.094 120V100.8H237.854V120H236.094ZM236.934 96.16C236.507 96.16 236.147 96.0133 235.854 95.72C235.561 95.4 235.414 95 235.414 94.52C235.414 94.04 235.561 93.6667 235.854 93.4C236.147 93.1067 236.507 92.96 236.934 92.96C237.387 92.96 237.747 93.1067 238.014 93.4C238.307 93.6667 238.454 94.04 238.454 94.52C238.454 95 238.307 95.4 238.014 95.72C237.747 96.0133 237.387 96.16 236.934 96.16ZM249.435 120.48C248.421 120.48 247.488 120.293 246.635 119.92C245.808 119.547 245.141 118.973 244.635 118.2C244.128 117.4 243.875 116.413 243.875 115.24C243.875 113.08 244.875 111.453 246.875 110.36C248.875 109.24 252.008 108.44 256.275 107.96C256.275 106.973 256.155 106.013 255.915 105.08C255.701 104.147 255.261 103.387 254.595 102.8C253.955 102.187 252.995 101.88 251.715 101.88C250.435 101.88 249.261 102.133 248.195 102.64C247.128 103.12 246.261 103.587 245.595 104.04L244.795 102.8C245.248 102.453 245.835 102.093 246.555 101.72C247.275 101.32 248.088 100.987 248.995 100.72C249.928 100.453 250.915 100.32 251.955 100.32C253.448 100.32 254.635 100.653 255.515 101.32C256.421 101.987 257.061 102.88 257.435 104C257.835 105.12 258.035 106.36 258.035 107.72V120H256.515L256.355 117.52H256.235C255.275 118.293 254.208 118.987 253.035 119.6C251.888 120.187 250.688 120.48 249.435 120.48ZM249.755 118.92C250.848 118.92 251.901 118.667 252.915 118.16C253.955 117.627 255.075 116.853 256.275 115.84V109.36C253.635 109.653 251.541 110.067 249.995 110.6C248.448 111.107 247.341 111.733 246.675 112.48C246.008 113.227 245.675 114.107 245.675 115.12C245.675 116.48 246.075 117.453 246.875 118.04C247.701 118.627 248.661 118.92 249.755 118.92ZM267.243 120.32C266.71 120.32 266.27 120.213 265.923 120C265.576 119.787 265.31 119.453 265.123 119C264.963 118.547 264.883 117.973 264.883 117.28V91.24H266.643V117.52C266.643 117.973 266.723 118.293 266.883 118.48C267.07 118.667 267.296 118.76 267.563 118.76C267.643 118.76 267.723 118.76 267.803 118.76C267.91 118.733 268.043 118.707 268.203 118.68L268.523 120.08C268.336 120.16 268.136 120.213 267.923 120.24C267.736 120.293 267.51 120.32 267.243 120.32ZM285.343 120L279.663 100.8H281.583L285.023 113.24C285.263 114.12 285.49 114.973 285.703 115.8C285.943 116.627 286.156 117.493 286.343 118.4H286.503C286.716 117.493 286.943 116.627 287.183 115.8C287.423 114.973 287.65 114.12 287.863 113.24L291.343 100.8H293.543L297.023 113.24C297.263 114.12 297.49 114.973 297.703 115.8C297.943 116.627 298.183 117.493 298.423 118.4H298.583C298.796 117.493 299.01 116.627 299.223 115.8C299.463 114.973 299.703 114.12 299.943 113.24L303.343 100.8H305.143L299.623 120H297.263L293.903 108.08C293.663 107.147 293.423 106.24 293.183 105.36C292.97 104.453 292.73 103.52 292.463 102.56H292.303C292.09 103.52 291.863 104.467 291.623 105.4C291.383 106.307 291.116 107.227 290.823 108.16L287.543 120H285.343ZM317.007 120.48C315.354 120.48 313.86 120.08 312.527 119.28C311.194 118.48 310.127 117.333 309.327 115.84C308.527 114.32 308.127 112.52 308.127 110.44C308.127 108.333 308.527 106.533 309.327 105.04C310.127 103.52 311.154 102.36 312.407 101.56C313.687 100.733 315.047 100.32 316.487 100.32C318.007 100.32 319.314 100.667 320.407 101.36C321.527 102.053 322.38 103.067 322.967 104.4C323.554 105.707 323.847 107.307 323.847 109.2C323.847 109.413 323.834 109.653 323.807 109.92C323.807 110.16 323.78 110.413 323.727 110.68H309.207V109.16H322.167C322.167 106.707 321.66 104.88 320.647 103.68C319.634 102.453 318.26 101.84 316.527 101.84C315.46 101.84 314.42 102.147 313.407 102.76C312.394 103.373 311.554 104.32 310.887 105.6C310.247 106.853 309.927 108.44 309.927 110.36C309.927 112.12 310.247 113.653 310.887 114.96C311.527 116.24 312.394 117.227 313.487 117.92C314.58 118.587 315.807 118.92 317.167 118.92C318.207 118.92 319.154 118.787 320.007 118.52C320.887 118.227 321.66 117.84 322.327 117.36L323.047 118.6C322.3 119.107 321.46 119.547 320.527 119.92C319.594 120.293 318.42 120.48 317.007 120.48ZM336.583 120.48C335.676 120.48 334.716 120.267 333.703 119.84C332.716 119.387 331.756 118.787 330.823 118.04H330.743L330.543 120H329.063V91.24H330.823V99.56L330.743 103.32C331.729 102.493 332.783 101.787 333.903 101.2C335.049 100.613 336.196 100.32 337.343 100.32C339.076 100.32 340.503 100.72 341.623 101.52C342.769 102.32 343.623 103.453 344.183 104.92C344.769 106.387 345.063 108.12 345.063 110.12C345.063 112.28 344.663 114.133 343.863 115.68C343.089 117.227 342.063 118.413 340.783 119.24C339.503 120.067 338.103 120.48 336.583 120.48ZM336.503 118.92C337.809 118.92 338.956 118.547 339.943 117.8C340.956 117.053 341.743 116.027 342.303 114.72C342.889 113.387 343.183 111.853 343.183 110.12C343.183 108.547 342.983 107.147 342.583 105.92C342.183 104.667 341.529 103.68 340.623 102.96C339.743 102.24 338.569 101.88 337.103 101.88C336.143 101.88 335.143 102.147 334.103 102.68C333.063 103.213 331.969 104 330.823 105.04V116.44C331.889 117.347 332.916 117.987 333.903 118.36C334.916 118.733 335.783 118.92 336.503 118.92ZM355.343 120.48C353.85 120.48 352.503 120.24 351.303 119.76C350.13 119.28 349.13 118.627 348.303 117.8L349.263 116.68C350.063 117.373 350.93 117.933 351.863 118.36C352.823 118.76 354.023 118.96 355.463 118.96C356.957 118.96 358.09 118.587 358.863 117.84C359.637 117.067 360.023 116.173 360.023 115.16C360.023 114.36 359.783 113.707 359.303 113.2C358.85 112.667 358.263 112.227 357.543 111.88C356.823 111.507 356.09 111.187 355.343 110.92C354.357 110.573 353.41 110.187 352.503 109.76C351.597 109.307 350.85 108.747 350.263 108.08C349.677 107.387 349.383 106.507 349.383 105.44C349.383 104.027 349.917 102.827 350.983 101.84C352.05 100.827 353.57 100.32 355.543 100.32C356.637 100.32 357.65 100.507 358.583 100.88C359.543 101.253 360.37 101.733 361.063 102.32L360.103 103.4C359.463 102.947 358.783 102.573 358.063 102.28C357.343 101.987 356.49 101.84 355.503 101.84C354.01 101.84 352.903 102.2 352.183 102.92C351.49 103.64 351.143 104.44 351.143 105.32C351.143 106.04 351.343 106.64 351.743 107.12C352.17 107.573 352.717 107.96 353.383 108.28C354.05 108.6 354.77 108.907 355.543 109.2C356.557 109.6 357.543 110.013 358.503 110.44C359.49 110.867 360.29 111.44 360.903 112.16C361.517 112.853 361.823 113.827 361.823 115.08C361.823 116.04 361.57 116.933 361.063 117.76C360.583 118.56 359.85 119.213 358.863 119.72C357.903 120.227 356.73 120.48 355.343 120.48ZM366.914 120V100.8H368.674V120H366.914ZM367.754 96.16C367.328 96.16 366.968 96.0133 366.674 95.72C366.381 95.4 366.234 95 366.234 94.52C366.234 94.04 366.381 93.6667 366.674 93.4C366.968 93.1067 367.328 92.96 367.754 92.96C368.208 92.96 368.568 93.1067 368.834 93.4C369.128 93.6667 369.274 94.04 369.274 94.52C369.274 95 369.128 95.4 368.834 95.72C368.568 96.0133 368.208 96.16 367.754 96.16ZM381.295 120.32C379.428 120.32 378.162 119.787 377.495 118.72C376.828 117.653 376.495 116.267 376.495 114.56V102.32H373.495V100.96L376.535 100.8L376.775 94.44H378.295V100.8H383.855V102.32H378.295V114.68C378.295 115.907 378.508 116.907 378.935 117.68C379.362 118.427 380.228 118.8 381.535 118.8C381.908 118.8 382.282 118.76 382.655 118.68C383.055 118.573 383.482 118.413 383.935 118.2L384.495 119.44C383.988 119.707 383.455 119.92 382.895 120.08C382.335 120.24 381.802 120.32 381.295 120.32ZM395.366 120.48C393.713 120.48 392.22 120.08 390.886 119.28C389.553 118.48 388.486 117.333 387.686 115.84C386.886 114.32 386.486 112.52 386.486 110.44C386.486 108.333 386.886 106.533 387.686 105.04C388.486 103.52 389.513 102.36 390.766 101.56C392.046 100.733 393.406 100.32 394.846 100.32C396.366 100.32 397.673 100.667 398.766 101.36C399.886 102.053 400.74 103.067 401.326 104.4C401.913 105.707 402.206 107.307 402.206 109.2C402.206 109.413 402.193 109.653 402.166 109.92C402.166 110.16 402.14 110.413 402.086 110.68H387.566V109.16H400.526C400.526 106.707 400.02 104.88 399.006 103.68C397.993 102.453 396.62 101.84 394.886 101.84C393.82 101.84 392.78 102.147 391.766 102.76C390.753 103.373 389.913 104.32 389.246 105.6C388.606 106.853 388.286 108.44 388.286 110.36C388.286 112.12 388.606 113.653 389.246 114.96C389.886 116.24 390.753 117.227 391.846 117.92C392.94 118.587 394.166 118.92 395.526 118.92C396.566 118.92 397.513 118.787 398.366 118.52C399.246 118.227 400.02 117.84 400.686 117.36L401.406 118.6C400.66 119.107 399.82 119.547 398.886 119.92C397.953 120.293 396.78 120.48 395.366 120.48Z" fill="white"/>
<path d="M121.5 97.5V111.5C121.5 113.357 120.763 115.137 119.45 116.45C118.137 117.763 116.357 118.5 114.5 118.5H65.5C63.6435 118.5 61.863 117.763 60.5503 116.45C59.2375 115.137 58.5 113.357 58.5 111.5V97.5" stroke="#CBCBCB" stroke-width="6" stroke-linecap="round" stroke-linejoin="round"/>
<path d="M72.5 80L90 97.5L107.5 80" stroke="#CBCBCB" stroke-width="6" stroke-linecap="round" stroke-linejoin="round"/>
<path d="M90 97.5V55.5" stroke="#CBCBCB" stroke-width="6" stroke-linecap="round" stroke-linejoin="round"/>
</svg>
