<svg width="500" height="174" viewBox="0 0 500 174" fill="none" xmlns="http://www.w3.org/2000/svg">
<rect x="12" y="12" width="476" height="150" rx="32" fill="black" fill-opacity="0.5"/>
<path d="M161.08 78V51.92H168.44C171.107 51.92 173.413 52.3733 175.36 53.28C177.333 54.1867 178.853 55.6 179.92 57.52C180.987 59.4133 181.52 61.8533 181.52 64.84C181.52 67.8267 180.987 70.2933 179.92 72.24C178.853 74.1867 177.36 75.64 175.44 76.6C173.547 77.5333 171.333 78 168.8 78H161.08ZM166.96 73.24H168.08C169.573 73.24 170.867 72.9733 171.96 72.44C173.08 71.9067 173.947 71.0267 174.56 69.8C175.173 68.5733 175.48 66.92 175.48 64.84C175.48 62.76 175.173 61.1333 174.56 59.96C173.947 58.76 173.08 57.92 171.96 57.44C170.867 56.9333 169.573 56.68 168.08 56.68H166.96V73.24ZM194.511 78.48C192.831 78.48 191.257 78.08 189.791 77.28C188.324 76.4533 187.124 75.2667 186.191 73.72C185.284 72.1467 184.831 70.2667 184.831 68.08C184.831 65.8933 185.284 64.0267 186.191 62.48C187.124 60.9067 188.324 59.72 189.791 58.92C191.257 58.0933 192.831 57.68 194.511 57.68C196.164 57.68 197.724 58.0933 199.191 58.92C200.657 59.72 201.844 60.9067 202.751 62.48C203.684 64.0267 204.151 65.8933 204.151 68.08C204.151 70.2667 203.684 72.1467 202.751 73.72C201.844 75.2667 200.657 76.4533 199.191 77.28C197.724 78.08 196.164 78.48 194.511 78.48ZM194.511 73.72C195.311 73.72 195.977 73.4933 196.511 73.04C197.071 72.5867 197.484 71.9333 197.751 71.08C198.017 70.2267 198.151 69.2267 198.151 68.08C198.151 66.9333 198.017 65.9333 197.751 65.08C197.484 64.2267 197.071 63.5733 196.511 63.12C195.977 62.6667 195.311 62.44 194.511 62.44C193.684 62.44 193.004 62.6667 192.471 63.12C191.937 63.5733 191.537 64.2267 191.271 65.08C191.004 65.9333 190.871 66.9333 190.871 68.08C190.871 69.2267 191.004 70.2267 191.271 71.08C191.537 71.9333 191.937 72.5867 192.471 73.04C193.004 73.4933 193.684 73.72 194.511 73.72ZM211.186 78L206.226 58.16H212.106L213.986 67.36C214.172 68.2933 214.332 69.2533 214.466 70.24C214.599 71.2 214.732 72.2267 214.866 73.32H215.026C215.212 72.2267 215.386 71.1867 215.546 70.2C215.732 69.2133 215.932 68.2667 216.146 67.36L218.226 58.16H223.586L225.786 67.36C225.999 68.2933 226.199 69.2533 226.386 70.24C226.572 71.2 226.759 72.2267 226.946 73.32H227.106C227.292 72.2267 227.439 71.2 227.546 70.24C227.679 69.2533 227.826 68.2933 227.986 67.36L229.866 58.16H235.346L230.586 78H223.506L221.826 70.08C221.666 69.1733 221.492 68.2667 221.306 67.36C221.146 66.4267 220.986 65.36 220.826 64.16H220.666C220.559 65.36 220.426 66.4267 220.266 67.36C220.106 68.2667 219.932 69.1733 219.746 70.08L218.106 78H211.186ZM238.92 78V58.16H243.72L244.12 60.68H244.28C245.107 59.8533 246.04 59.1467 247.08 58.56C248.12 57.9733 249.307 57.68 250.64 57.68C252.827 57.68 254.4 58.4 255.36 59.84C256.32 61.2533 256.8 63.2 256.8 65.68V78H250.92V66.44C250.92 65 250.72 64.0133 250.32 63.48C249.947 62.9467 249.334 62.68 248.48 62.68C247.734 62.68 247.094 62.8533 246.56 63.2C246.027 63.52 245.44 63.9867 244.8 64.6V78H238.92ZM267.211 78.44C265.878 78.44 264.811 78.1733 264.011 77.64C263.238 77.08 262.678 76.3067 262.331 75.32C261.984 74.3067 261.811 73.1333 261.811 71.8V50H267.691V72.04C267.691 72.68 267.798 73.12 268.011 73.36C268.251 73.5733 268.504 73.68 268.771 73.68C268.878 73.68 268.971 73.68 269.051 73.68C269.158 73.6533 269.291 73.6267 269.451 73.6L270.171 77.96C269.851 78.0933 269.438 78.2 268.931 78.28C268.451 78.3867 267.878 78.44 267.211 78.44ZM281.776 78.48C280.096 78.48 278.523 78.08 277.056 77.28C275.59 76.4533 274.39 75.2667 273.456 73.72C272.55 72.1467 272.096 70.2667 272.096 68.08C272.096 65.8933 272.55 64.0267 273.456 62.48C274.39 60.9067 275.59 59.72 277.056 58.92C278.523 58.0933 280.096 57.68 281.776 57.68C283.43 57.68 284.99 58.0933 286.456 58.92C287.923 59.72 289.11 60.9067 290.016 62.48C290.95 64.0267 291.416 65.8933 291.416 68.08C291.416 70.2667 290.95 72.1467 290.016 73.72C289.11 75.2667 287.923 76.4533 286.456 77.28C284.99 78.08 283.43 78.48 281.776 78.48ZM281.776 73.72C282.576 73.72 283.243 73.4933 283.776 73.04C284.336 72.5867 284.75 71.9333 285.016 71.08C285.283 70.2267 285.416 69.2267 285.416 68.08C285.416 66.9333 285.283 65.9333 285.016 65.08C284.75 64.2267 284.336 63.5733 283.776 63.12C283.243 62.6667 282.576 62.44 281.776 62.44C280.95 62.44 280.27 62.6667 279.736 63.12C279.203 63.5733 278.803 64.2267 278.536 65.08C278.27 65.9333 278.136 66.9333 278.136 68.08C278.136 69.2267 278.27 70.2267 278.536 71.08C278.803 71.9333 279.203 72.5867 279.736 73.04C280.27 73.4933 280.95 73.72 281.776 73.72ZM300.014 78.48C298.814 78.48 297.761 78.2133 296.854 77.68C295.974 77.1467 295.294 76.4267 294.814 75.52C294.334 74.6133 294.094 73.6 294.094 72.48C294.094 70.3467 294.974 68.7067 296.734 67.56C298.494 66.3867 301.334 65.6 305.254 65.2C305.227 64.6133 305.094 64.12 304.854 63.72C304.641 63.2933 304.307 62.9733 303.854 62.76C303.401 62.52 302.827 62.4 302.134 62.4C301.307 62.4 300.467 62.5467 299.614 62.84C298.761 63.1333 297.841 63.56 296.854 64.12L294.774 60.28C295.627 59.7467 296.507 59.2933 297.414 58.92C298.321 58.52 299.254 58.2133 300.214 58C301.201 57.7867 302.214 57.68 303.254 57.68C304.961 57.68 306.387 58.0133 307.534 58.68C308.707 59.32 309.601 60.3067 310.214 61.64C310.827 62.9467 311.134 64.6267 311.134 66.68V78H306.334L305.934 75.96H305.774C304.921 76.7067 304.027 77.32 303.094 77.8C302.161 78.2533 301.134 78.48 300.014 78.48ZM301.974 73.88C302.641 73.88 303.227 73.7333 303.734 73.44C304.241 73.1467 304.747 72.7467 305.254 72.24V68.88C303.867 69.0667 302.761 69.3067 301.934 69.6C301.134 69.8933 300.561 70.2533 300.214 70.68C299.894 71.08 299.734 71.5333 299.734 72.04C299.734 72.6533 299.934 73.12 300.334 73.44C300.761 73.7333 301.307 73.88 301.974 73.88ZM323.188 78.48C320.734 78.48 318.761 77.56 317.268 75.72C315.801 73.8533 315.068 71.3067 315.068 68.08C315.068 65.92 315.454 64.0667 316.228 62.52C317.028 60.9733 318.054 59.7867 319.308 58.96C320.588 58.1067 321.921 57.68 323.308 57.68C324.401 57.68 325.321 57.8667 326.068 58.24C326.814 58.6133 327.521 59.12 328.188 59.76L327.948 56.72V49.96H333.828V78H329.028L328.628 76.04H328.468C327.774 76.7333 326.961 77.32 326.028 77.8C325.094 78.2533 324.148 78.48 323.188 78.48ZM324.708 73.68C325.348 73.68 325.934 73.5467 326.468 73.28C327.001 73.0133 327.494 72.5467 327.948 71.88V63.76C327.441 63.28 326.908 62.9467 326.348 62.76C325.788 62.5733 325.228 62.48 324.668 62.48C324.028 62.48 323.441 62.68 322.908 63.08C322.374 63.48 321.934 64.0933 321.588 64.92C321.268 65.72 321.108 66.7467 321.108 68C321.108 69.9467 321.428 71.3867 322.068 72.32C322.708 73.2267 323.588 73.68 324.708 73.68ZM348.045 78V57.12C348.045 55.7067 348.272 54.4267 348.725 53.28C349.205 52.1333 349.979 51.2133 351.045 50.52C352.139 49.8267 353.579 49.48 355.365 49.48C356.192 49.48 356.952 49.56 357.645 49.72C358.339 49.88 358.899 50.04 359.325 50.2L358.165 54.4C357.499 54.2133 356.845 54.12 356.205 54.12C355.485 54.12 354.925 54.3467 354.525 54.8C354.125 55.2267 353.925 55.9467 353.925 56.96V78H348.045ZM345.125 62.76V58.4L348.445 58.16H357.485V62.76H345.125ZM360.678 78V58.16H366.558V78H360.678ZM363.598 55.24C362.611 55.24 361.811 54.96 361.198 54.4C360.585 53.84 360.278 53.0933 360.278 52.16C360.278 51.2267 360.585 50.48 361.198 49.92C361.811 49.36 362.611 49.08 363.598 49.08C364.585 49.08 365.385 49.36 365.998 49.92C366.611 50.48 366.918 51.2267 366.918 52.16C366.918 53.0933 366.611 53.84 365.998 54.4C365.385 54.96 364.585 55.24 363.598 55.24ZM377.133 78.44C375.799 78.44 374.733 78.1733 373.933 77.64C373.159 77.08 372.599 76.3067 372.253 75.32C371.906 74.3067 371.733 73.1333 371.733 71.8V50H377.613V72.04C377.613 72.68 377.719 73.12 377.933 73.36C378.173 73.5733 378.426 73.68 378.693 73.68C378.799 73.68 378.893 73.68 378.973 73.68C379.079 73.6533 379.213 73.6267 379.373 73.6L380.093 77.96C379.773 78.0933 379.359 78.2 378.853 78.28C378.373 78.3867 377.799 78.44 377.133 78.44ZM392.058 78.48C390.165 78.48 388.458 78.0667 386.938 77.24C385.418 76.4133 384.218 75.2267 383.338 73.68C382.458 72.1333 382.018 70.2667 382.018 68.08C382.018 65.92 382.458 64.0667 383.338 62.52C384.245 60.9733 385.418 59.7867 386.858 58.96C388.298 58.1067 389.805 57.68 391.378 57.68C393.271 57.68 394.845 58.1067 396.098 58.96C397.351 59.7867 398.285 60.92 398.898 62.36C399.511 63.8 399.818 65.4133 399.818 67.2C399.818 67.7067 399.791 68.2133 399.738 68.72C399.685 69.2 399.631 69.5867 399.578 69.88H386.578L386.498 65.8H394.778C394.778 64.76 394.525 63.9067 394.018 63.24C393.511 62.5467 392.671 62.2 391.498 62.2C390.858 62.2 390.231 62.3733 389.618 62.72C389.005 63.0667 388.498 63.6667 388.098 64.52C387.698 65.3733 387.511 66.56 387.538 68.08C387.565 69.5733 387.831 70.7467 388.338 71.6C388.871 72.4533 389.538 73.0667 390.338 73.44C391.138 73.7867 391.978 73.96 392.858 73.96C393.631 73.96 394.365 73.8533 395.058 73.64C395.778 73.4 396.485 73.08 397.178 72.68L399.098 76.28C398.111 76.9733 396.991 77.52 395.738 77.92C394.485 78.2933 393.258 78.48 392.058 78.48ZM164.64 120L158.96 100.8H160.88L164.32 113.24C164.56 114.12 164.787 114.973 165 115.8C165.24 116.627 165.453 117.493 165.64 118.4H165.8C166.013 117.493 166.24 116.627 166.48 115.8C166.72 114.973 166.947 114.12 167.16 113.24L170.64 100.8H172.84L176.32 113.24C176.56 114.12 176.787 114.973 177 115.8C177.24 116.627 177.48 117.493 177.72 118.4H177.88C178.093 117.493 178.307 116.627 178.52 115.8C178.76 114.973 179 114.12 179.24 113.24L182.64 100.8H184.44L178.92 120H176.56L173.2 108.08C172.96 107.147 172.72 106.24 172.48 105.36C172.267 104.453 172.027 103.52 171.76 102.56H171.6C171.387 103.52 171.16 104.467 170.92 105.4C170.68 106.307 170.413 107.227 170.12 108.16L166.84 120H164.64ZM196.024 120.48C194.504 120.48 193.077 120.093 191.744 119.32C190.437 118.52 189.384 117.373 188.584 115.88C187.81 114.36 187.424 112.547 187.424 110.44C187.424 108.307 187.81 106.48 188.584 104.96C189.384 103.44 190.437 102.293 191.744 101.52C193.077 100.72 194.504 100.32 196.024 100.32C197.57 100.32 198.997 100.72 200.304 101.52C201.61 102.293 202.664 103.44 203.464 104.96C204.264 106.48 204.664 108.307 204.664 110.44C204.664 112.547 204.264 114.36 203.464 115.88C202.664 117.373 201.61 118.52 200.304 119.32C198.997 120.093 197.57 120.48 196.024 120.48ZM196.024 118.92C197.33 118.92 198.49 118.573 199.504 117.88C200.544 117.16 201.357 116.16 201.944 114.88C202.53 113.6 202.824 112.12 202.824 110.44C202.824 108.76 202.53 107.28 201.944 106C201.357 104.693 200.544 103.68 199.504 102.96C198.49 102.24 197.33 101.88 196.024 101.88C194.744 101.88 193.597 102.24 192.584 102.96C191.57 103.68 190.757 104.693 190.144 106C189.557 107.28 189.264 108.76 189.264 110.44C189.264 112.12 189.557 113.6 190.144 114.88C190.757 116.16 191.57 117.16 192.584 117.88C193.597 118.573 194.744 118.92 196.024 118.92ZM210.43 120V100.8H211.95L212.11 104.36H212.23C212.843 103.187 213.603 102.227 214.51 101.48C215.443 100.707 216.497 100.32 217.67 100.32C218.017 100.32 218.337 100.347 218.63 100.4C218.95 100.453 219.27 100.56 219.59 100.72L219.11 102.24C218.843 102.16 218.59 102.107 218.35 102.08C218.137 102.027 217.83 102 217.43 102C216.577 102 215.67 102.373 214.71 103.12C213.777 103.84 212.937 105.107 212.19 106.92V120H210.43ZM223.125 120V91.24H224.885V112.44H224.965L234.445 100.8H236.485L230.245 108.4L237.525 120H235.565L229.205 109.72L224.885 114.76V120H223.125ZM248.491 120.48C246.838 120.48 245.345 120.08 244.011 119.28C242.678 118.48 241.611 117.333 240.811 115.84C240.011 114.32 239.611 112.52 239.611 110.44C239.611 108.333 240.011 106.533 240.811 105.04C241.611 103.52 242.638 102.36 243.891 101.56C245.171 100.733 246.531 100.32 247.971 100.32C249.491 100.32 250.798 100.667 251.891 101.36C253.011 102.053 253.865 103.067 254.451 104.4C255.038 105.707 255.331 107.307 255.331 109.2C255.331 109.413 255.318 109.653 255.291 109.92C255.291 110.16 255.265 110.413 255.211 110.68H240.691V109.16H253.651C253.651 106.707 253.145 104.88 252.131 103.68C251.118 102.453 249.745 101.84 248.011 101.84C246.945 101.84 245.905 102.147 244.891 102.76C243.878 103.373 243.038 104.32 242.371 105.6C241.731 106.853 241.411 108.44 241.411 110.36C241.411 112.12 241.731 113.653 242.371 114.96C243.011 116.24 243.878 117.227 244.971 117.92C246.065 118.587 247.291 118.92 248.651 118.92C249.691 118.92 250.638 118.787 251.491 118.52C252.371 118.227 253.145 117.84 253.811 117.36L254.531 118.6C253.785 119.107 252.945 119.547 252.011 119.92C251.078 120.293 249.905 120.48 248.491 120.48ZM260.547 120V100.8H262.067L262.227 104.36H262.347C262.961 103.187 263.721 102.227 264.627 101.48C265.561 100.707 266.614 100.32 267.787 100.32C268.134 100.32 268.454 100.347 268.747 100.4C269.067 100.453 269.387 100.56 269.707 100.72L269.227 102.24C268.961 102.16 268.707 102.107 268.467 102.08C268.254 102.027 267.947 102 267.547 102C266.694 102 265.787 102.373 264.827 103.12C263.894 103.84 263.054 105.107 262.307 106.92V120H260.547ZM277.843 120.48C276.35 120.48 275.003 120.24 273.803 119.76C272.63 119.28 271.63 118.627 270.803 117.8L271.763 116.68C272.563 117.373 273.43 117.933 274.363 118.36C275.323 118.76 276.523 118.96 277.963 118.96C279.457 118.96 280.59 118.587 281.363 117.84C282.137 117.067 282.523 116.173 282.523 115.16C282.523 114.36 282.283 113.707 281.803 113.2C281.35 112.667 280.763 112.227 280.043 111.88C279.323 111.507 278.59 111.187 277.843 110.92C276.857 110.573 275.91 110.187 275.003 109.76C274.097 109.307 273.35 108.747 272.763 108.08C272.177 107.387 271.883 106.507 271.883 105.44C271.883 104.027 272.417 102.827 273.483 101.84C274.55 100.827 276.07 100.32 278.043 100.32C279.137 100.32 280.15 100.507 281.083 100.88C282.043 101.253 282.87 101.733 283.563 102.32L282.603 103.4C281.963 102.947 281.283 102.573 280.563 102.28C279.843 101.987 278.99 101.84 278.003 101.84C276.51 101.84 275.403 102.2 274.683 102.92C273.99 103.64 273.643 104.44 273.643 105.32C273.643 106.04 273.843 106.64 274.243 107.12C274.67 107.573 275.217 107.96 275.883 108.28C276.55 108.6 277.27 108.907 278.043 109.2C279.057 109.6 280.043 110.013 281.003 110.44C281.99 110.867 282.79 111.44 283.403 112.16C284.017 112.853 284.323 113.827 284.323 115.08C284.323 116.04 284.07 116.933 283.563 117.76C283.083 118.56 282.35 119.213 281.363 119.72C280.403 120.227 279.23 120.48 277.843 120.48ZM290.134 120.48C289.708 120.48 289.308 120.32 288.934 120C288.588 119.68 288.414 119.24 288.414 118.68C288.414 118.093 288.588 117.64 288.934 117.32C289.308 117 289.708 116.84 290.134 116.84C290.588 116.84 290.974 117 291.294 117.32C291.641 117.64 291.814 118.093 291.814 118.68C291.814 119.24 291.641 119.68 291.294 120C290.974 120.32 290.588 120.48 290.134 120.48ZM304.056 120.48C301.656 120.48 299.722 119.613 298.256 117.88C296.816 116.147 296.096 113.667 296.096 110.44C296.096 108.36 296.482 106.573 297.256 105.08C298.056 103.56 299.096 102.387 300.376 101.56C301.682 100.733 303.096 100.32 304.616 100.32C305.789 100.32 306.816 100.52 307.696 100.92C308.576 101.32 309.482 101.907 310.416 102.68L310.336 99.16V91.24H312.096V120H310.576L310.416 117.52H310.296C309.522 118.293 308.602 118.987 307.536 119.6C306.496 120.187 305.336 120.48 304.056 120.48ZM304.296 118.92C305.362 118.92 306.376 118.653 307.336 118.12C308.322 117.56 309.322 116.773 310.336 115.76V104.36C309.322 103.453 308.376 102.813 307.496 102.44C306.616 102.067 305.696 101.88 304.736 101.88C303.456 101.88 302.309 102.253 301.296 103C300.282 103.747 299.469 104.773 298.856 106.08C298.269 107.36 297.976 108.813 297.976 110.44C297.976 112.973 298.522 115.027 299.616 116.6C300.709 118.147 302.269 118.92 304.296 118.92ZM326.733 120.48C325.08 120.48 323.587 120.08 322.253 119.28C320.92 118.48 319.853 117.333 319.053 115.84C318.253 114.32 317.853 112.52 317.853 110.44C317.853 108.333 318.253 106.533 319.053 105.04C319.853 103.52 320.88 102.36 322.133 101.56C323.413 100.733 324.773 100.32 326.213 100.32C327.733 100.32 329.04 100.667 330.133 101.36C331.253 102.053 332.107 103.067 332.693 104.4C333.28 105.707 333.573 107.307 333.573 109.2C333.573 109.413 333.56 109.653 333.533 109.92C333.533 110.16 333.507 110.413 333.453 110.68H318.933V109.16H331.893C331.893 106.707 331.387 104.88 330.373 103.68C329.36 102.453 327.987 101.84 326.253 101.84C325.187 101.84 324.147 102.147 323.133 102.76C322.12 103.373 321.28 104.32 320.613 105.6C319.973 106.853 319.653 108.44 319.653 110.36C319.653 112.12 319.973 113.653 320.613 114.96C321.253 116.24 322.12 117.227 323.213 117.92C324.307 118.587 325.533 118.92 326.893 118.92C327.933 118.92 328.88 118.787 329.733 118.52C330.613 118.227 331.387 117.84 332.053 117.36L332.773 118.6C332.027 119.107 331.187 119.547 330.253 119.92C329.32 120.293 328.147 120.48 326.733 120.48ZM343.258 120L336.058 100.8H337.978L342.298 112.84C342.591 113.747 342.911 114.68 343.258 115.64C343.605 116.573 343.925 117.48 344.218 118.36H344.378C344.698 117.48 345.018 116.573 345.338 115.64C345.685 114.68 346.018 113.747 346.338 112.84L350.658 100.8H352.458L345.338 120H343.258Z" fill="white"/>
<path d="M121.5 97.5V111.5C121.5 113.357 120.763 115.137 119.45 116.45C118.137 117.763 116.357 118.5 114.5 118.5H65.5C63.6435 118.5 61.863 117.763 60.5503 116.45C59.2375 115.137 58.5 113.357 58.5 111.5V97.5" stroke="#CBCBCB" stroke-width="6" stroke-linecap="round" stroke-linejoin="round"/>
<path d="M72.5 80L90 97.5L107.5 80" stroke="#CBCBCB" stroke-width="6" stroke-linecap="round" stroke-linejoin="round"/>
<path d="M90 97.5V55.5" stroke="#CBCBCB" stroke-width="6" stroke-linecap="round" stroke-linejoin="round"/>
</svg>
