<svg width="500" height="174" viewBox="0 0 500 174" fill="none" xmlns="http://www.w3.org/2000/svg">
<rect x="12" y="12" width="476" height="150" rx="32" fill="black" fill-opacity="0.5"/>
<path fill-rule="evenodd" clip-rule="evenodd" d="M82.6154 51H97.2308C105.538 51 126 53.6098 126 78.1727V95.8273C125.385 120.083 107.692 123 97.2308 123H82.6154C73.5384 123 54 119.408 54 95.8273V87V78.1727C54 69.1151 57.5384 51 82.6154 51ZM68.1538 100.74H74.923V78.6332H87.0769C91.5076 78.6332 92.7179 81.7036 92.7692 83.2388V100.74H99.2307C99.282 97.3113 99.3538 88.7654 99.2307 82.0106C99.1076 75.2558 93.8461 73.2601 91.2307 73.1066H68.1538V100.74ZM87.2307 83.5458H80.4615V100.74H87.2307V83.5458ZM104.769 73.1066H111.538V100.74H104.769V73.1066Z" fill="#D9D9D9"/>
<path d="M169.04 99.48C167.307 99.48 165.6 99.1733 163.92 98.56C162.24 97.92 160.733 96.96 159.4 95.68L162.52 91.84C163.453 92.64 164.507 93.2667 165.68 93.72C166.88 94.1733 168.053 94.4 169.2 94.4C170.427 94.4 171.333 94.1733 171.92 93.72C172.533 93.2667 172.84 92.6533 172.84 91.88C172.84 91.32 172.68 90.88 172.36 90.56C172.067 90.2133 171.64 89.9067 171.08 89.64C170.52 89.3733 169.853 89.08 169.08 88.76L165.68 87.36C164.8 86.96 163.947 86.4533 163.12 85.84C162.32 85.2 161.667 84.4267 161.16 83.52C160.68 82.5867 160.44 81.48 160.44 80.2C160.44 78.76 160.827 77.4667 161.6 76.32C162.4 75.1467 163.493 74.2133 164.88 73.52C166.293 72.8 167.907 72.44 169.72 72.44C171.293 72.44 172.813 72.72 174.28 73.28C175.747 73.84 177.027 74.6533 178.12 75.72L175 79.52C174.147 78.88 173.267 78.3867 172.36 78.04C171.48 77.6933 170.6 77.52 169.72 77.52C168.707 77.52 167.893 77.7333 167.28 78.16C166.693 78.56 166.4 79.1333 166.4 79.88C166.4 80.3867 166.573 80.8267 166.92 81.2C167.267 81.5467 167.747 81.8533 168.36 82.12C168.973 82.36 169.64 82.64 170.36 82.96L173.72 84.32C174.787 84.7467 175.693 85.28 176.44 85.92C177.213 86.56 177.813 87.3333 178.24 88.24C178.667 89.12 178.88 90.1733 178.88 91.4C178.88 92.84 178.493 94.1733 177.72 95.4C176.947 96.6267 175.827 97.6133 174.36 98.36C172.893 99.1067 171.12 99.48 169.04 99.48ZM189.373 99.44C186.919 99.44 185.159 98.7333 184.093 97.32C183.026 95.88 182.493 94.0267 182.493 91.76V83.76H179.813V79.4L182.853 79.16L183.533 73.08H188.413V79.16H193.173V83.76H188.413V91.68C188.413 92.8 188.639 93.6133 189.093 94.12C189.573 94.6 190.199 94.84 190.973 94.84C191.293 94.84 191.613 94.8133 191.933 94.76C192.253 94.7067 192.559 94.6267 192.853 94.52L193.813 98.64C193.306 98.8533 192.666 99.04 191.893 99.2C191.146 99.36 190.306 99.44 189.373 99.44ZM204.862 99.48C203.182 99.48 201.609 99.08 200.142 98.28C198.676 97.4533 197.476 96.2667 196.542 94.72C195.636 93.1467 195.182 91.2667 195.182 89.08C195.182 86.8933 195.636 85.0267 196.542 83.48C197.476 81.9067 198.676 80.72 200.142 79.92C201.609 79.0933 203.182 78.68 204.862 78.68C206.516 78.68 208.076 79.0933 209.542 79.92C211.009 80.72 212.196 81.9067 213.102 83.48C214.036 85.0267 214.502 86.8933 214.502 89.08C214.502 91.2667 214.036 93.1467 213.102 94.72C212.196 96.2667 211.009 97.4533 209.542 98.28C208.076 99.08 206.516 99.48 204.862 99.48ZM204.862 94.72C205.662 94.72 206.329 94.4933 206.862 94.04C207.422 93.5867 207.836 92.9333 208.102 92.08C208.369 91.2267 208.502 90.2267 208.502 89.08C208.502 87.9333 208.369 86.9333 208.102 86.08C207.836 85.2267 207.422 84.5733 206.862 84.12C206.329 83.6667 205.662 83.44 204.862 83.44C204.036 83.44 203.356 83.6667 202.822 84.12C202.289 84.5733 201.889 85.2267 201.622 86.08C201.356 86.9333 201.222 87.9333 201.222 89.08C201.222 90.2267 201.356 91.2267 201.622 92.08C201.889 92.9333 202.289 93.5867 202.822 94.04C203.356 94.4933 204.036 94.72 204.862 94.72ZM227.29 99.48C225.423 99.48 223.73 99.0667 222.21 98.24C220.716 97.4133 219.53 96.2267 218.65 94.68C217.796 93.1333 217.37 91.2667 217.37 89.08C217.37 86.8933 217.85 85.0267 218.81 83.48C219.77 81.9333 221.036 80.7467 222.61 79.92C224.183 79.0933 225.876 78.68 227.69 78.68C228.916 78.68 230.01 78.88 230.97 79.28C231.956 79.6533 232.796 80.16 233.49 80.8L230.73 84.44C230.383 84.1467 229.983 83.9067 229.53 83.72C229.103 83.5333 228.61 83.44 228.05 83.44C227.116 83.44 226.303 83.6667 225.61 84.12C224.916 84.5733 224.37 85.2267 223.97 86.08C223.57 86.9333 223.37 87.9333 223.37 89.08C223.37 90.2267 223.57 91.2267 223.97 92.08C224.37 92.9333 224.903 93.5867 225.57 94.04C226.263 94.4933 227.036 94.72 227.89 94.72C228.556 94.72 229.183 94.6 229.77 94.36C230.356 94.12 230.903 93.8133 231.41 93.44L233.73 97.04C232.903 97.7867 231.93 98.3867 230.81 98.84C229.69 99.2667 228.516 99.48 227.29 99.48ZM237.241 99V70.96H243.041V86.96H243.201L249.361 79.16H255.801L248.921 87.4L256.321 99H249.961L245.481 91.28L243.041 94.04V99H237.241ZM267.643 99V72.92H277.043C278.883 72.92 280.563 73.1733 282.083 73.68C283.603 74.16 284.816 75 285.723 76.2C286.629 77.3733 287.083 78.9867 287.083 81.04C287.083 83.04 286.629 84.6667 285.723 85.92C284.816 87.1733 283.603 88.1067 282.083 88.72C280.563 89.3067 278.883 89.6 277.043 89.6H273.523V99H267.643ZM273.523 84.92H276.563C278.109 84.92 279.283 84.6 280.083 83.96C280.909 83.2933 281.323 82.32 281.323 81.04C281.323 79.76 280.909 78.8667 280.083 78.36C279.283 77.8533 278.109 77.6 276.563 77.6H273.523V84.92ZM281.763 99L275.963 88.08L280.043 84.28L288.363 99H281.763ZM302.774 99.48C300.427 99.48 298.36 98.9333 296.574 97.84C294.814 96.7467 293.427 95.1867 292.414 93.16C291.427 91.1333 290.934 88.6933 290.934 85.84C290.934 83.0133 291.427 80.6 292.414 78.6C293.427 76.6 294.814 75.08 296.574 74.04C298.36 72.9733 300.427 72.44 302.774 72.44C305.12 72.44 307.187 72.9733 308.974 74.04C310.76 75.08 312.147 76.6 313.134 78.6C314.12 80.6 314.614 83.0133 314.614 85.84C314.614 88.6933 314.12 91.1333 313.134 93.16C312.147 95.1867 310.76 96.7467 308.974 97.84C307.187 98.9333 305.12 99.48 302.774 99.48ZM302.774 94.4C303.974 94.4 305 94.0533 305.854 93.36C306.734 92.64 307.4 91.64 307.854 90.36C308.334 89.08 308.574 87.5733 308.574 85.84C308.574 84.1067 308.334 82.6267 307.854 81.4C307.4 80.1467 306.734 79.2 305.854 78.56C305 77.8933 303.974 77.56 302.774 77.56C301.6 77.56 300.574 77.8933 299.694 78.56C298.814 79.2 298.134 80.1467 297.654 81.4C297.2 82.6267 296.974 84.1067 296.974 85.84C296.974 87.5733 297.2 89.08 297.654 90.36C298.134 91.64 298.814 92.64 299.694 93.36C300.574 94.0533 301.6 94.4 302.774 94.4ZM319.518 99V72.92H326.078L330.238 84.52C330.504 85.2933 330.744 86.08 330.958 86.88C331.198 87.6533 331.438 88.4667 331.678 89.32H331.838C332.078 88.4667 332.304 87.6533 332.518 86.88C332.731 86.08 332.971 85.2933 333.238 84.52L337.318 72.92H343.878V99H338.477V89.44C338.477 88.5867 338.518 87.5867 338.598 86.44C338.704 85.2667 338.811 84.1067 338.918 82.96C339.051 81.7867 339.171 80.7733 339.278 79.92H339.118L336.997 86.8L333.318 96.76H329.878L326.238 86.8L324.198 79.92H324.038C324.144 80.7733 324.251 81.7867 324.358 82.96C324.491 84.1067 324.598 85.2667 324.678 86.44C324.758 87.5867 324.798 88.5867 324.798 89.44V99H319.518ZM355.346 99.48C354.04 99.48 352.693 99.2267 351.306 98.72C349.92 98.2133 348.733 97.48 347.746 96.52L350.226 93.2C351.133 93.92 352.026 94.4267 352.906 94.72C353.813 94.9867 354.68 95.12 355.506 95.12C356.386 95.12 357.026 94.9733 357.426 94.68C357.826 94.36 358.026 93.9467 358.026 93.44C358.026 92.9867 357.84 92.6133 357.466 92.32C357.12 92.0267 356.653 91.7733 356.066 91.56C355.506 91.32 354.866 91.0667 354.146 90.8C353.186 90.4533 352.306 90.0133 351.506 89.48C350.706 88.9467 350.053 88.3067 349.546 87.56C349.066 86.8133 348.826 85.92 348.826 84.88C348.826 83.0133 349.52 81.52 350.906 80.4C352.32 79.2533 354.16 78.68 356.426 78.68C357.866 78.68 359.173 78.92 360.346 79.4C361.546 79.8533 362.573 80.4533 363.426 81.2L360.906 84.48C360.186 83.9733 359.466 83.6133 358.746 83.4C358.026 83.16 357.32 83.04 356.626 83.04C355.853 83.04 355.28 83.1867 354.906 83.48C354.533 83.7733 354.346 84.1467 354.346 84.6C354.346 84.9733 354.48 85.2933 354.746 85.56C355.013 85.8267 355.413 86.08 355.946 86.32C356.506 86.5333 357.2 86.7733 358.026 87.04C359.04 87.3867 359.96 87.8267 360.786 88.36C361.64 88.8667 362.306 89.5067 362.786 90.28C363.266 91.0533 363.506 91.9867 363.506 93.08C363.506 94.28 363.186 95.36 362.546 96.32C361.933 97.28 361.026 98.0533 359.826 98.64C358.626 99.2 357.133 99.48 355.346 99.48Z" fill="white"/>
</svg>
