<svg width="1000" height="300" viewBox="0 0 1000 300" fill="none" xmlns="http://www.w3.org/2000/svg">
<rect width="1000" height="300" rx="32" fill="black" fill-opacity="0.5"/>
<path fill-rule="evenodd" clip-rule="evenodd" d="M110 70H190C198.837 70 206 77.1634 206 86V214C206 222.837 198.837 230 190 230H110C101.163 230 94 222.837 94 214V86C94 77.1634 101.163 70 110 70ZM115.714 78H184.286C191.86 78 198 84.4471 198 92.4V207.6C198 215.553 191.86 222 184.286 222H115.714C108.14 222 102 215.553 102 207.6V92.4C102 84.4471 108.14 78 115.714 78Z" fill="#D9D9D9"/>
<rect x="142" y="190" width="16" height="16" rx="8" fill="#D9D9D9"/>
<path d="M274.928 136V94.272H289.968C292.912 94.272 295.6 94.6773 298.032 95.488C300.464 96.256 302.405 97.6 303.856 99.52C305.307 101.397 306.032 103.979 306.032 107.264C306.032 110.464 305.307 113.067 303.856 115.072C302.405 117.077 300.464 118.571 298.032 119.552C295.6 120.491 292.912 120.96 289.968 120.96H284.336V136H274.928ZM284.336 113.472H289.2C291.675 113.472 293.552 112.96 294.832 111.936C296.155 110.869 296.816 109.312 296.816 107.264C296.816 105.216 296.155 103.787 294.832 102.976C293.552 102.165 291.675 101.76 289.2 101.76H284.336V113.472ZM297.52 136L288.24 118.528L294.768 112.448L308.08 136H297.52ZM326.993 136.768C323.964 136.768 321.233 136.107 318.801 134.784C316.369 133.461 314.449 131.563 313.041 129.088C311.633 126.613 310.929 123.627 310.929 120.128C310.929 116.672 311.633 113.707 313.041 111.232C314.492 108.757 316.369 106.859 318.673 105.536C320.977 104.171 323.388 103.488 325.905 103.488C328.934 103.488 331.452 104.171 333.457 105.536C335.462 106.859 336.956 108.672 337.937 110.976C338.918 113.28 339.409 115.861 339.409 118.72C339.409 119.531 339.366 120.341 339.281 121.152C339.196 121.92 339.11 122.539 339.025 123.008H318.225L318.097 116.48H331.345C331.345 114.816 330.94 113.451 330.129 112.384C329.318 111.275 327.974 110.72 326.097 110.72C325.073 110.72 324.07 110.997 323.089 111.552C322.108 112.107 321.297 113.067 320.657 114.432C320.017 115.797 319.718 117.696 319.761 120.128C319.804 122.517 320.23 124.395 321.041 125.76C321.894 127.125 322.961 128.107 324.241 128.704C325.521 129.259 326.865 129.536 328.273 129.536C329.51 129.536 330.684 129.365 331.793 129.024C332.945 128.64 334.076 128.128 335.185 127.488L338.257 133.248C336.678 134.357 334.886 135.232 332.881 135.872C330.876 136.469 328.913 136.768 326.993 136.768ZM357.238 136.768C353.313 136.768 350.155 135.296 347.766 132.352C345.419 129.365 344.246 125.291 344.246 120.128C344.246 116.672 344.865 113.707 346.102 111.232C347.382 108.757 349.025 106.859 351.03 105.536C353.078 104.171 355.211 103.488 357.43 103.488C359.179 103.488 360.651 103.787 361.846 104.384C363.041 104.981 364.171 105.792 365.238 106.816L364.854 101.952V91.136H374.262V136H366.582L365.942 132.864H365.686C364.577 133.973 363.275 134.912 361.782 135.68C360.289 136.405 358.774 136.768 357.238 136.768ZM359.67 129.088C360.694 129.088 361.633 128.875 362.486 128.448C363.339 128.021 364.129 127.275 364.854 126.208V113.216C364.043 112.448 363.19 111.915 362.294 111.616C361.398 111.317 360.502 111.168 359.606 111.168C358.582 111.168 357.643 111.488 356.79 112.128C355.937 112.768 355.233 113.749 354.678 115.072C354.166 116.352 353.91 117.995 353.91 120C353.91 123.115 354.422 125.419 355.446 126.912C356.47 128.363 357.878 129.088 359.67 129.088ZM382.598 136V104.256H390.278L390.918 108.352H391.174C392.454 107.029 393.84 105.899 395.333 104.96C396.87 103.979 398.683 103.488 400.774 103.488C403.035 103.488 404.87 103.957 406.278 104.896C407.686 105.792 408.774 107.093 409.542 108.8C410.95 107.349 412.443 106.112 414.022 105.088C415.6 104.021 417.435 103.488 419.526 103.488C422.982 103.488 425.499 104.64 427.078 106.944C428.656 109.205 429.446 112.32 429.446 116.288V136H420.038V117.504C420.038 115.2 419.718 113.621 419.078 112.768C418.48 111.915 417.499 111.488 416.134 111.488C415.323 111.488 414.47 111.744 413.574 112.256C412.678 112.725 411.718 113.493 410.694 114.56V136H401.286V117.504C401.286 115.2 400.966 113.621 400.326 112.768C399.728 111.915 398.747 111.488 397.382 111.488C395.76 111.488 393.968 112.512 392.006 114.56V136H382.598ZM437.473 136V104.256H446.881V136H437.473ZM442.145 99.584C440.566 99.584 439.286 99.136 438.305 98.24C437.323 97.344 436.833 96.1493 436.833 94.656C436.833 93.1627 437.323 91.968 438.305 91.072C439.286 90.176 440.566 89.728 442.145 89.728C443.723 89.728 445.003 90.176 445.985 91.072C446.966 91.968 447.457 93.1627 447.457 94.656C447.457 96.1493 446.966 97.344 445.985 98.24C445.003 99.136 443.723 99.584 442.145 99.584ZM468.293 136V128.384H477.125V104.896H469.509V99.072C471.727 98.6453 473.605 98.1333 475.141 97.536C476.719 96.9387 478.213 96.2133 479.621 95.36H486.533V128.384H494.149V136H468.293ZM514.521 136.768C510.169 136.768 506.649 134.955 503.961 131.328C501.316 127.701 499.993 122.432 499.993 115.52C499.993 108.565 501.316 103.339 503.961 99.84C506.649 96.3413 510.169 94.592 514.521 94.592C518.873 94.592 522.372 96.3627 525.017 99.904C527.705 103.403 529.049 108.608 529.049 115.52C529.049 122.432 527.705 127.701 525.017 131.328C522.372 134.955 518.873 136.768 514.521 136.768ZM514.521 129.472C515.588 129.472 516.548 129.088 517.401 128.32C518.254 127.509 518.916 126.101 519.385 124.096C519.897 122.048 520.153 119.189 520.153 115.52C520.153 111.808 519.897 108.971 519.385 107.008C518.916 105.045 518.254 103.701 517.401 102.976C516.548 102.251 515.588 101.888 514.521 101.888C513.454 101.888 512.494 102.251 511.641 102.976C510.788 103.701 510.105 105.045 509.593 107.008C509.124 108.971 508.889 111.808 508.889 115.52C508.889 119.189 509.124 122.048 509.593 124.096C510.105 126.101 510.788 127.509 511.641 128.32C512.494 129.088 513.454 129.472 514.521 129.472ZM554.03 136.768C550.446 136.768 547.16 135.979 544.174 134.4C541.23 132.779 538.862 130.368 537.07 127.168C535.278 123.968 534.382 120.043 534.382 115.392C534.382 111.936 534.894 108.864 535.918 106.176C536.984 103.445 538.435 101.141 540.27 99.264C542.104 97.3867 544.195 95.9573 546.542 94.976C548.931 93.9947 551.448 93.504 554.094 93.504C556.782 93.504 559.192 94.0373 561.326 95.104C563.459 96.1707 565.23 97.4507 566.638 98.944L561.646 104.64C560.622 103.659 559.512 102.933 558.318 102.464C557.123 101.952 555.779 101.696 554.286 101.696C552.451 101.696 550.744 102.251 549.166 103.36C547.63 104.427 546.392 105.963 545.454 107.968C544.515 109.973 544.046 112.341 544.046 115.072C544.046 117.931 544.494 120.384 545.39 122.432C546.286 124.437 547.523 125.973 549.102 127.04C550.723 128.107 552.579 128.64 554.67 128.64C556.291 128.64 557.742 128.299 559.022 127.616C560.302 126.933 561.432 126.123 562.414 125.184L567.15 130.752C565.358 132.757 563.374 134.272 561.198 135.296C559.022 136.277 556.632 136.768 554.03 136.768ZM599.164 136.768C596.391 136.768 593.66 136.277 590.972 135.296C588.284 134.272 585.873 132.736 583.74 130.688L588.732 124.544C590.225 125.824 591.911 126.827 593.788 127.552C595.708 128.277 597.585 128.64 599.42 128.64C601.383 128.64 602.833 128.277 603.772 127.552C604.753 126.827 605.244 125.845 605.244 124.608C605.244 123.712 604.988 123.008 604.476 122.496C604.007 121.941 603.324 121.451 602.428 121.024C601.532 120.597 600.465 120.128 599.228 119.616L593.788 117.376C592.38 116.736 591.015 115.925 589.692 114.944C588.412 113.92 587.367 112.683 586.556 111.232C585.788 109.739 585.404 107.968 585.404 105.92C585.404 103.616 586.023 101.547 587.26 99.712C588.54 97.8347 590.289 96.3413 592.508 95.232C594.769 94.08 597.351 93.504 600.252 93.504C602.769 93.504 605.201 93.952 607.548 94.848C609.895 95.744 611.943 97.0453 613.692 98.752L608.7 104.832C607.335 103.808 605.927 103.019 604.476 102.464C603.068 101.909 601.66 101.632 600.252 101.632C598.631 101.632 597.329 101.973 596.348 102.656C595.409 103.296 594.94 104.213 594.94 105.408C594.94 106.219 595.217 106.923 595.772 107.52C596.327 108.075 597.095 108.565 598.076 108.992C599.057 109.376 600.124 109.824 601.276 110.336L606.652 112.512C608.359 113.195 609.809 114.048 611.004 115.072C612.241 116.096 613.201 117.333 613.884 118.784C614.567 120.192 614.908 121.877 614.908 123.84C614.908 126.144 614.289 128.277 613.052 130.24C611.815 132.203 610.023 133.781 607.676 134.976C605.329 136.171 602.492 136.768 599.164 136.768ZM631.697 136.704C627.771 136.704 624.955 135.573 623.249 133.312C621.542 131.008 620.689 128.043 620.689 124.416V111.616H616.401V104.64L621.265 104.256L622.353 94.528H630.161V104.256H637.777V111.616H630.161V124.288C630.161 126.08 630.523 127.381 631.249 128.192C632.017 128.96 633.019 129.344 634.257 129.344C634.769 129.344 635.281 129.301 635.793 129.216C636.305 129.131 636.795 129.003 637.265 128.832L638.801 135.424C637.99 135.765 636.966 136.064 635.729 136.32C634.534 136.576 633.19 136.704 631.697 136.704ZM653.509 136.768C650.053 136.768 647.535 135.637 645.957 133.376C644.421 131.072 643.653 127.936 643.653 123.968V104.256H653.061V122.752C653.061 125.056 653.381 126.635 654.021 127.488C654.661 128.341 655.663 128.768 657.029 128.768C658.181 128.768 659.183 128.491 660.037 127.936C660.89 127.381 661.765 126.485 662.661 125.248V104.256H672.069V136H664.389L663.685 131.584H663.493C662.17 133.163 660.719 134.421 659.141 135.36C657.562 136.299 655.685 136.768 653.509 136.768ZM681.948 136V102.848C681.948 100.672 682.353 98.688 683.164 96.896C683.974 95.104 685.254 93.6747 687.004 92.608C688.796 91.5413 691.121 91.008 693.98 91.008C695.345 91.008 696.604 91.136 697.756 91.392C698.908 91.6053 699.846 91.8613 700.572 92.16L698.844 99.136C698.374 98.88 697.841 98.7093 697.244 98.624C696.689 98.496 695.985 98.432 695.132 98.432C694.065 98.432 693.169 98.7947 692.444 99.52C691.718 100.203 691.356 101.291 691.356 102.784V136H681.948ZM702.172 136V102.592C702.172 100.331 702.534 98.2827 703.26 96.448C704.028 94.6133 705.265 93.1413 706.972 92.032C708.721 90.9227 711.025 90.368 713.884 90.368C715.206 90.368 716.422 90.496 717.532 90.752C718.641 91.008 719.537 91.264 720.22 91.52L718.492 98.432C717.98 98.2187 717.425 98.0693 716.828 97.984C716.273 97.856 715.74 97.792 715.228 97.792C714.076 97.792 713.18 98.1547 712.54 98.88C711.9 99.5627 711.58 100.715 711.58 102.336V136H702.172ZM677.276 111.616V104.64L682.076 104.256H717.276V111.616H677.276ZM272.408 195L277.168 171.256H273.36L274.032 168.064L277.896 167.784L278.792 163.248C279.165 161.419 279.725 159.851 280.472 158.544C281.256 157.237 282.227 156.229 283.384 155.52C284.541 154.811 285.885 154.456 287.416 154.456C288.387 154.456 289.283 154.587 290.104 154.848C290.925 155.072 291.635 155.389 292.232 155.8L290.776 158.768C290.403 158.507 289.955 158.301 289.432 158.152C288.909 158.003 288.331 157.928 287.696 157.928C286.501 157.928 285.512 158.395 284.728 159.328C283.944 160.261 283.403 161.531 283.104 163.136L282.152 167.784H287.64L286.968 171.256H281.424L276.664 195H272.408ZM297.13 195.672C295.151 195.672 293.434 195.243 291.978 194.384C290.522 193.488 289.402 192.219 288.618 190.576C287.834 188.933 287.442 186.992 287.442 184.752C287.442 182.139 287.852 179.768 288.674 177.64C289.495 175.512 290.596 173.664 291.978 172.096C293.396 170.491 294.983 169.259 296.738 168.4C298.492 167.541 300.284 167.112 302.114 167.112C304.092 167.112 305.81 167.56 307.266 168.456C308.722 169.315 309.842 170.565 310.626 172.208C311.447 173.851 311.858 175.792 311.858 178.032C311.858 180.608 311.428 182.979 310.57 185.144C309.748 187.272 308.628 189.12 307.21 190.688C305.828 192.256 304.26 193.488 302.506 194.384C300.751 195.243 298.959 195.672 297.13 195.672ZM297.578 192.088C298.847 192.088 300.06 191.733 301.218 191.024C302.412 190.315 303.476 189.325 304.41 188.056C305.343 186.787 306.09 185.331 306.65 183.688C307.21 182.008 307.49 180.216 307.49 178.312C307.49 175.811 306.986 173.907 305.978 172.6C305.007 171.293 303.57 170.64 301.666 170.64C300.434 170.64 299.22 171.013 298.026 171.76C296.831 172.469 295.767 173.459 294.834 174.728C293.9 175.997 293.154 177.472 292.594 179.152C292.034 180.795 291.754 182.568 291.754 184.472C291.754 186.936 292.258 188.821 293.266 190.128C294.274 191.435 295.711 192.088 297.578 192.088ZM323.599 207.32C321.845 207.32 320.146 207.003 318.503 206.368C316.861 205.733 315.405 204.8 314.135 203.568L316.095 200.88C317.103 201.739 318.261 202.429 319.567 202.952C320.911 203.512 322.311 203.792 323.767 203.792C326.045 203.792 327.874 203.083 329.255 201.664C330.674 200.245 331.645 198.341 332.167 195.952L333.567 190.128C332.149 191.547 330.655 192.667 329.087 193.488C327.519 194.309 325.858 194.72 324.103 194.72C321.826 194.72 319.941 193.917 318.447 192.312C316.954 190.669 316.207 188.28 316.207 185.144C316.207 182.643 316.599 180.309 317.383 178.144C318.205 175.941 319.287 174.019 320.631 172.376C322.013 170.733 323.562 169.445 325.279 168.512C326.997 167.579 328.77 167.112 330.599 167.112C332.018 167.112 333.287 167.485 334.407 168.232C335.565 168.979 336.479 169.968 337.151 171.2H337.319L338.439 167.784H341.911L336.199 196.288C335.49 199.835 334.053 202.56 331.887 204.464C329.759 206.368 326.997 207.32 323.599 207.32ZM325.503 191.136C326.773 191.136 328.173 190.744 329.703 189.96C331.234 189.139 332.634 187.944 333.903 186.376L336.311 174.728C335.49 173.272 334.613 172.245 333.679 171.648C332.783 171.013 331.813 170.696 330.767 170.696C329.461 170.696 328.191 171.088 326.959 171.872C325.765 172.619 324.682 173.645 323.711 174.952C322.778 176.259 322.031 177.733 321.471 179.376C320.911 181.019 320.631 182.736 320.631 184.528C320.631 186.731 321.061 188.392 321.919 189.512C322.815 190.595 324.01 191.136 325.503 191.136ZM341.703 201.944L342.319 199.144H367.911L367.351 201.944H341.703ZM376.669 195L374.653 167.728H378.965L379.805 183.856C379.88 185.013 379.917 186.264 379.917 187.608C379.954 188.915 379.992 190.203 380.029 191.472H380.253C380.776 190.203 381.28 188.915 381.765 187.608C382.288 186.264 382.81 185.013 383.333 183.856L390.333 167.728H395.037L395.933 183.856C395.97 185.013 396.008 186.264 396.045 187.608C396.082 188.915 396.101 190.203 396.101 191.472H396.325C396.848 190.203 397.352 188.915 397.837 187.608C398.322 186.264 398.826 185.013 399.349 183.856L406.405 167.728H410.605L398.229 195H392.685L392.069 180.272C392.032 178.891 392.013 177.509 392.013 176.128C392.05 174.747 392.069 173.272 392.069 171.704H391.845C391.322 173.272 390.8 174.747 390.277 176.128C389.792 177.509 389.25 178.891 388.653 180.272L382.213 195H376.669ZM412.119 195L417.551 167.784H421.863L416.431 195H412.119ZM421.079 162.128C420.369 162.128 419.735 161.923 419.175 161.512C418.615 161.064 418.335 160.429 418.335 159.608C418.335 158.712 418.671 157.947 419.343 157.312C420.015 156.677 420.761 156.36 421.583 156.36C422.329 156.36 422.964 156.584 423.487 157.032C424.047 157.48 424.327 158.115 424.327 158.936C424.327 159.869 424.009 160.635 423.375 161.232C422.74 161.829 421.975 162.128 421.079 162.128ZM425.408 195L430.84 167.784H434.368L433.976 171.872H434.2C435.656 170.528 437.168 169.408 438.736 168.512C440.341 167.579 441.984 167.112 443.664 167.112C445.979 167.112 447.621 167.728 448.592 168.96C449.6 170.155 450.104 171.797 450.104 173.888C450.104 174.523 450.067 175.12 449.992 175.68C449.955 176.24 449.843 176.893 449.656 177.64L446.184 195H441.928L445.288 178.2C445.437 177.453 445.549 176.856 445.624 176.408C445.699 175.96 445.736 175.493 445.736 175.008C445.736 173.627 445.4 172.581 444.728 171.872C444.093 171.163 443.085 170.808 441.704 170.808C440.621 170.808 439.408 171.2 438.064 171.984C436.757 172.768 435.245 174.019 433.528 175.736L429.664 195H425.408ZM463.118 195.672C460.728 195.672 458.824 194.832 457.406 193.152C455.987 191.435 455.278 188.989 455.278 185.816C455.278 183.203 455.688 180.757 456.51 178.48C457.331 176.203 458.432 174.224 459.814 172.544C461.232 170.827 462.8 169.501 464.518 168.568C466.272 167.597 468.102 167.112 470.006 167.112C471.462 167.112 472.731 167.485 473.814 168.232C474.934 168.941 475.811 169.893 476.446 171.088H476.614L477.51 165.768L479.638 155.128H483.95L475.886 195H472.358L472.806 190.968H472.582C471.275 192.349 469.8 193.488 468.158 194.384C466.515 195.243 464.835 195.672 463.118 195.672ZM464.686 192.088C466.142 192.088 467.579 191.659 468.998 190.8C470.454 189.941 471.872 188.635 473.254 186.88L475.718 174.728C474.934 173.272 474.075 172.245 473.142 171.648C472.208 171.013 471.219 170.696 470.174 170.696C468.792 170.696 467.467 171.107 466.198 171.928C464.966 172.712 463.864 173.776 462.894 175.12C461.923 176.464 461.139 178.013 460.542 179.768C459.982 181.485 459.702 183.277 459.702 185.144C459.702 187.496 460.15 189.251 461.046 190.408C461.979 191.528 463.192 192.088 464.686 192.088ZM481.046 201.944L481.662 199.144H507.255L506.695 201.944H481.046ZM511.869 195L517.301 167.784H520.829L520.213 172.992H520.437C521.519 171.349 522.77 169.968 524.189 168.848C525.607 167.691 527.157 167.112 528.837 167.112C529.322 167.112 529.789 167.149 530.237 167.224C530.685 167.299 531.077 167.429 531.413 167.616L529.901 171.368C529.639 171.219 529.303 171.125 528.893 171.088C528.519 171.013 528.071 170.976 527.549 170.976C526.205 170.976 524.823 171.555 523.405 172.712C521.986 173.869 520.698 175.568 519.541 177.808L516.125 195H511.869ZM538.751 195.672C536.399 195.672 534.495 194.832 533.039 193.152C531.62 191.435 530.911 188.989 530.911 185.816C530.911 183.165 531.321 180.72 532.143 178.48C532.964 176.203 534.065 174.224 535.447 172.544C536.828 170.864 538.396 169.539 540.151 168.568C541.905 167.597 543.735 167.112 545.639 167.112C547.095 167.112 548.401 167.485 549.559 168.232C550.716 168.979 551.612 169.968 552.247 171.2H552.415L553.479 167.784H556.951L551.519 195H547.991L548.439 190.968H548.215C546.908 192.349 545.433 193.488 543.791 194.384C542.148 195.243 540.468 195.672 538.751 195.672ZM540.319 192.088C541.775 192.088 543.231 191.659 544.687 190.8C546.143 189.941 547.543 188.635 548.887 186.88L551.351 174.728C550.604 173.272 549.745 172.245 548.775 171.648C547.841 171.013 546.852 170.696 545.807 170.696C544.425 170.696 543.1 171.088 541.831 171.872C540.599 172.656 539.497 173.739 538.527 175.12C537.556 176.464 536.772 178.013 536.175 179.768C535.615 181.485 535.335 183.277 535.335 185.144C535.335 187.496 535.783 189.251 536.679 190.408C537.575 191.528 538.788 192.088 540.319 192.088ZM560.486 195L565.918 167.784H570.23L564.798 195H560.486ZM569.446 162.128C568.737 162.128 568.102 161.923 567.542 161.512C566.982 161.064 566.702 160.429 566.702 159.608C566.702 158.712 567.038 157.947 567.71 157.312C568.382 156.677 569.129 156.36 569.95 156.36C570.697 156.36 571.331 156.584 571.854 157.032C572.414 157.48 572.694 158.115 572.694 158.936C572.694 159.869 572.377 160.635 571.742 161.232C571.107 161.829 570.342 162.128 569.446 162.128ZM573.775 195L579.207 167.784H582.735L582.343 171.872H582.567C584.023 170.528 585.535 169.408 587.103 168.512C588.708 167.579 590.351 167.112 592.031 167.112C594.346 167.112 595.988 167.728 596.959 168.96C597.967 170.155 598.471 171.797 598.471 173.888C598.471 174.523 598.434 175.12 598.359 175.68C598.322 176.24 598.21 176.893 598.023 177.64L594.551 195H590.295L593.655 178.2C593.804 177.453 593.916 176.856 593.991 176.408C594.066 175.96 594.103 175.493 594.103 175.008C594.103 173.627 593.767 172.581 593.095 171.872C592.46 171.163 591.452 170.808 590.071 170.808C588.988 170.808 587.775 171.2 586.431 171.984C585.124 172.768 583.612 174.019 581.895 175.736L578.031 195H573.775ZM599.445 201.944L600.061 199.144H625.653L625.093 201.944H599.445ZM637.659 195.672C636.465 195.672 635.27 195.467 634.075 195.056C632.881 194.645 631.779 194.067 630.771 193.32C629.801 192.536 629.017 191.621 628.419 190.576L630.771 188.616C631.63 189.773 632.675 190.688 633.907 191.36C635.177 192.032 636.539 192.368 637.995 192.368C639.041 192.368 639.993 192.181 640.851 191.808C641.747 191.397 642.457 190.856 642.979 190.184C643.502 189.475 643.763 188.691 643.763 187.832C643.763 187.16 643.595 186.581 643.259 186.096C642.961 185.573 642.419 185.032 641.635 184.472C640.851 183.912 639.75 183.24 638.331 182.456C636.651 181.485 635.27 180.421 634.187 179.264C633.105 178.069 632.563 176.688 632.563 175.12C632.563 173.552 632.974 172.171 633.795 170.976C634.617 169.744 635.699 168.792 637.043 168.12C638.425 167.448 639.937 167.112 641.579 167.112C643.297 167.112 644.846 167.448 646.227 168.12C647.609 168.755 648.803 169.669 649.811 170.864L647.515 173.16C646.769 172.339 645.891 171.685 644.883 171.2C643.875 170.715 642.755 170.472 641.523 170.472C640.105 170.472 638.929 170.883 637.995 171.704C637.099 172.525 636.651 173.496 636.651 174.616C636.651 175.661 637.099 176.557 637.995 177.304C638.929 178.013 640.086 178.76 641.467 179.544C642.998 180.365 644.23 181.168 645.163 181.952C646.097 182.699 646.769 183.501 647.179 184.36C647.627 185.219 647.851 186.189 647.851 187.272C647.851 188.952 647.403 190.427 646.507 191.696C645.649 192.965 644.435 193.955 642.867 194.664C641.337 195.336 639.601 195.672 637.659 195.672ZM661.311 195.504C659.033 195.504 657.391 194.925 656.383 193.768C655.412 192.573 654.927 191.099 654.927 189.344C654.927 188.859 654.945 188.392 654.983 187.944C655.057 187.459 655.132 186.955 655.207 186.432L658.399 171.256H654.367L655.095 168.064L659.294 167.784L661.591 159.104H665.175L663.495 167.784H670.383L669.655 171.256H662.655L659.463 186.656C659.425 186.992 659.388 187.309 659.351 187.608C659.313 187.907 659.294 188.261 659.294 188.672C659.294 189.755 659.537 190.576 660.023 191.136C660.545 191.696 661.404 191.976 662.599 191.976C663.159 191.976 663.681 191.92 664.167 191.808C664.652 191.659 665.1 191.491 665.511 191.304L666.519 194.16C665.921 194.496 665.175 194.795 664.279 195.056C663.383 195.355 662.393 195.504 661.311 195.504ZM678.08 195.672C675.803 195.672 674.141 195.056 673.096 193.824C672.088 192.592 671.584 190.949 671.584 188.896C671.584 188.261 671.621 187.664 671.696 187.104C671.771 186.544 671.883 185.891 672.032 185.144L675.504 167.784H679.816L676.4 184.584C676.288 185.293 676.176 185.891 676.064 186.376C675.989 186.824 675.952 187.291 675.952 187.776C675.952 189.12 676.269 190.165 676.904 190.912C677.576 191.621 678.621 191.976 680.04 191.976C681.085 191.976 682.261 191.584 683.568 190.8C684.912 189.979 686.424 188.728 688.104 187.048L691.912 167.784H696.168L690.792 195H687.264L687.656 190.856H687.432C686.013 192.163 684.501 193.301 682.896 194.272C681.328 195.205 679.723 195.672 678.08 195.672ZM700.338 195L706.61 163.808C706.983 161.979 707.562 160.411 708.346 159.104C709.167 157.797 710.175 156.789 711.37 156.08C712.602 155.371 714.002 155.016 715.57 155.016C716.615 155.016 717.548 155.128 718.37 155.352C719.228 155.576 719.975 155.912 720.61 156.36L719.154 159.328C718.78 159.067 718.314 158.861 717.754 158.712C717.194 158.563 716.559 158.488 715.85 158.488C714.543 158.488 713.46 158.955 712.602 159.888C711.78 160.821 711.22 162.091 710.922 163.696L704.594 195H700.338ZM715.346 195L721.73 163.248C722.103 161.419 722.663 159.851 723.41 158.544C724.194 157.237 725.164 156.229 726.322 155.52C727.479 154.811 728.823 154.456 730.354 154.456C731.324 154.456 732.202 154.587 732.986 154.848C733.807 155.072 734.535 155.389 735.17 155.8L733.714 158.768C733.34 158.507 732.892 158.301 732.37 158.152C731.847 158.003 731.268 157.928 730.634 157.928C729.402 157.928 728.394 158.395 727.61 159.328C726.863 160.261 726.322 161.531 725.986 163.136L719.602 195H715.346ZM701.29 171.256L701.962 168.064L705.938 167.784H730.578L729.85 171.256H701.29Z" fill="white"/>
</svg>
