<svg width="500" height="174" viewBox="0 0 500 174" fill="none" xmlns="http://www.w3.org/2000/svg">
<rect x="12" y="12" width="476" height="150" rx="32" fill="black" fill-opacity="0.5"/>
<path d="M166.16 78V56.88H159V51.92H179.24V56.88H172.08V78H166.16ZM182.827 78V58.16H188.707V78H182.827ZM185.747 55.24C184.76 55.24 183.96 54.96 183.347 54.4C182.733 53.84 182.427 53.0933 182.427 52.16C182.427 51.2267 182.733 50.48 183.347 49.92C183.96 49.36 184.76 49.08 185.747 49.08C186.733 49.08 187.533 49.36 188.147 49.92C188.76 50.48 189.067 51.2267 189.067 52.16C189.067 53.0933 188.76 53.84 188.147 54.4C187.533 54.96 186.733 55.24 185.747 55.24ZM193.881 85.36V58.16H198.681L199.081 60.12H199.241C200.015 59.4 200.895 58.8133 201.881 58.36C202.868 57.9067 203.868 57.68 204.881 57.68C206.481 57.68 207.855 58.0933 209.001 58.92C210.175 59.7467 211.068 60.92 211.681 62.44C212.321 63.96 212.641 65.7333 212.641 67.76C212.641 70.0267 212.241 71.96 211.441 73.56C210.641 75.16 209.601 76.3867 208.321 77.24C207.068 78.0667 205.721 78.48 204.281 78.48C203.455 78.48 202.628 78.3067 201.801 77.96C201.001 77.5867 200.255 77.0667 199.561 76.4L199.761 79.56V85.36H193.881ZM202.921 73.68C203.588 73.68 204.201 73.48 204.761 73.08C205.348 72.68 205.801 72.0533 206.121 71.2C206.441 70.32 206.601 69.2 206.601 67.84C206.601 66.64 206.468 65.6533 206.201 64.88C205.961 64.08 205.588 63.48 205.081 63.08C204.575 62.68 203.935 62.48 203.161 62.48C202.575 62.48 202.001 62.6267 201.441 62.92C200.908 63.1867 200.348 63.64 199.761 64.28V72.4C200.295 72.8533 200.828 73.1867 201.361 73.4C201.921 73.5867 202.441 73.68 202.921 73.68ZM222.456 78.48C221.149 78.48 219.802 78.2267 218.416 77.72C217.029 77.2133 215.842 76.48 214.856 75.52L217.336 72.2C218.242 72.92 219.136 73.4267 220.016 73.72C220.922 73.9867 221.789 74.12 222.616 74.12C223.496 74.12 224.136 73.9733 224.536 73.68C224.936 73.36 225.136 72.9467 225.136 72.44C225.136 71.9867 224.949 71.6133 224.576 71.32C224.229 71.0267 223.762 70.7733 223.176 70.56C222.616 70.32 221.976 70.0667 221.256 69.8C220.296 69.4533 219.416 69.0133 218.616 68.48C217.816 67.9467 217.162 67.3067 216.656 66.56C216.176 65.8133 215.936 64.92 215.936 63.88C215.936 62.0133 216.629 60.52 218.016 59.4C219.429 58.2533 221.269 57.68 223.536 57.68C224.976 57.68 226.282 57.92 227.456 58.4C228.656 58.8533 229.682 59.4533 230.536 60.2L228.016 63.48C227.296 62.9733 226.576 62.6133 225.856 62.4C225.136 62.16 224.429 62.04 223.736 62.04C222.962 62.04 222.389 62.1867 222.016 62.48C221.642 62.7733 221.456 63.1467 221.456 63.6C221.456 63.9733 221.589 64.2933 221.856 64.56C222.122 64.8267 222.522 65.08 223.056 65.32C223.616 65.5333 224.309 65.7733 225.136 66.04C226.149 66.3867 227.069 66.8267 227.896 67.36C228.749 67.8667 229.416 68.5067 229.896 69.28C230.376 70.0533 230.616 70.9867 230.616 72.08C230.616 73.28 230.296 74.36 229.656 75.32C229.042 76.28 228.136 77.0533 226.936 77.64C225.736 78.2 224.242 78.48 222.456 78.48ZM247.358 78.48C246.158 78.48 245.104 78.2133 244.198 77.68C243.318 77.1467 242.638 76.4267 242.158 75.52C241.678 74.6133 241.438 73.6 241.438 72.48C241.438 70.3467 242.318 68.7067 244.078 67.56C245.838 66.3867 248.678 65.6 252.598 65.2C252.571 64.6133 252.438 64.12 252.198 63.72C251.984 63.2933 251.651 62.9733 251.198 62.76C250.744 62.52 250.171 62.4 249.478 62.4C248.651 62.4 247.811 62.5467 246.958 62.84C246.104 63.1333 245.184 63.56 244.198 64.12L242.118 60.28C242.971 59.7467 243.851 59.2933 244.758 58.92C245.664 58.52 246.598 58.2133 247.558 58C248.544 57.7867 249.558 57.68 250.598 57.68C252.304 57.68 253.731 58.0133 254.878 58.68C256.051 59.32 256.944 60.3067 257.558 61.64C258.171 62.9467 258.478 64.6267 258.478 66.68V78H253.678L253.278 75.96H253.118C252.264 76.7067 251.371 77.32 250.438 77.8C249.504 78.2533 248.478 78.48 247.358 78.48ZM249.318 73.88C249.984 73.88 250.571 73.7333 251.078 73.44C251.584 73.1467 252.091 72.7467 252.598 72.24V68.88C251.211 69.0667 250.104 69.3067 249.278 69.6C248.478 69.8933 247.904 70.2533 247.558 70.68C247.238 71.08 247.078 71.5333 247.078 72.04C247.078 72.6533 247.278 73.12 247.678 73.44C248.104 73.7333 248.651 73.88 249.318 73.88ZM263.452 78V58.16H268.252L268.652 60.68H268.812C269.638 59.8533 270.572 59.1467 271.612 58.56C272.652 57.9733 273.838 57.68 275.172 57.68C277.358 57.68 278.932 58.4 279.892 59.84C280.852 61.2533 281.332 63.2 281.332 65.68V78H275.452V66.44C275.452 65 275.252 64.0133 274.852 63.48C274.478 62.9467 273.865 62.68 273.012 62.68C272.265 62.68 271.625 62.8533 271.092 63.2C270.558 63.52 269.972 63.9867 269.332 64.6V78H263.452ZM293.422 78.48C290.969 78.48 288.996 77.56 287.502 75.72C286.036 73.8533 285.302 71.3067 285.302 68.08C285.302 65.92 285.689 64.0667 286.462 62.52C287.262 60.9733 288.289 59.7867 289.542 58.96C290.822 58.1067 292.156 57.68 293.542 57.68C294.636 57.68 295.556 57.8667 296.302 58.24C297.049 58.6133 297.756 59.12 298.422 59.76L298.182 56.72V49.96H304.062V78H299.262L298.862 76.04H298.702C298.009 76.7333 297.196 77.32 296.262 77.8C295.329 78.2533 294.382 78.48 293.422 78.48ZM294.942 73.68C295.582 73.68 296.169 73.5467 296.702 73.28C297.236 73.0133 297.729 72.5467 298.182 71.88V63.76C297.676 63.28 297.142 62.9467 296.582 62.76C296.022 62.5733 295.462 62.48 294.902 62.48C294.262 62.48 293.676 62.68 293.142 63.08C292.609 63.48 292.169 64.0933 291.822 64.92C291.502 65.72 291.342 66.7467 291.342 68C291.342 69.9467 291.662 71.3867 292.302 72.32C292.942 73.2267 293.822 73.68 294.942 73.68ZM166.16 120V98.88H159V93.92H179.24V98.88H172.08V120H166.16ZM187.107 120.48C184.947 120.48 183.374 119.773 182.387 118.36C181.427 116.92 180.947 114.96 180.947 112.48V100.16H186.827V111.72C186.827 113.16 187.027 114.147 187.427 114.68C187.827 115.213 188.454 115.48 189.307 115.48C190.027 115.48 190.654 115.307 191.187 114.96C191.72 114.613 192.267 114.053 192.827 113.28V100.16H198.707V120H193.907L193.467 117.24H193.347C192.52 118.227 191.614 119.013 190.627 119.6C189.64 120.187 188.467 120.48 187.107 120.48ZM211.521 120.44C209.068 120.44 207.308 119.733 206.241 118.32C205.175 116.88 204.641 115.027 204.641 112.76V104.76H201.961V100.4L205.001 100.16L205.681 94.08H210.561V100.16H215.321V104.76H210.561V112.68C210.561 113.8 210.788 114.613 211.241 115.12C211.721 115.6 212.348 115.84 213.121 115.84C213.441 115.84 213.761 115.813 214.081 115.76C214.401 115.707 214.708 115.627 215.001 115.52L215.961 119.64C215.455 119.853 214.815 120.04 214.041 120.2C213.295 120.36 212.455 120.44 211.521 120.44ZM227.011 120.48C225.331 120.48 223.757 120.08 222.291 119.28C220.824 118.453 219.624 117.267 218.691 115.72C217.784 114.147 217.331 112.267 217.331 110.08C217.331 107.893 217.784 106.027 218.691 104.48C219.624 102.907 220.824 101.72 222.291 100.92C223.757 100.093 225.331 99.68 227.011 99.68C228.664 99.68 230.224 100.093 231.691 100.92C233.157 101.72 234.344 102.907 235.251 104.48C236.184 106.027 236.651 107.893 236.651 110.08C236.651 112.267 236.184 114.147 235.251 115.72C234.344 117.267 233.157 118.453 231.691 119.28C230.224 120.08 228.664 120.48 227.011 120.48ZM227.011 115.72C227.811 115.72 228.477 115.493 229.011 115.04C229.571 114.587 229.984 113.933 230.251 113.08C230.517 112.227 230.651 111.227 230.651 110.08C230.651 108.933 230.517 107.933 230.251 107.08C229.984 106.227 229.571 105.573 229.011 105.12C228.477 104.667 227.811 104.44 227.011 104.44C226.184 104.44 225.504 104.667 224.971 105.12C224.437 105.573 224.037 106.227 223.771 107.08C223.504 107.933 223.371 108.933 223.371 110.08C223.371 111.227 223.504 112.227 223.771 113.08C224.037 113.933 224.437 114.587 224.971 115.04C225.504 115.493 226.184 115.72 227.011 115.72ZM240.678 120V100.16H245.478L245.878 103.64H246.038C246.758 102.307 247.611 101.32 248.598 100.68C249.611 100.013 250.638 99.68 251.678 99.68C252.238 99.68 252.705 99.72 253.078 99.8C253.451 99.8533 253.771 99.9467 254.038 100.08L252.918 105.08C252.598 105 252.291 104.947 251.998 104.92C251.705 104.867 251.345 104.84 250.918 104.84C250.171 104.84 249.385 105.107 248.558 105.64C247.758 106.173 247.091 107.12 246.558 108.48V120H240.678ZM256.616 120V100.16H262.496V120H256.616ZM259.536 97.24C258.549 97.24 257.749 96.96 257.136 96.4C256.522 95.84 256.216 95.0933 256.216 94.16C256.216 93.2267 256.522 92.48 257.136 91.92C257.749 91.36 258.549 91.08 259.536 91.08C260.522 91.08 261.322 91.36 261.936 91.92C262.549 92.48 262.856 93.2267 262.856 94.16C262.856 95.0933 262.549 95.84 261.936 96.4C261.322 96.96 260.522 97.24 259.536 97.24ZM272.67 120.48C271.47 120.48 270.417 120.213 269.51 119.68C268.63 119.147 267.95 118.427 267.47 117.52C266.99 116.613 266.75 115.6 266.75 114.48C266.75 112.347 267.63 110.707 269.39 109.56C271.15 108.387 273.99 107.6 277.91 107.2C277.884 106.613 277.75 106.12 277.51 105.72C277.297 105.293 276.964 104.973 276.51 104.76C276.057 104.52 275.484 104.4 274.79 104.4C273.964 104.4 273.124 104.547 272.27 104.84C271.417 105.133 270.497 105.56 269.51 106.12L267.43 102.28C268.284 101.747 269.164 101.293 270.07 100.92C270.977 100.52 271.91 100.213 272.87 100C273.857 99.7867 274.87 99.68 275.91 99.68C277.617 99.68 279.044 100.013 280.19 100.68C281.364 101.32 282.257 102.307 282.87 103.64C283.484 104.947 283.79 106.627 283.79 108.68V120H278.99L278.59 117.96H278.43C277.577 118.707 276.684 119.32 275.75 119.8C274.817 120.253 273.79 120.48 272.67 120.48ZM274.63 115.88C275.297 115.88 275.884 115.733 276.39 115.44C276.897 115.147 277.404 114.747 277.91 114.24V110.88C276.524 111.067 275.417 111.307 274.59 111.6C273.79 111.893 273.217 112.253 272.87 112.68C272.55 113.08 272.39 113.533 272.39 114.04C272.39 114.653 272.59 115.12 272.99 115.44C273.417 115.733 273.964 115.88 274.63 115.88ZM294.164 120.44C292.831 120.44 291.764 120.173 290.964 119.64C290.191 119.08 289.631 118.307 289.284 117.32C288.937 116.307 288.764 115.133 288.764 113.8V92H294.644V114.04C294.644 114.68 294.751 115.12 294.964 115.36C295.204 115.573 295.457 115.68 295.724 115.68C295.831 115.68 295.924 115.68 296.004 115.68C296.111 115.653 296.244 115.627 296.404 115.6L297.124 119.96C296.804 120.093 296.391 120.2 295.884 120.28C295.404 120.387 294.831 120.44 294.164 120.44ZM306.049 120.48C304.743 120.48 303.396 120.227 302.009 119.72C300.623 119.213 299.436 118.48 298.449 117.52L300.929 114.2C301.836 114.92 302.729 115.427 303.609 115.72C304.516 115.987 305.383 116.12 306.209 116.12C307.089 116.12 307.729 115.973 308.129 115.68C308.529 115.36 308.729 114.947 308.729 114.44C308.729 113.987 308.543 113.613 308.169 113.32C307.823 113.027 307.356 112.773 306.769 112.56C306.209 112.32 305.569 112.067 304.849 111.8C303.889 111.453 303.009 111.013 302.209 110.48C301.409 109.947 300.756 109.307 300.249 108.56C299.769 107.813 299.529 106.92 299.529 105.88C299.529 104.013 300.223 102.52 301.609 101.4C303.023 100.253 304.863 99.68 307.129 99.68C308.569 99.68 309.876 99.92 311.049 100.4C312.249 100.853 313.276 101.453 314.129 102.2L311.609 105.48C310.889 104.973 310.169 104.613 309.449 104.4C308.729 104.16 308.023 104.04 307.329 104.04C306.556 104.04 305.983 104.187 305.609 104.48C305.236 104.773 305.049 105.147 305.049 105.6C305.049 105.973 305.183 106.293 305.449 106.56C305.716 106.827 306.116 107.08 306.649 107.32C307.209 107.533 307.903 107.773 308.729 108.04C309.743 108.387 310.663 108.827 311.489 109.36C312.343 109.867 313.009 110.507 313.489 111.28C313.969 112.053 314.209 112.987 314.209 114.08C314.209 115.28 313.889 116.36 313.249 117.32C312.636 118.28 311.729 119.053 310.529 119.64C309.329 120.2 307.836 120.48 306.049 120.48Z" fill="white"/>
<path d="M90 127C112.091 127 130 109.091 130 87C130 64.9086 112.091 47 90 47C67.9086 47 50 64.9086 50 87C50 109.091 67.9086 127 90 127Z" stroke="#CBCBCB" stroke-width="8" stroke-linecap="round" stroke-linejoin="round"/>
<path d="M90 103V87" stroke="#CBCBCB" stroke-width="8" stroke-linecap="round" stroke-linejoin="round"/>
<path d="M90 71H90.0408" stroke="#CBCBCB" stroke-width="8" stroke-linecap="round" stroke-linejoin="round"/>
</svg>
